LibreFranklin-Medium.ufo
<glyph name="exclam" format="2">
  <advance width="250.5625"/>
  <unicode hex="0021"/>
  <outline>
    <contour>
      <point x="185.775" y="18.425" type="curve"/>
      <point x="185.775" y="114.725" type="line"/>
      <point x="185.775" y="123.6125"/>
      <point x="182.125" y="127.675"/>
      <point x="174.2375" y="127.675" type="curve"/>
      <point x="74.675" y="127.675" type="line" smooth="yes"/>
      <point x="67.7875" y="127.675"/>
      <point x="62.725" y="123.6125"/>
      <point x="62.725" y="113.3125" type="curve"/>
      <point x="62.725" y="16.1875" type="line" smooth="yes"/>
      <point x="62.725" y="5.0625"/>
      <point x="66.7875" y="0.0"/>
      <point x="79.7375" y="0.0" type="curve"/>
      <point x="164.525" y="0.0" type="line" smooth="yes"/>
      <point x="180.3" y="0.0"/>
      <point x="185.775" y="5.0625"/>
    </contour>
    <contour>
      <point x="160.875" y="212.925" type="curve"/>
      <point x="187.1375" y="729.8125" type="line"/>
      <point x="187.55" y="736.9375"/>
      <point x="183.075" y="742.0"/>
      <point x="176.1875" y="742.0" type="curve"/>
      <point x="73.55" y="742.0" type="line" smooth="yes"/>
      <point x="66.8375" y="742.0"/>
      <point x="61.95" y="737.525"/>
      <point x="62.775000000000006" y="728.4" type="curve"/>
      <point x="89.275" y="211.1" type="line" smooth="yes"/>
      <point x="90.1" y="201.15"/>
      <point x="92.925" y="196.675"/>
      <point x="104.7" y="196.675" type="curve"/>
      <point x="141.3875" y="196.675" type="line" smooth="yes"/>
      <point x="154.9875" y="196.675"/>
      <point x="160.05" y="201.15"/>
    </contour>
  </outline>
</glyph>
<glyph name="numbersign" format="2">
  <advance width="603.0"/>
  <unicode hex="0023"/>
  <outline>
    <contour>
      <point x="177.6625" y="16.9" type="curve"/>
      <point x="284.3" y="722.4625" type="line"/>
      <point x="285.7125" y="731.9375"/>
      <point x="281.2375" y="736.175"/>
      <point x="273.175" y="737.175" type="curve"/>
      <point x="233.9125" y="742.0" type="line" smooth="yes"/>
      <point x="227.6125" y="743.0"/>
      <point x="223.7875" y="737.1125"/>
      <point x="221.9625" y="728.575" type="curve"/>
      <point x="114.5" y="17.8375" type="line" smooth="yes"/>
      <point x="113.675" y="8.2375"/>
      <point x="118.8" y="6.2375"/>
      <point x="129.9875" y="4.4125" type="curve"/>
      <point x="159.7625" y="0.0" type="line" smooth="yes"/>
      <point x="172.425" y="-1.825"/>
      <point x="175.8375" y="3.4749999999999996"/>
    </contour>
    <contour>
      <point x="389.325" y="16.9" type="curve"/>
      <point x="495.9625" y="722.4625" type="line"/>
      <point x="497.375" y="731.9375"/>
      <point x="492.9" y="736.175"/>
      <point x="484.8375" y="737.175" type="curve"/>
      <point x="445.575" y="742.0" type="line" smooth="yes"/>
      <point x="439.275" y="743.0"/>
      <point x="435.45" y="737.1125"/>
      <point x="433.625" y="728.575" type="curve"/>
      <point x="326.1625" y="17.8375" type="line" smooth="yes"/>
      <point x="325.3375" y="8.2375"/>
      <point x="330.4625" y="6.2375"/>
      <point x="341.65" y="4.4125" type="curve"/>
      <point x="371.425" y="0.0" type="line" smooth="yes"/>
      <point x="384.0875" y="-1.825"/>
      <point x="387.5" y="3.4749999999999996"/>
    </contour>
    <contour>
      <point x="541.5" y="254.7" type="curve"/>
      <point x="541.5" y="288.6" type="line"/>
      <point x="541.5" y="295.9"/>
      <point x="536.85" y="300.375"/>
      <point x="529.9625" y="300.375" type="curve"/>
      <point x="39.275" y="300.375" type="line" smooth="yes"/>
      <point x="32.5625" y="300.375"/>
      <point x="28.5" y="295.9"/>
      <point x="28.5" y="286.775" type="curve"/>
      <point x="28.5" y="252.875" type="line" smooth="yes"/>
      <point x="28.5" y="242.925"/>
      <point x="32.15" y="238.45"/>
      <point x="43.925" y="238.45" type="curve"/>
      <point x="522.0125" y="238.45" type="line" smooth="yes"/>
      <point x="535.6125" y="238.45"/>
      <point x="541.5" y="242.925"/>
    </contour>
    <contour>
      <point x="574.5" y="464.7" type="curve"/>
      <point x="574.5" y="498.6" type="line"/>
      <point x="574.5" y="505.9"/>
      <point x="569.85" y="510.375"/>
      <point x="562.9625" y="510.375" type="curve"/>
      <point x="72.275" y="510.375" type="line" smooth="yes"/>
      <point x="65.5625" y="510.375"/>
      <point x="61.5" y="505.9"/>
      <point x="61.5" y="496.775" type="curve"/>
      <point x="61.5" y="462.875" type="line" smooth="yes"/>
      <point x="61.5" y="452.925"/>
      <point x="65.15" y="448.45"/>
      <point x="76.925" y="448.45" type="curve"/>
      <point x="555.0125" y="448.45" type="line" smooth="yes"/>
      <point x="568.6125" y="448.45"/>
      <point x="574.5" y="452.925"/>
    </contour>
  </outline>
</glyph>
<glyph name="dollar" format="2">
  <advance width="620.6125"/>
  <unicode hex="0024"/>
  <outline>
    <contour>
      <point x="583.9125" y="193.4625" type="curve"/>
      <point x="583.9125" y="193.4625" type="line"/>
      <point x="583.9125" y="291.7625"/>
      <point x="518.1375" y="361.6"/>
      <point x="410.325" y="399.7" type="curve"/>
      <point x="366.825" y="413.35" type="line" smooth="yes"/>
      <point x="357.4125" y="416.525"/>
      <point x="355.0" y="418.9375"/>
      <point x="355.0" y="427.1125" type="curve"/>
      <point x="355.0" y="651.975" type="line" smooth="yes"/>
      <point x="355.0" y="657.975"/>
      <point x="358.2375" y="661.8"/>
      <point x="366.0625" y="659.975" type="curve"/>
      <point x="416.0375" y="650.7375"/>
      <point x="460.25" y="626.6875"/>
      <point x="486.0625" y="597.0" type="curve"/>
      <point x="496.1875" y="586.525"/>
      <point x="501.075" y="587.5875"/>
      <point x="507.725" y="594.475" type="curve"/>
      <point x="548.4625" y="640.7625" type="line"/>
      <point x="555.7" y="648.65"/>
      <point x="553.2875" y="656.125"/>
      <point x="546.4" y="660.95" type="curve"/>
      <point x="497.875" y="704.225"/>
      <point x="441.525" y="732.8625"/>
      <point x="366.125" y="744.4" type="curve"/>
      <point x="358.65" y="745.6375"/>
      <point x="355.4125" y="748.225"/>
      <point x="355.4125" y="753.05" type="curve"/>
      <point x="355.4125" y="798.8" type="line" smooth="yes"/>
      <point x="355.4125" y="809.925"/>
      <point x="350.9375" y="813.75"/>
      <point x="341.6375" y="813.75" type="curve"/>
      <point x="292.475" y="813.75" type="line" smooth="yes"/>
      <point x="287.2375" y="813.75"/>
      <point x="282.7625" y="809.925"/>
      <point x="282.7625" y="803.0375" type="curve"/>
      <point x="282.7625" y="757.35" type="line" smooth="yes"/>
      <point x="282.7625" y="750.05"/>
      <point x="274.8125" y="745.4"/>
      <point x="268.75" y="744.575" type="curve"/>
      <point x="137.2625" y="726.5"/>
      <point x="55.0375" y="647.7875"/>
      <point x="55.0375" y="540.85" type="curve"/>
      <point x="55.0375" y="441.725"/>
      <point x="108.3375" y="378.625"/>
      <point x="264.8875" y="329.5375" type="curve"/>
      <point x="277.65" y="324.1875"/>
      <point x="283.35" y="318.25"/>
      <point x="283.35" y="306.6625" type="curve"/>
      <point x="282.9375" y="84.9625" type="line" smooth="yes"/>
      <point x="282.9375" y="77.4875"/>
      <point x="279.7" y="75.4875"/>
      <point x="271.4" y="76.3125" type="curve"/>
      <point x="193.6125" y="81.26249999999999"/>
      <point x="144.7375" y="113.13749999999999"/>
      <point x="101.1625" y="165.875" type="curve"/>
      <point x="94.45" y="172.7625"/>
      <point x="85.625" y="173.175"/>
      <point x="77.325" y="165.225" type="curve"/>
      <point x="36.1625" y="123.4625" type="line" smooth="yes"/>
      <point x="28.6875" y="116.75"/>
      <point x="30.1625" y="108.45"/>
      <point x="40.7625" y="98.5625" type="curve"/>
      <point x="97.125" y="32.4125"/>
      <point x="164.3" y="-3.4000000000000004"/>
      <point x="271.75" y="-6.2875" type="curve"/>
      <point x="279.875" y="-6.2875"/>
      <point x="282.1125" y="-8.525"/>
      <point x="282.1125" y="-17.65" type="curve"/>
      <point x="282.1125" y="-71.0875" type="line" smooth="yes"/>
      <point x="282.1125" y="-79.8625"/>
      <point x="286.175" y="-84.75"/>
      <point x="297.3625" y="-84.75" type="curve"/>
      <point x="339.1" y="-84.75" type="line" smooth="yes"/>
      <point x="351.1125" y="-84.75"/>
      <point x="356.0" y="-79.8625"/>
      <point x="356.0" y="-68.0875" type="curve"/>
      <point x="356.0" y="-18.475" type="line" smooth="yes"/>
      <point x="356.0" y="-9.525"/>
      <point x="358.0" y="-7.112500000000001"/>
      <point x="369.3625" y="-6.2875" type="curve"/>
      <point x="498.4375" y="1.1374999999999993"/>
      <point x="583.9125" y="83.15"/>
    </contour>
    <contour>
      <point x="282.7625" y="653.5625" type="curve"/>
      <point x="282.7625" y="452.0" type="line"/>
      <point x="282.7625" y="437.35"/>
      <point x="275.0" y="433.1125"/>
      <point x="262.7625" y="436.875" type="curve"/>
      <point x="178.7" y="469.9"/>
      <point x="150.65" y="502.65"/>
      <point x="150.65" y="550.1625" type="curve"/>
      <point x="150.65" y="608.65"/>
      <point x="196.0875" y="653.8"/>
      <point x="271.1125" y="663.45" type="curve"/>
      <point x="278.7625" y="664.8625"/>
      <point x="282.7625" y="661.0375"/>
    </contour>
    <contour>
      <point x="355.5875" y="82.3125" type="curve"/>
      <point x="355.5875" y="82.3125" type="line"/>
      <point x="355.5875" y="293.8375" type="line" smooth="yes"/>
      <point x="355.5875" y="304.8375"/>
      <point x="360.9375" y="305.8375"/>
      <point x="370.1125" y="303.075" type="curve"/>
      <point x="453.725" y="273.925"/>
      <point x="487.475" y="238.1125"/>
      <point x="487.475" y="181.7875" type="curve"/>
      <point x="487.475" y="124.0"/>
      <point x="440.9125" y="80.025"/>
      <point x="365.8875" y="75.9" type="curve"/>
      <point x="359.2375" y="75.07499999999999"/>
      <point x="355.5875" y="77.07499999999999"/>
    </contour>
  </outline>
</glyph>
<glyph name="ampersand" format="2">
  <advance width="796.925"/>
  <unicode hex="0026"/>
  <outline>
    <contour>
      <point x="349.475" y="753.0" type="curve"/>
      <point x="349.475" y="753.0" type="line"/>
      <point x="225.5125" y="753.0"/>
      <point x="133.675" y="674.2375"/>
      <point x="133.675" y="568.825" type="curve"/>
      <point x="133.675" y="518.125"/>
      <point x="156.0875" y="469.2375"/>
      <point x="198.7875" y="423.7125" type="curve"/>
      <point x="211.375" y="409.7125"/>
      <point x="210.375" y="406.3"/>
      <point x="197.375" y="398.7125" type="curve"/>
      <point x="84.3625" y="332.8875"/>
      <point x="39.5875" y="269.3"/>
      <point x="39.5875" y="190.3" type="curve"/>
      <point x="39.5875" y="69.9375"/>
      <point x="125.5375" y="-5.0"/>
      <point x="268.625" y="-5.0" type="curve"/>
      <point x="357.4625" y="-5.0"/>
      <point x="431.4625" y="23.05"/>
      <point x="495.9375" y="76.925" type="curve"/>
      <point x="504.2375" y="83.575"/>
      <point x="508.65" y="83.575"/>
      <point x="516.95" y="77.925" type="curve"/>
      <point x="573.55" y="34.6875"/>
      <point x="666.9375" y="0.0"/>
      <point x="749.7875" y="0.0" type="curve"/>
      <point x="763.6125" y="0.0"/>
      <point x="769.0875" y="6.3"/>
      <point x="769.0875" y="20.1875" type="curve"/>
      <point x="769.0875" y="77.26249999999999" type="line" smooth="yes"/>
      <point x="769.0875" y="87.5625"/>
      <point x="764.4375" y="91.8"/>
      <point x="752.55" y="92.2125" type="curve"/>
      <point x="696.275" y="93.44999999999999"/>
      <point x="632.55" y="117.3125"/>
      <point x="598.325" y="147.4125" type="curve"/>
      <point x="589.85" y="153.825"/>
      <point x="589.2625" y="157.0"/>
      <point x="596.325" y="165.3" type="curve"/>
      <point x="655.8375" y="231.4125"/>
      <point x="709.9125" y="308.65"/>
      <point x="730.15" y="364.6375" type="curve"/>
      <point x="732.8" y="372.35"/>
      <point x="727.7375" y="381.3"/>
      <point x="719.6125" y="384.125" type="curve"/>
      <point x="667.9625" y="401.4375" type="line" smooth="yes"/>
      <point x="659.6625" y="404.2625"/>
      <point x="652.425" y="402.4375"/>
      <point x="648.775" y="393.9625" type="curve"/>
      <point x="633.0125" y="350.15"/>
      <point x="579.2375" y="270.3375"/>
      <point x="536.675" y="227.825" type="curve"/>
      <point x="527.675" y="218.175"/>
      <point x="525.2" y="218.175"/>
      <point x="517.9625" y="226.0" type="curve"/>
      <point x="377.4" y="387.7125" type="line" smooth="yes"/>
      <point x="369.9875" y="396.3"/>
      <point x="370.4" y="399.7125"/>
      <point x="380.4" y="404.125" type="curve"/>
      <point x="494.5875" y="455.6375"/>
      <point x="549.3" y="530.35"/>
      <point x="549.3" y="600.1625" type="curve"/>
      <point x="549.3" y="694.225"/>
      <point x="463.75" y="753.0"/>
    </contour>
    <contour>
      <point x="353.6" y="682.65" type="curve"/>
      <point x="353.6" y="682.65" type="line"/>
      <point x="408.2875" y="682.65"/>
      <point x="451.7375" y="653.3625"/>
      <point x="451.7375" y="596.8" type="curve"/>
      <point x="451.7375" y="543.65"/>
      <point x="414.7" y="501.375"/>
      <point x="326.1875" y="458.7625" type="curve"/>
      <point x="319.6" y="455.7625"/>
      <point x="311.775" y="455.525"/>
      <point x="307.5375" y="460.35" type="curve"/>
      <point x="278.7625" y="493.6" type="line" smooth="yes"/>
      <point x="253.4875" y="521.6375"/>
      <point x="242.1375" y="548.0375"/>
      <point x="242.1375" y="576.075" type="curve"/>
      <point x="242.1375" y="631.8"/>
      <point x="282.9375" y="682.65"/>
    </contour>
    <contour>
      <point x="280.8875" y="334.1875" type="curve"/>
      <point x="280.8875" y="334.1875" type="line"/>
      <point x="434.875" y="156.75" type="line" smooth="yes"/>
      <point x="442.525" y="147.1"/>
      <point x="440.4625" y="140.5125"/>
      <point x="431.875" y="132.925" type="curve"/>
      <point x="395.425" y="100.475"/>
      <point x="340.2125" y="77.13749999999999"/>
      <point x="289.5375" y="77.13749999999999" type="curve"/>
      <point x="212.925" y="77.13749999999999"/>
      <point x="154.71249999999998" y="128.8875"/>
      <point x="154.71249999999998" y="198.675" type="curve"/>
      <point x="154.71249999999998" y="255.2875"/>
      <point x="192.3375" y="307.6125"/>
      <point x="253.3" y="338.775" type="curve"/>
      <point x="264.65" y="344.775"/>
      <point x="271.65" y="345.0125"/>
    </contour>
  </outline>
</glyph>
<glyph name="quotesingle" format="2">
  <advance width="242.425"/>
  <unicode hex="0027"/>
  <outline>
    <contour>
      <point x="153.975" y="509.9125" type="curve"/>
      <point x="182.225" y="730.225" type="line"/>
      <point x="183.05" y="737.9375"/>
      <point x="178.575" y="742.0"/>
      <point x="171.275" y="742.0" type="curve"/>
      <point x="74.45" y="742.0" type="line" smooth="yes"/>
      <point x="68.15" y="742.0"/>
      <point x="62.2625" y="737.9375"/>
      <point x="63.087500000000006" y="729.4" type="curve"/>
      <point x="90.75" y="507.0875" type="line" smooth="yes"/>
      <point x="92.1625" y="497.1375"/>
      <point x="94.8125" y="492.6625"/>
      <point x="106.5875" y="492.6625" type="curve"/>
      <point x="134.4875" y="492.6625" type="line" smooth="yes"/>
      <point x="148.5" y="492.6625"/>
      <point x="152.15" y="497.725"/>
    </contour>
  </outline>
</glyph>
<glyph name="parenleft" format="2">
  <advance width="294.4"/>
  <unicode hex="0028"/>
  <outline>
    <contour>
      <point x="267.9875" y="742.0" type="curve"/>
      <point x="267.9875" y="742.0" type="line"/>
      <point x="220.5625" y="742.0" type="line" smooth="yes"/>
      <point x="211.675" y="742.0"/>
      <point x="206.6125" y="738.7625"/>
      <point x="201.9625" y="732.7" type="curve"/>
      <point x="118.9625" y="607.7"/>
      <point x="61.4375" y="451.0"/>
      <point x="61.4375" y="285.0" type="curve"/>
      <point x="61.4375" y="114.0"/>
      <point x="114.325" y="-15.7"/>
      <point x="196.325" y="-156.7" type="curve"/>
      <point x="200.5625" y="-162.7625"/>
      <point x="203.8" y="-165.0"/>
      <point x="210.275" y="-165.0" type="curve"/>
      <point x="261.1125" y="-165.0" type="line" smooth="yes"/>
      <point x="269.5875" y="-165.0"/>
      <point x="271.4125" y="-158.9375"/>
      <point x="268.5875" y="-153.875" type="curve"/>
      <point x="198.5875" y="-3.875"/>
      <point x="161.175" y="133.0"/>
      <point x="161.175" y="284.0" type="curve"/>
      <point x="161.175" y="443.0"/>
      <point x="209.05" y="600.7"/>
      <point x="275.05" y="731.7" type="curve"/>
      <point x="277.875" y="736.35"/>
      <point x="276.4625" y="742.0"/>
    </contour>
  </outline>
</glyph>
<glyph name="asterisk" format="2">
  <advance width="407.025"/>
  <unicode hex="002A"/>
  <outline>
    <contour>
      <point x="210.6" y="509.7125" type="curve"/>
      <point x="282.425" y="392.7625" type="line"/>
      <point x="285.075" y="388.2875"/>
      <point x="292.7875" y="386.4625"/>
      <point x="300.9125" y="392.35" type="curve"/>
      <point x="337.5875" y="418.075" type="line" smooth="yes"/>
      <point x="346.125" y="423.9625"/>
      <point x="347.125" y="430.675"/>
      <point x="342.475" y="436.325" type="curve"/>
      <point x="259.525" y="537.8" type="line" smooth="yes"/>
      <point x="256.2875" y="541.625"/>
      <point x="256.875" y="545.6875"/>
      <point x="261.525" y="547.1" type="curve"/>
      <point x="378.6" y="583.8625" type="line" smooth="yes"/>
      <point x="385.3125" y="585.6875"/>
      <point x="387.375" y="590.575"/>
      <point x="385.1375" y="598.4625" type="curve"/>
      <point x="371.5375" y="640.9125" type="line" smooth="yes"/>
      <point x="369.3" y="648.45"/>
      <point x="365.0" y="650.6875"/>
      <point x="357.7" y="647.45" type="curve"/>
      <point x="241.625" y="597.0875" type="line" smooth="yes"/>
      <point x="237.15" y="595.2625"/>
      <point x="234.7375" y="597.0875"/>
      <point x="235.15" y="602.7375" type="curve"/>
      <point x="243.8625" y="732.4625" type="line" smooth="yes"/>
      <point x="244.275" y="737.1125"/>
      <point x="241.625" y="742.0"/>
      <point x="234.7375" y="742.0" type="curve"/>
      <point x="179.9875" y="742.0" type="line" smooth="yes"/>
      <point x="172.5125" y="742.0"/>
      <point x="169.275" y="736.525"/>
      <point x="169.6875" y="732.4625" type="curve"/>
      <point x="178.75" y="603.15" type="line" smooth="yes"/>
      <point x="179.1625" y="597.5"/>
      <point x="175.5125" y="595.675"/>
      <point x="170.45" y="597.9125" type="curve"/>
      <point x="57.375" y="644.1625" type="line" smooth="yes"/>
      <point x="50.4875" y="647.4"/>
      <point x="46.8375" y="644.75"/>
      <point x="44.6" y="638.8625" type="curve"/>
      <point x="28.7625" y="595.4125" type="line" smooth="yes"/>
      <point x="26.1125" y="587.7"/>
      <point x="27.7625" y="582.4"/>
      <point x="33.65" y="580.575" type="curve"/>
      <point x="152.55" y="546.925" type="line" smooth="yes"/>
      <point x="158.6125" y="545.5125"/>
      <point x="159.025" y="541.45"/>
      <point x="156.7875" y="538.2125" type="curve"/>
      <point x="70.425" y="430.975" type="line" smooth="yes"/>
      <point x="65.3625" y="424.5"/>
      <point x="65.775" y="420.85"/>
      <point x="72.075" y="416.375" type="curve"/>
      <point x="113.05" y="387.7625" type="line" smooth="yes"/>
      <point x="119.35" y="383.2875"/>
      <point x="126.65" y="384.1125"/>
      <point x="129.3" y="388.5875" type="curve"/>
      <point x="203.8875" y="509.7125" type="line" smooth="yes"/>
      <point x="205.7125" y="512.3625"/>
      <point x="208.775" y="512.3625"/>
    </contour>
  </outline>
</glyph>
<glyph name="comma" format="2">
  <advance width="224.95"/>
  <unicode hex="002C"/>
  <outline>
    <contour>
      <point x="52.475" y="-146.7875" type="curve"/>
      <point x="52.475" y="-146.7875" type="line"/>
      <point x="65.6625" y="-146.7875" type="line" smooth="yes"/>
      <point x="75.375" y="-146.7875"/>
      <point x="85.3875" y="-142.3125"/>
      <point x="91.1" y="-133.775" type="curve"/>
      <point x="171.6125" y="9.3625" type="line" smooth="yes"/>
      <point x="173.4375" y="13.1875"/>
      <point x="174.4375" y="16.775"/>
      <point x="174.4375" y="22.6" type="curve"/>
      <point x="174.4375" y="116.3125" type="line" smooth="yes"/>
      <point x="174.4375" y="124.025"/>
      <point x="170.7875" y="128.0875"/>
      <point x="163.4875" y="128.0875" type="curve"/>
      <point x="62.75" y="128.0875" type="line" smooth="yes"/>
      <point x="55.8625" y="128.0875"/>
      <point x="51.3875" y="124.025"/>
      <point x="51.3875" y="115.4875" type="curve"/>
      <point x="51.3875" y="14.425" type="line" smooth="yes"/>
      <point x="51.3875" y="5.0625"/>
      <point x="55.45" y="0.0"/>
      <point x="67.225" y="0.0" type="curve"/>
      <point x="81.5875" y="0.0" type="line" smooth="yes"/>
      <point x="93.475" y="0.0"/>
      <point x="95.475" y="-6.7125"/>
      <point x="90.0" y="-19.075" type="curve"/>
      <point x="44.1125" y="-130.6" type="line" smooth="yes"/>
      <point x="40.2875" y="-139.6625"/>
      <point x="44.7625" y="-146.7875"/>
    </contour>
  </outline>
</glyph>
<glyph name="hyphen" format="2">
  <advance width="380.5875"/>
  <unicode hex="002D"/>
  <outline>
    <contour>
      <point x="322.55" y="240.3875" type="curve"/>
      <point x="322.55" y="293.6125" type="line"/>
      <point x="322.55" y="300.9125"/>
      <point x="317.9" y="305.3875"/>
      <point x="311.0125" y="305.3875" type="curve"/>
      <point x="68.8125" y="304.8" type="line" smooth="yes"/>
      <point x="62.1" y="304.8"/>
      <point x="58.0375" y="300.325"/>
      <point x="58.0375" y="291.2" type="curve"/>
      <point x="58.0375" y="237.975" type="line" smooth="yes"/>
      <point x="58.0375" y="228.025"/>
      <point x="61.6875" y="223.55"/>
      <point x="73.4625" y="223.55" type="curve"/>
      <point x="303.0625" y="224.1375" type="line" smooth="yes"/>
      <point x="316.6625" y="224.1375"/>
      <point x="322.55" y="228.6125"/>
    </contour>
  </outline>
</glyph>
<glyph name="period" format="2">
  <advance width="222.0125"/>
  <unicode hex="002E"/>
  <outline>
    <contour>
      <point x="171.5" y="18.425" type="curve"/>
      <point x="171.5" y="116.375" type="line"/>
      <point x="171.5" y="125.26249999999999"/>
      <point x="167.85" y="129.325"/>
      <point x="159.9625" y="129.325" type="curve"/>
      <point x="60.4" y="129.325" type="line" smooth="yes"/>
      <point x="53.5125" y="129.325"/>
      <point x="48.45" y="125.26249999999999"/>
      <point x="48.45" y="114.9625" type="curve"/>
      <point x="48.45" y="16.1875" type="line" smooth="yes"/>
      <point x="48.45" y="5.0625"/>
      <point x="52.5125" y="0.0"/>
      <point x="65.4625" y="0.0" type="curve"/>
      <point x="150.25" y="0.0" type="line" smooth="yes"/>
      <point x="166.025" y="0.0"/>
      <point x="171.5" y="5.0625"/>
    </contour>
  </outline>
</glyph>
<glyph name="slash" format="2">
  <advance width="349.45"/>
  <unicode hex="002F"/>
  <outline>
    <contour>
      <point x="19.9375" y="-35.25" type="curve"/>
      <point x="19.9375" y="-35.25" type="line"/>
      <point x="71.2125" y="-35.25" type="line" smooth="yes"/>
      <point x="81.1625" y="-35.25"/>
      <point x="88.05" y="-31.6"/>
      <point x="92.1125" y="-19.825000000000003" type="curve"/>
      <point x="337.225" y="722.5125" type="line" smooth="yes"/>
      <point x="341.7" y="736.1125"/>
      <point x="339.05" y="742.0"/>
      <point x="327.275" y="742.0" type="curve"/>
      <point x="276.0" y="742.0" type="line" smooth="yes"/>
      <point x="268.7" y="742.0"/>
      <point x="262.8125" y="737.9375"/>
      <point x="260.575" y="731.05" type="curve"/>
      <point x="10.4" y="-24.475" type="line" smooth="yes"/>
      <point x="8.162500000000001" y="-31.1875"/>
      <point x="10.8125" y="-35.25"/>
    </contour>
  </outline>
</glyph>
<glyph name="zero" format="2">
  <advance width="694.3875"/>
  <unicode hex="0030"/>
  <outline>
    <contour>
      <point x="347.9" y="752.4125" type="curve"/>
      <point x="347.9" y="752.4125" type="line"/>
      <point x="183.5125" y="752.4125"/>
      <point x="59.2" y="611.7375"/>
      <point x="59.2" y="367.825" type="curve"/>
      <point x="59.2" y="126.675"/>
      <point x="181.1" y="-9.175"/>
      <point x="347.3125" y="-9.175" type="curve"/>
      <point x="513.1125" y="-9.175"/>
      <point x="635.1875" y="127.2625"/>
      <point x="635.1875" y="369.0" type="curve"/>
      <point x="635.1875" y="612.325"/>
      <point x="511.875" y="752.4125"/>
    </contour>
    <contour>
      <point x="348.075" y="79.85" type="curve"/>
      <point x="348.075" y="79.85" type="line"/>
      <point x="245.7" y="79.85"/>
      <point x="182.275" y="163.525"/>
      <point x="182.275" y="368.5875" type="curve"/>
      <point x="182.275" y="576.8875"/>
      <point x="246.1125" y="664.2125"/>
      <point x="347.4875" y="664.2125" type="curve"/>
      <point x="448.8625" y="664.2125"/>
      <point x="512.1125" y="577.8875"/>
      <point x="512.1125" y="368.5875" type="curve"/>
      <point x="512.1125" y="162.525"/>
      <point x="450.8625" y="79.85"/>
    </contour>
  </outline>
</glyph>
<glyph name="one" format="2">
  <advance width="478.8375"/>
  <unicode hex="0031"/>
  <outline>
    <contour>
      <point x="426.075" y="92.32499999999999" type="curve"/>
      <point x="426.075" y="92.32499999999999" type="line"/>
      <point x="316.1" y="92.32499999999999" type="line" smooth="yes"/>
      <point x="311.45" y="92.32499999999999"/>
      <point x="308.625" y="95.15"/>
      <point x="308.625" y="100.8" type="curve"/>
      <point x="308.625" y="728.05" type="line" smooth="yes"/>
      <point x="308.625" y="736.9375"/>
      <point x="303.975" y="742.0"/>
      <point x="296.5" y="742.0" type="curve"/>
      <point x="245.575" y="742.0" type="line" smooth="yes"/>
      <point x="233.0375" y="742.0"/>
      <point x="225.975" y="739.7625"/>
      <point x="212.025" y="732.7" type="curve"/>
      <point x="57.2875" y="655.625" type="line" smooth="yes"/>
      <point x="48.575" y="650.975"/>
      <point x="46.3375" y="648.9125"/>
      <point x="46.3375" y="638.375" type="curve"/>
      <point x="46.3375" y="589.625" type="line" smooth="yes"/>
      <point x="46.3375" y="577.85"/>
      <point x="51.8125" y="573.2"/>
      <point x="62.175" y="576.025" type="curve"/>
      <point x="177.425" y="616.35" type="line" smooth="yes"/>
      <point x="185.725" y="618.7625"/>
      <point x="187.9625" y="615.35"/>
      <point x="187.9625" y="607.4625" type="curve"/>
      <point x="187.9625" y="98.38749999999999" type="line" smooth="yes"/>
      <point x="187.9625" y="94.15"/>
      <point x="183.725" y="92.32499999999999"/>
      <point x="179.4875" y="92.32499999999999" type="curve"/>
      <point x="59.9375" y="92.32499999999999" type="line" smooth="yes"/>
      <point x="51.8125" y="92.32499999999999"/>
      <point x="47.3375" y="89.0875"/>
      <point x="47.3375" y="80.9625" type="curve"/>
      <point x="47.3375" y="12.1875" type="line" smooth="yes"/>
      <point x="47.3375" y="5.0625"/>
      <point x="51.4" y="0.0"/>
      <point x="60.7625" y="0.0" type="curve"/>
      <point x="425.25" y="0.0" type="line" smooth="yes"/>
      <point x="435.2" y="0.0"/>
      <point x="439.675" y="6.475"/>
      <point x="439.675" y="12.6" type="curve"/>
      <point x="439.675" y="80.9625" type="line" smooth="yes"/>
      <point x="439.675" y="89.0875"/>
      <point x="434.7875" y="92.32499999999999"/>
    </contour>
  </outline>
</glyph>
<glyph name="two" format="2">
  <advance width="613.075"/>
  <unicode hex="0032"/>
  <outline>
    <contour>
      <point x="283.025" y="313.9" type="curve"/>
      <point x="78.0125" y="116.15" type="line"/>
      <point x="48.45" y="90.7125"/>
      <point x="45.45" y="82.475"/>
      <point x="45.45" y="69.94999999999999" type="curve"/>
      <point x="45.45" y="17.3625" type="line" smooth="yes"/>
      <point x="45.45" y="3.825"/>
      <point x="50.1" y="0.0"/>
      <point x="63.6375" y="0.0" type="curve"/>
      <point x="545.675" y="0.0" type="line" smooth="yes"/>
      <point x="556.2125" y="0.0"/>
      <point x="560.6875" y="5.887499999999999"/>
      <point x="560.6875" y="13.774999999999999" type="curve"/>
      <point x="560.6875" y="88.44999999999999" type="line" smooth="yes"/>
      <point x="560.6875" y="97.75"/>
      <point x="555.8" y="100.9875"/>
      <point x="545.9125" y="100.9875" type="curve"/>
      <point x="206.8625" y="100.9875" type="line" smooth="yes"/>
      <point x="193.975" y="100.9875"/>
      <point x="193.0375" y="106.4"/>
      <point x="200.8625" y="112.9875" type="curve"/>
      <point x="397.6" y="288.15" type="line" smooth="yes"/>
      <point x="510.875" y="389.9875"/>
      <point x="553.1" y="453.1"/>
      <point x="553.1" y="538.325" type="curve"/>
      <point x="553.1" y="678.9125"/>
      <point x="444.2125" y="752.0"/>
      <point x="308.0375" y="752.0" type="curve"/>
      <point x="206.35" y="752.0"/>
      <point x="113.9375" y="709.5125"/>
      <point x="51.1" y="614.95" type="curve"/>
      <point x="44.45" y="605.0625"/>
      <point x="44.6875" y="596.875"/>
      <point x="55.9875" y="589.4625" type="curve"/>
      <point x="113.88749999999999" y="557.4875" type="line" smooth="yes"/>
      <point x="124.6" y="550.6625"/>
      <point x="132.6625" y="553.6625"/>
      <point x="136.4875" y="559.725" type="curve"/>
      <point x="181.6625" y="633.0875"/>
      <point x="242.6875" y="660.9125"/>
      <point x="298.975" y="660.9125" type="curve"/>
      <point x="369.25" y="660.9125"/>
      <point x="435.325" y="618.5125"/>
      <point x="435.325" y="541.025" type="curve"/>
      <point x="435.325" y="472.4625"/>
      <point x="399.875" y="421.4375"/>
    </contour>
  </outline>
</glyph>
<glyph name="three" format="2">
  <advance width="649.1625"/>
  <unicode hex="0033"/>
  <outline>
    <contour>
      <point x="73.275" y="633.8625" type="curve"/>
      <point x="73.275" y="633.8625" type="line"/>
      <point x="120.3375" y="588.5125" type="line" smooth="yes"/>
      <point x="127.9875" y="581.275"/>
      <point x="131.9875" y="581.275"/>
      <point x="139.6375" y="588.925" type="curve"/>
      <point x="191.7" y="639.1625"/>
      <point x="246.3875" y="664.625"/>
      <point x="312.7875" y="664.625" type="curve"/>
      <point x="395.2125" y="664.625"/>
      <point x="454.125" y="617.0625"/>
      <point x="454.125" y="556.0375" type="curve"/>
      <point x="454.125" y="484.425"/>
      <point x="382.225" y="432.275"/>
      <point x="286.325" y="430.625" type="curve"/>
      <point x="215.8" y="428.975" type="line" smooth="yes"/>
      <point x="207.5" y="428.15"/>
      <point x="201.85" y="424.325"/>
      <point x="201.85" y="417.85" type="curve"/>
      <point x="201.85" y="352.6625" type="line" smooth="yes"/>
      <point x="201.85" y="344.775"/>
      <point x="206.5" y="341.5375"/>
      <point x="215.8" y="341.5375" type="curve"/>
      <point x="303.325" y="340.7125" type="line" smooth="yes"/>
      <point x="393.175" y="339.8875"/>
      <point x="476.3" y="292.2"/>
      <point x="476.3" y="204.6625" type="curve"/>
      <point x="476.3" y="130.525"/>
      <point x="414.625" y="79.025"/>
      <point x="307.975" y="79.025" type="curve"/>
      <point x="231.45" y="79.025"/>
      <point x="178.0" y="101.675"/>
      <point x="117.5875" y="163.675" type="curve"/>
      <point x="113.35" y="168.325"/>
      <point x="108.875" y="170.0875"/>
      <point x="99.9875" y="163.2625" type="curve"/>
      <point x="45.9875" y="122.6375" type="line" smooth="yes"/>
      <point x="36.6875" y="115.8125"/>
      <point x="36.0375" y="109.625"/>
      <point x="42.1" y="101.5" type="curve"/>
      <point x="104.2625" y="28.7875"/>
      <point x="194.7125" y="-10.0"/>
      <point x="300.0875" y="-10.0" type="curve"/>
      <point x="497.0625" y="-10.0"/>
      <point x="595.3125" y="78.1625"/>
      <point x="595.3125" y="208.075" type="curve"/>
      <point x="595.3125" y="298.1125"/>
      <point x="530.975" y="363.875"/>
      <point x="448.15" y="388.175" type="curve"/>
      <point x="433.15" y="392.5875"/>
      <point x="433.5625" y="398.3"/>
      <point x="448.5625" y="403.3" type="curve"/>
      <point x="527.0875" y="429.825"/>
      <point x="572.3125" y="492.8875"/>
      <point x="572.3125" y="562.225" type="curve"/>
      <point x="572.3125" y="671.825"/>
      <point x="473.65" y="752.0"/>
      <point x="313.2625" y="752.0" type="curve"/>
      <point x="217.65" y="752.0"/>
      <point x="132.4375" y="717.575"/>
      <point x="73.275" y="651.6375" type="curve"/>
      <point x="68.625" y="645.3375"/>
      <point x="68.0375" y="639.5125"/>
    </contour>
  </outline>
</glyph>
<glyph name="four" format="2">
  <advance width="661.3625"/>
  <unicode hex="0034"/>
  <outline>
    <contour>
      <point x="379.1375" y="728.75" type="curve"/>
      <point x="379.1375" y="728.75" type="line"/>
      <point x="61.0" y="305.05" type="line" smooth="yes"/>
      <point x="47.4" y="286.8"/>
      <point x="42.1" y="277.0875"/>
      <point x="42.1" y="267.375" type="curve"/>
      <point x="42.1" y="206.2625" type="line" smooth="yes"/>
      <point x="42.1" y="196.2"/>
      <point x="47.75" y="191.3125"/>
      <point x="58.875" y="191.3125" type="curve"/>
      <point x="375.0125" y="191.3125" type="line" smooth="yes"/>
      <point x="381.8375" y="191.3125"/>
      <point x="385.4875" y="188.9"/>
      <point x="385.4875" y="183.6625" type="curve"/>
      <point x="385.075" y="15.6" type="line" smooth="yes"/>
      <point x="385.075" y="5.65"/>
      <point x="389.725" y="0.0"/>
      <point x="400.9125" y="0.0" type="curve"/>
      <point x="487.9" y="0.0" type="line" smooth="yes"/>
      <point x="501.5" y="0.0"/>
      <point x="507.3875" y="5.0625"/>
      <point x="507.3875" y="17.25" type="curve"/>
      <point x="507.3875" y="180.6625" type="line" smooth="yes"/>
      <point x="507.3875" y="188.9"/>
      <point x="511.2125" y="191.3125"/>
      <point x="517.0375" y="191.3125" type="curve"/>
      <point x="605.6625" y="191.3125" type="line" smooth="yes"/>
      <point x="616.7875" y="191.3125"/>
      <point x="621.4375" y="197.375"/>
      <point x="621.4375" y="206.2625" type="curve"/>
      <point x="621.4375" y="266.325" type="line" smooth="yes"/>
      <point x="621.4375" y="275.0375"/>
      <point x="615.7875" y="278.275"/>
      <point x="606.4875" y="278.275" type="curve"/>
      <point x="516.0375" y="278.275" type="line" smooth="yes"/>
      <point x="510.2125" y="278.275"/>
      <point x="507.3875" y="282.1"/>
      <point x="507.3875" y="287.925" type="curve"/>
      <point x="507.3875" y="728.05" type="line" smooth="yes"/>
      <point x="507.3875" y="736.9375"/>
      <point x="502.7375" y="742.0"/>
      <point x="494.2625" y="742.0" type="curve"/>
      <point x="408.4" y="742.0" type="line" smooth="yes"/>
      <point x="393.15" y="742.0"/>
      <point x="387.325" y="739.175"/>
    </contour>
    <contour>
      <point x="375.375" y="278.275" type="curve"/>
      <point x="153.425" y="278.275" type="line"/>
      <point x="142.1875" y="278.275"/>
      <point x="140.425" y="283.275"/>
      <point x="146.425" y="291.275" type="curve"/>
      <point x="370.375" y="596.25" type="line" smooth="yes"/>
      <point x="380.2" y="609.4875"/>
      <point x="384.375" y="608.3125"/>
      <point x="384.375" y="592.25" type="curve"/>
      <point x="384.375" y="285.275" type="line" smooth="yes"/>
      <point x="384.375" y="281.275"/>
      <point x="380.375" y="278.275"/>
    </contour>
  </outline>
</glyph>
<glyph name="five" format="2">
  <advance width="661.2125"/>
  <unicode hex="0035"/>
  <outline>
    <contour>
      <point x="549.5" y="742.0" type="curve"/>
      <point x="137.65" y="742.0" type="line"/>
      <point x="114.9875" y="742.0"/>
      <point x="112.275" y="739.1125"/>
      <point x="111.45" y="724.925" type="curve"/>
      <point x="83.625" y="391.8375" type="line" smooth="yes"/>
      <point x="82.2125" y="375.1875"/>
      <point x="79.275" y="374.175"/>
      <point x="91.925" y="366.7625" type="curve"/>
      <point x="153.9375" y="332.1375" type="line" smooth="yes"/>
      <point x="164.2375" y="326.4875"/>
      <point x="162.8875" y="324.725"/>
      <point x="174.5375" y="330.725" type="curve"/>
      <point x="221.3" y="357.1875"/>
      <point x="269.3875" y="383.575"/>
      <point x="332.7" y="383.575" type="curve"/>
      <point x="423.2125" y="383.575"/>
      <point x="491.2875" y="333.875"/>
      <point x="491.2875" y="239.1125" type="curve"/>
      <point x="491.2875" y="145.4625"/>
      <point x="423.675" y="77.85"/>
      <point x="305.6125" y="77.85" type="curve"/>
      <point x="222.625" y="77.85"/>
      <point x="179.575" y="112.7375"/>
      <point x="127.82499999999999" y="162.675" type="curve"/>
      <point x="122.35" y="168.5625"/>
      <point x="115.4625" y="170.975"/>
      <point x="108.3375" y="165.5" type="curve"/>
      <point x="52.625" y="123.6375" type="line" smooth="yes"/>
      <point x="41.2625" y="115.1625"/>
      <point x="44.15" y="108.3875"/>
      <point x="51.2125" y="99.2625" type="curve"/>
      <point x="111.025" y="29.725"/>
      <point x="209.4625" y="-10.0"/>
      <point x="320.2125" y="-10.0" type="curve"/>
      <point x="489.2375" y="-10.0"/>
      <point x="610.3" y="83.0"/>
      <point x="610.3" y="242.5875" type="curve"/>
      <point x="610.3" y="399.1125"/>
      <point x="493.125" y="472.25"/>
      <point x="355.625" y="472.25" type="curve"/>
      <point x="288.8875" y="472.25"/>
      <point x="247.1375" y="452.325"/>
      <point x="197.075" y="430.1" type="curve"/>
      <point x="189.425" y="426.5125"/>
      <point x="183.1875" y="432.1"/>
      <point x="184.6" y="441.75" type="curve"/>
      <point x="200.2375" y="630.95" type="line" smooth="yes"/>
      <point x="200.65" y="639.8375"/>
      <point x="205.8875" y="643.075"/>
      <point x="214.1875" y="643.075" type="curve"/>
      <point x="546.675" y="643.075" type="line" smooth="yes"/>
      <point x="560.3875" y="643.075"/>
      <point x="561.925" y="645.55"/>
      <point x="562.925" y="656.675" type="curve"/>
      <point x="567.1625" y="724.75" type="line" smooth="yes"/>
      <point x="568.1625" y="738.7625"/>
      <point x="566.1625" y="742.0"/>
    </contour>
  </outline>
</glyph>
<glyph name="six" format="2">
  <advance width="668.6875"/>
  <unicode hex="0036"/>
  <outline>
    <contour>
      <point x="370.0625" y="751.175" type="curve"/>
      <point x="370.0625" y="751.175" type="line"/>
      <point x="179.05" y="751.175"/>
      <point x="59.2" y="603.35"/>
      <point x="59.2" y="358.4625" type="curve"/>
      <point x="59.2" y="128.3625"/>
      <point x="170.75" y="-9.175"/>
      <point x="351.6625" y="-9.175" type="curve"/>
      <point x="501.4" y="-9.175"/>
      <point x="619.95" y="87.6"/>
      <point x="619.95" y="228.25" type="curve"/>
      <point x="619.95" y="353.55"/>
      <point x="526.9875" y="446.3125"/>
      <point x="372.575" y="446.3125" type="curve"/>
      <point x="297.775" y="446.3125"/>
      <point x="247.5625" y="423.15"/>
      <point x="198.1625" y="400.1" type="curve"/>
      <point x="181.275" y="392.1"/>
      <point x="179.0375" y="396.8625"/>
      <point x="179.0375" y="420.1" type="curve"/>
      <point x="179.0375" y="559.3875"/>
      <point x="240.1375" y="662.975"/>
      <point x="370.65" y="662.975" type="curve"/>
      <point x="425.2875" y="662.975"/>
      <point x="456.0375" y="639.9125"/>
      <point x="483.325" y="604.5" type="curve"/>
      <point x="486.9125" y="599.0875"/>
      <point x="492.325" y="593.375"/>
      <point x="500.0375" y="596.7875" type="curve"/>
      <point x="573.125" y="624.1" type="line" smooth="yes"/>
      <point x="582.425" y="628.1"/>
      <point x="580.6625" y="635.4"/>
      <point x="578.075" y="641.7" type="curve"/>
      <point x="549.0375" y="693.5375"/>
      <point x="479.175" y="751.175"/>
    </contour>
    <contour>
      <point x="353.475" y="362.2375" type="curve"/>
      <point x="353.475" y="362.2375" type="line"/>
      <point x="442.1875" y="362.2375"/>
      <point x="500.525" y="303.1"/>
      <point x="500.525" y="223.95" type="curve"/>
      <point x="500.525" y="139.75"/>
      <point x="435.6125" y="74.9"/>
      <point x="350.125" y="74.9" type="curve"/>
      <point x="236.3125" y="74.9"/>
      <point x="181.0375" y="187.7"/>
      <point x="181.0375" y="280.0375" type="curve"/>
      <point x="181.0375" y="303.325"/>
      <point x="184.8" y="310.2625"/>
      <point x="199.2625" y="320.375" type="curve"/>
      <point x="235.2375" y="343.5375"/>
      <point x="304.025" y="362.2375"/>
    </contour>
  </outline>
</glyph>
<glyph name="seven" format="2">
  <advance width="605.5625"/>
  <unicode hex="0037"/>
  <outline>
    <contour>
      <point x="545.5" y="742.0" type="curve"/>
      <point x="64.5375" y="742.0" type="line"/>
      <point x="53.0" y="742.0"/>
      <point x="47.2875" y="738.9375"/>
      <point x="46.2875" y="730.875" type="curve"/>
      <point x="38.75" y="657.5" type="line" smooth="yes"/>
      <point x="38.3375" y="648.375"/>
      <point x="41.8125" y="643.075"/>
      <point x="52.825" y="643.075" type="curve"/>
      <point x="424.8" y="643.075" type="line" smooth="yes"/>
      <point x="437.8625" y="643.075"/>
      <point x="437.45" y="636.8375"/>
      <point x="432.0375" y="628.6" type="curve"/>
      <point x="274.1" y="380.6"/>
      <point x="193.55" y="167.6"/>
      <point x="155.425" y="19.6" type="curve"/>
      <point x="152.1875" y="7.475"/>
      <point x="156.8375" y="0.0"/>
      <point x="168.9625" y="0.0" type="curve"/>
      <point x="273.0375" y="0.0" type="line" smooth="yes"/>
      <point x="283.75" y="0.0"/>
      <point x="288.8125" y="7.0625"/>
      <point x="289.8125" y="21.8375" type="curve"/>
      <point x="307.5625" y="157.425"/>
      <point x="416.2875" y="450.0625"/>
      <point x="545.325" y="642.625" type="curve"/>
      <point x="554.3875" y="655.925"/>
      <point x="562.8125" y="674.125"/>
      <point x="563.225" y="685.1875" type="curve"/>
      <point x="564.875" y="726.925" type="line" smooth="yes"/>
      <point x="565.2875" y="734.875"/>
      <point x="558.75" y="742.0"/>
    </contour>
  </outline>
</glyph>
<glyph name="eight" format="2">
  <advance width="673.025"/>
  <unicode hex="0038"/>
  <outline>
    <contour>
      <point x="334.3" y="752.0" type="curve"/>
      <point x="334.3" y="752.0" type="line"/>
      <point x="178.0875" y="752.0"/>
      <point x="74.4375" y="654.925"/>
      <point x="74.4375" y="533.2125" type="curve"/>
      <point x="74.4375" y="456.6125"/>
      <point x="114.8625" y="409.8"/>
      <point x="170.0875" y="376.9125" type="curve"/>
      <point x="184.7875" y="368.325"/>
      <point x="183.55" y="364.7375"/>
      <point x="169.2625" y="356.0375" type="curve"/>
      <point x="85.725" y="305.3375"/>
      <point x="54.4375" y="252.6375"/>
      <point x="54.4375" y="183.7625" type="curve"/>
      <point x="54.4375" y="60.525"/>
      <point x="163.225" y="-10.0"/>
      <point x="330.65" y="-10.0" type="curve"/>
      <point x="503.7375" y="-10.0"/>
      <point x="621.35" y="70.2375"/>
      <point x="621.35" y="200.7875" type="curve"/>
      <point x="621.35" y="278.775"/>
      <point x="580.6625" y="337.5875"/>
      <point x="487.8875" y="378.6125" type="curve"/>
      <point x="477.65" y="384.0875"/>
      <point x="478.8875" y="388.9125"/>
      <point x="488.8875" y="395.0875" type="curve"/>
      <point x="557.7" y="440.5375"/>
      <point x="588.35" y="486.7125"/>
      <point x="588.35" y="546.9375" type="curve"/>
      <point x="588.35" y="667.4625"/>
      <point x="483.675" y="752.0"/>
    </contour>
    <contour>
      <point x="335.95" y="667.5125" type="curve"/>
      <point x="335.95" y="667.5125" type="line"/>
      <point x="427.625" y="667.5125"/>
      <point x="483.775" y="616.65"/>
      <point x="483.775" y="546.575" type="curve"/>
      <point x="483.775" y="478.85"/>
      <point x="414.875" y="407.525"/>
      <point x="376.2875" y="417.5875" type="curve"/>
      <point x="281.15" y="441.35" type="line" smooth="yes"/>
      <point x="220.1875" y="455.875"/>
      <point x="188.5" y="491.5625"/>
      <point x="188.5" y="545.175" type="curve"/>
      <point x="188.5" y="616.3125"/>
      <point x="252.525" y="667.5125"/>
    </contour>
    <contour>
      <point x="337.0125" y="74.4875" type="curve"/>
      <point x="337.0125" y="74.4875" type="line"/>
      <point x="219.6875" y="74.4875"/>
      <point x="159.8375" y="121.175"/>
      <point x="159.8375" y="199.2" type="curve"/>
      <point x="159.8375" y="283.1"/>
      <point x="246.025" y="343.6"/>
      <point x="285.025" y="332.5375" type="curve"/>
      <point x="403.6125" y="302.25" type="line" smooth="yes"/>
      <point x="474.65" y="283.8375"/>
      <point x="501.5125" y="249.0875"/>
      <point x="501.5125" y="194.3" type="curve"/>
      <point x="501.5125" y="121.225"/>
      <point x="438.55" y="74.4875"/>
    </contour>
  </outline>
</glyph>
<glyph name="nine" format="2">
  <advance width="665.75"/>
  <unicode hex="0039"/>
  <outline>
    <contour>
      <point x="299.2125" y="-9.175" type="curve"/>
      <point x="299.2125" y="-9.175" type="line"/>
      <point x="487.875" y="-9.175"/>
      <point x="606.55" y="138.65"/>
      <point x="606.55" y="383.5375" type="curve"/>
      <point x="606.55" y="613.6375"/>
      <point x="496.175" y="751.175"/>
      <point x="317.6125" y="751.175" type="curve"/>
      <point x="167.875" y="751.175"/>
      <point x="49.325" y="654.4"/>
      <point x="49.325" y="513.75" type="curve"/>
      <point x="49.325" y="388.45"/>
      <point x="142.875" y="295.6875"/>
      <point x="295.525" y="295.6875" type="curve"/>
      <point x="370.325" y="295.6875"/>
      <point x="419.3625" y="318.85"/>
      <point x="467.5875" y="341.9" type="curve"/>
      <point x="484.475" y="349.9"/>
      <point x="486.7125" y="345.1375"/>
      <point x="486.7125" y="321.9" type="curve"/>
      <point x="486.7125" y="182.6125"/>
      <point x="426.2" y="79.025"/>
      <point x="299.2125" y="79.025" type="curve"/>
      <point x="240.4625" y="79.025"/>
      <point x="207.3625" y="102.0875"/>
      <point x="180.075" y="137.5" type="curve"/>
      <point x="176.4875" y="142.9125"/>
      <point x="171.075" y="148.625"/>
      <point x="163.3625" y="145.2125" type="curve"/>
      <point x="90.275" y="117.9" type="line" smooth="yes"/>
      <point x="80.975" y="113.9"/>
      <point x="82.7375" y="106.6"/>
      <point x="85.325" y="100.3" type="curve"/>
      <point x="115.5375" y="48.4625"/>
      <point x="187.1625" y="-9.175"/>
    </contour>
    <contour>
      <point x="314.0375" y="379.7625" type="curve"/>
      <point x="314.0375" y="379.7625" type="line"/>
      <point x="227.675" y="379.7625"/>
      <point x="168.75" y="438.9"/>
      <point x="168.75" y="518.6375" type="curve"/>
      <point x="168.75" y="602.8375"/>
      <point x="233.6625" y="667.1"/>
      <point x="319.15" y="667.1" type="curve"/>
      <point x="431.2" y="667.1"/>
      <point x="485.8875" y="556.65"/>
      <point x="485.8875" y="466.075" type="curve"/>
      <point x="485.8875" y="442.7875"/>
      <point x="482.125" y="435.85"/>
      <point x="467.6625" y="425.7375" type="curve"/>
      <point x="432.275" y="400.225"/>
      <point x="365.8375" y="379.7625"/>
    </contour>
  </outline>
</glyph>
<glyph name="colon" format="2">
  <advance width="222.0125"/>
  <unicode hex="003A"/>
  <outline>
    <contour>
      <point x="171.5" y="401.0625" type="curve"/>
      <point x="171.5" y="497.3625" type="line"/>
      <point x="171.5" y="506.25"/>
      <point x="167.85" y="510.3125"/>
      <point x="159.9625" y="510.3125" type="curve"/>
      <point x="60.4" y="510.3125" type="line" smooth="yes"/>
      <point x="53.5125" y="510.3125"/>
      <point x="48.45" y="506.25"/>
      <point x="48.45" y="495.95" type="curve"/>
      <point x="48.45" y="399.2375" type="line" smooth="yes"/>
      <point x="48.45" y="388.1125"/>
      <point x="52.5125" y="382.6375"/>
      <point x="65.4625" y="382.6375" type="curve"/>
      <point x="150.25" y="382.6375" type="line" smooth="yes"/>
      <point x="166.025" y="382.6375"/>
      <point x="171.5" y="388.1125"/>
    </contour>
    <contour>
      <point x="171.5" y="21.425" type="curve"/>
      <point x="171.5" y="117.725" type="line"/>
      <point x="171.5" y="126.6125"/>
      <point x="167.85" y="130.675"/>
      <point x="159.9625" y="130.675" type="curve"/>
      <point x="60.4" y="130.675" type="line" smooth="yes"/>
      <point x="53.5125" y="130.675"/>
      <point x="48.45" y="126.6125"/>
      <point x="48.45" y="116.3125" type="curve"/>
      <point x="48.45" y="19.6" type="line" smooth="yes"/>
      <point x="48.45" y="8.475"/>
      <point x="52.5125" y="3.0"/>
      <point x="65.4625" y="3.0" type="curve"/>
      <point x="150.25" y="3.0" type="line" smooth="yes"/>
      <point x="166.025" y="3.0"/>
      <point x="171.5" y="8.475"/>
    </contour>
  </outline>
</glyph>
<glyph name="semicolon" format="2">
  <advance width="238.4625"/>
  <unicode hex="003B"/>
  <outline>
    <contour>
      <point x="52.475" y="-148.4375" type="curve"/>
      <point x="52.475" y="-148.4375" type="line"/>
      <point x="65.6625" y="-148.4375" type="line" smooth="yes"/>
      <point x="75.375" y="-148.4375"/>
      <point x="85.3875" y="-143.9625"/>
      <point x="91.1" y="-135.425" type="curve"/>
      <point x="171.6125" y="9.3625" type="line" smooth="yes"/>
      <point x="173.4375" y="13.1875"/>
      <point x="174.4375" y="16.775"/>
      <point x="174.4375" y="22.6" type="curve"/>
      <point x="174.4375" y="116.3125" type="line" smooth="yes"/>
      <point x="174.4375" y="124.025"/>
      <point x="170.7875" y="128.0875"/>
      <point x="163.4875" y="128.0875" type="curve"/>
      <point x="62.75" y="128.0875" type="line" smooth="yes"/>
      <point x="55.8625" y="128.0875"/>
      <point x="51.3875" y="124.025"/>
      <point x="51.3875" y="115.4875" type="curve"/>
      <point x="51.3875" y="14.425" type="line" smooth="yes"/>
      <point x="51.3875" y="5.0625"/>
      <point x="55.45" y="0.0"/>
      <point x="67.225" y="0.0" type="curve"/>
      <point x="81.5875" y="0.0" type="line" smooth="yes"/>
      <point x="93.475" y="0.0"/>
      <point x="95.0625" y="-6.7125"/>
      <point x="90.0" y="-19.075" type="curve"/>
      <point x="44.1125" y="-132.25" type="line" smooth="yes"/>
      <point x="40.2875" y="-141.3125"/>
      <point x="44.7625" y="-148.4375"/>
    </contour>
    <contour>
      <point x="65.4625" y="379.75" type="curve"/>
      <point x="65.4625" y="379.75" type="line"/>
      <point x="150.25" y="379.75" type="line" smooth="yes"/>
      <point x="166.025" y="379.75"/>
      <point x="171.5" y="384.8125"/>
      <point x="171.5" y="398.175" type="curve"/>
      <point x="171.5" y="496.125" type="line" smooth="yes"/>
      <point x="171.5" y="505.0125"/>
      <point x="167.85" y="509.075"/>
      <point x="159.9625" y="509.075" type="curve"/>
      <point x="60.4" y="509.075" type="line" smooth="yes"/>
      <point x="53.5125" y="509.075"/>
      <point x="48.45" y="505.0125"/>
      <point x="48.45" y="494.7125" type="curve"/>
      <point x="48.45" y="395.9375" type="line" smooth="yes"/>
      <point x="48.45" y="384.8125"/>
      <point x="52.5125" y="379.75"/>
    </contour>
  </outline>
</glyph>
<glyph name="less" format="2">
  <advance width="554.35"/>
  <unicode hex="003C"/>
  <outline>
    <contour>
      <point x="489.95" y="161.5875" type="curve"/>
      <point x="489.95" y="213.525" type="line"/>
      <point x="489.95" y="227.5375"/>
      <point x="482.2375" y="233.425"/>
      <point x="463.75" y="240.725" type="curve"/>
      <point x="172.5625" y="353.875" type="line"/>
      <point x="464.3375" y="467.675" type="line" smooth="yes"/>
      <point x="482.4125" y="474.975"/>
      <point x="490.5375" y="482.1"/>
      <point x="490.5375" y="494.7" type="curve"/>
      <point x="490.5375" y="549.575" type="line" smooth="yes"/>
      <point x="490.5375" y="563.2875"/>
      <point x="480.5875" y="571.4125"/>
      <point x="465.2875" y="565.175" type="curve"/>
      <point x="65.9375" y="407.6875" type="line" smooth="yes"/>
      <point x="55.9875" y="404.0375"/>
      <point x="49.6875" y="398.7375"/>
      <point x="49.6875" y="386.9625" type="curve"/>
      <point x="49.6875" y="320.6125" type="line" smooth="yes"/>
      <point x="49.6875" y="310.25"/>
      <point x="56.4" y="304.3625"/>
      <point x="65.9375" y="300.7125" type="curve"/>
      <point x="464.875" y="144.8125" type="line" smooth="yes"/>
      <point x="478.825" y="139.1625"/>
      <point x="489.95" y="144.4"/>
    </contour>
  </outline>
</glyph>
<glyph name="equal" format="2">
  <advance width="565.3375"/>
  <unicode hex="003D"/>
  <outline>
    <contour>
      <point x="508.5375" y="447.5625" type="curve"/>
      <point x="508.5375" y="500.025" type="line"/>
      <point x="508.5375" y="507.325"/>
      <point x="503.8875" y="511.8"/>
      <point x="497.0" y="511.8" type="curve"/>
      <point x="68.4" y="511.2125" type="line" smooth="yes"/>
      <point x="61.6875" y="511.2125"/>
      <point x="57.625" y="506.7375"/>
      <point x="57.625" y="497.6125" type="curve"/>
      <point x="57.625" y="445.15" type="line" smooth="yes"/>
      <point x="57.625" y="435.2"/>
      <point x="61.275" y="430.725"/>
      <point x="73.05" y="430.725" type="curve"/>
      <point x="489.05" y="431.3125" type="line" smooth="yes"/>
      <point x="502.65" y="431.3125"/>
      <point x="508.5375" y="435.7875"/>
    </contour>
    <contour>
      <point x="508.5375" y="218.9" type="curve"/>
      <point x="508.5375" y="271.3625" type="line"/>
      <point x="508.5375" y="278.6625"/>
      <point x="503.8875" y="283.1375"/>
      <point x="497.0" y="283.1375" type="curve"/>
      <point x="68.4" y="282.55" type="line" smooth="yes"/>
      <point x="61.6875" y="282.55"/>
      <point x="57.625" y="278.075"/>
      <point x="57.625" y="268.95" type="curve"/>
      <point x="57.625" y="216.4875" type="line" smooth="yes"/>
      <point x="57.625" y="206.5375"/>
      <point x="61.275" y="202.0625"/>
      <point x="73.05" y="202.0625" type="curve"/>
      <point x="489.05" y="202.65" type="line" smooth="yes"/>
      <point x="502.65" y="202.65"/>
      <point x="508.5375" y="207.125"/>
    </contour>
  </outline>
</glyph>
<glyph name="greater" format="2">
  <advance width="554.35"/>
  <unicode hex="003E"/>
  <outline>
    <contour>
      <point x="64.4" y="213.525" type="curve"/>
      <point x="64.4" y="213.525" type="line"/>
      <point x="64.4" y="161.5875" type="line" smooth="yes"/>
      <point x="64.4" y="144.4"/>
      <point x="75.525" y="139.1625"/>
      <point x="89.475" y="144.8125" type="curve"/>
      <point x="488.4125" y="300.7125" type="line" smooth="yes"/>
      <point x="497.95" y="304.3625"/>
      <point x="504.6625" y="310.25"/>
      <point x="504.6625" y="320.6125" type="curve"/>
      <point x="504.6625" y="386.9625" type="line" smooth="yes"/>
      <point x="504.6625" y="398.7375"/>
      <point x="498.3625" y="404.0375"/>
      <point x="488.4125" y="407.6875" type="curve"/>
      <point x="89.0625" y="565.175" type="line" smooth="yes"/>
      <point x="73.7625" y="571.4125"/>
      <point x="63.8125" y="563.2875"/>
      <point x="63.8125" y="549.575" type="curve"/>
      <point x="63.8125" y="494.7" type="line" smooth="yes"/>
      <point x="63.8125" y="482.1"/>
      <point x="71.9375" y="474.975"/>
      <point x="90.0125" y="467.675" type="curve"/>
      <point x="381.7875" y="353.875" type="line"/>
      <point x="90.6" y="240.725" type="line" smooth="yes"/>
      <point x="72.1125" y="233.425"/>
      <point x="64.4" y="227.5375"/>
    </contour>
  </outline>
</glyph>
<glyph name="question" format="2">
  <advance width="527.2"/>
  <unicode hex="003F"/>
  <outline>
    <contour>
      <point x="308.825" y="18.425" type="curve"/>
      <point x="308.825" y="114.725" type="line"/>
      <point x="308.825" y="123.6125"/>
      <point x="304.7625" y="127.675"/>
      <point x="297.2875" y="127.675" type="curve"/>
      <point x="197.725" y="127.675" type="line" smooth="yes"/>
      <point x="189.8375" y="127.675"/>
      <point x="185.775" y="123.025"/>
      <point x="185.775" y="113.3125" type="curve"/>
      <point x="185.775" y="16.1875" type="line" smooth="yes"/>
      <point x="185.775" y="5.0625"/>
      <point x="190.0125" y="0.0"/>
      <point x="202.375" y="0.0" type="curve"/>
      <point x="287.575" y="0.0" type="line" smooth="yes"/>
      <point x="302.9375" y="0.0"/>
      <point x="308.825" y="5.0625"/>
    </contour>
    <contour>
      <point x="28.325000000000003" y="596.25" type="curve"/>
      <point x="28.325000000000003" y="596.25" type="line"/>
      <point x="98.75" y="576.475" type="line" smooth="yes"/>
      <point x="107.875" y="574.0625"/>
      <point x="110.525" y="576.0625"/>
      <point x="114.175" y="583.1875" type="curve"/>
      <point x="136.35" y="635.5375"/>
      <point x="201.2" y="673.7"/>
      <point x="263.7625" y="673.7" type="curve"/>
      <point x="336.95" y="673.7"/>
      <point x="387.5125" y="633.3125"/>
      <point x="387.5125" y="569.5875" type="curve"/>
      <point x="387.5125" y="445.125"/>
      <point x="203.2" y="399.9625"/>
      <point x="203.2" y="216.3375" type="curve"/>
      <point x="203.2" y="204.975"/>
      <point x="209.0875" y="199.0875"/>
      <point x="218.625" y="199.0875" type="curve"/>
      <point x="277.8" y="199.0875" type="line" smooth="yes"/>
      <point x="285.925" y="199.0875"/>
      <point x="292.225" y="205.975"/>
      <point x="292.225" y="213.6875" type="curve"/>
      <point x="292.225" y="375.0625"/>
      <point x="494.975" y="408.675"/>
      <point x="494.975" y="574.125" type="curve"/>
      <point x="494.975" y="676.875"/>
      <point x="404.3125" y="752.0"/>
      <point x="264.5875" y="752.0" type="curve"/>
      <point x="153.5" y="752.0"/>
      <point x="64.85" y="700.2875"/>
      <point x="22.4375" y="612.0875" type="curve"/>
      <point x="19.6125" y="605.7875"/>
      <point x="20.6125" y="598.6625"/>
    </contour>
  </outline>
</glyph>
<glyph name="at" format="2">
  <advance width="834.0"/>
  <unicode hex="0040"/>
  <outline>
    <contour>
      <point x="658.25" y="-46.0" type="curve"/>
      <point x="658.25" y="-46.0" type="line"/>
      <point x="665.075" y="-41.175"/>
      <point x="671.8375" y="-35.175"/>
      <point x="665.25" y="-26.0" type="curve"/>
      <point x="641.7" y="5.674999999999999" type="line" smooth="yes"/>
      <point x="637.7" y="11.087499999999999"/>
      <point x="631.1125" y="12.5"/>
      <point x="621.875" y="6.674999999999999" type="curve"/>
      <point x="573.9375" y="-24.2625"/>
      <point x="533.7625" y="-49.2"/>
      <point x="447.35" y="-49.2" type="curve"/>
      <point x="236.625" y="-49.2"/>
      <point x="120.15" y="81.05"/>
      <point x="120.15" y="260.8875" type="curve"/>
      <point x="120.15" y="441.625"/>
      <point x="233.1125" y="594.075"/>
      <point x="448.825" y="594.075" type="curve"/>
      <point x="586.5875" y="594.075"/>
      <point x="730.9125" y="524.45"/>
      <point x="730.9125" y="333.175" type="curve"/>
      <point x="730.9125" y="216.25"/>
      <point x="676.575" y="149.1625"/>
      <point x="616.9" y="149.1625" type="curve"/>
      <point x="585.8" y="149.1625"/>
      <point x="570.625" y="167.2125"/>
      <point x="579.975" y="222.6625" type="curve"/>
      <point x="616.7375" y="442.175" type="line" smooth="yes"/>
      <point x="617.7375" y="447.0"/>
      <point x="614.7375" y="449.0"/>
      <point x="609.9125" y="449.0" type="curve"/>
      <point x="556.9875" y="449.0" type="line" smooth="yes"/>
      <point x="552.1625" y="449.0"/>
      <point x="549.3375" y="447.5875"/>
      <point x="548.3375" y="443.175" type="curve"/>
      <point x="542.05" y="418.7875" type="line" smooth="yes"/>
      <point x="540.6375" y="412.9625"/>
      <point x="536.6375" y="412.55"/>
      <point x="534.4" y="415.375" type="curve"/>
      <point x="511.4" y="449.8875"/>
      <point x="476.2375" y="475.0"/>
      <point x="421.4125" y="475.0" type="curve"/>
      <point x="304.3375" y="475.0"/>
      <point x="224.75" y="368.875"/>
      <point x="224.75" y="243.4125" type="curve"/>
      <point x="224.3375" y="136.0"/>
      <point x="289.9875" y="67.0"/>
      <point x="369.0625" y="67.0" type="curve"/>
      <point x="432.4625" y="67.0"/>
      <point x="476.7" y="94.7"/>
      <point x="506.7" y="132.9875" type="curve"/>
      <point x="512.7" y="140.575"/>
      <point x="514.875" y="140.9875"/>
      <point x="518.525" y="132.225" type="curve"/>
      <point x="528.7625" y="100.6"/>
      <point x="556.35" y="81.0"/>
      <point x="610.5375" y="81.0" type="curve"/>
      <point x="722.9" y="81.0"/>
      <point x="805.25" y="187.0"/>
      <point x="805.25" y="339.175" type="curve"/>
      <point x="805.25" y="564.4125"/>
      <point x="624.8375" y="661.0"/>
      <point x="449.4125" y="661.0" type="curve"/>
      <point x="205.1" y="661.0"/>
      <point x="44.75" y="477.0"/>
      <point x="44.75" y="261.4125" type="curve"/>
      <point x="44.75" y="55.0"/>
      <point x="189.4" y="-113.0"/>
      <point x="433.2875" y="-113.0" type="curve"/>
      <point x="525.9" y="-113.0"/>
      <point x="604.5" y="-84.875"/>
    </contour>
    <contour>
      <point x="308.575" y="249.775" type="curve"/>
      <point x="308.575" y="249.775" type="line"/>
      <point x="308.575" y="335.0375"/>
      <point x="357.625" y="403.3625"/>
      <point x="426.7125" y="403.3625" type="curve"/>
      <point x="477.9375" y="403.3625"/>
      <point x="522.2625" y="356.4875"/>
      <point x="511.6875" y="273.0125" type="curve"/>
      <point x="503.4625" y="201.45"/>
      <point x="450.6" y="138.6375"/>
      <point x="386.85" y="138.6375" type="curve"/>
      <point x="336.3875" y="138.6375"/>
      <point x="308.575" y="183.925"/>
    </contour>
  </outline>
</glyph>
<glyph name="A" format="2">
  <advance width="740.8375"/>
  <unicode hex="0041"/>
  <anchor x="683.1375" y="10.175" name="ogonek"/>
  <anchor x="370.625" y="0.0" name="bottom"/>
  <anchor x="368.5625" y="742.0" name="top"/>
  <outline>
    <contour>
      <point x="52.9875" y="0.0" type="curve"/>
      <point x="52.9875" y="0.0" type="line"/>
      <point x="130.375" y="0.0" type="line" smooth="yes"/>
      <point x="139.675" y="0.0"/>
      <point x="144.9125" y="4.0625"/>
      <point x="146.7375" y="10.3" type="curve"/>
      <point x="212.4125" y="190.575" type="line" smooth="yes"/>
      <point x="214.4125" y="196.4"/>
      <point x="217.65" y="199.225"/>
      <point x="224.475" y="199.225" type="curve"/>
      <point x="501.1" y="199.225" type="line" smooth="yes"/>
      <point x="508.75" y="199.225"/>
      <point x="510.75" y="195.9875"/>
      <point x="513.1625" y="190.1625" type="curve"/>
      <point x="576.8375" y="11.7125" type="line" smooth="yes"/>
      <point x="579.6625" y="2.825"/>
      <point x="585.3125" y="0.0"/>
      <point x="593.55" y="0.0" type="curve"/>
      <point x="688.5" y="0.0" type="line" smooth="yes"/>
      <point x="698.8" y="0.0"/>
      <point x="702.2125" y="10.6"/>
      <point x="698.975" y="19.9" type="curve"/>
      <point x="446.05" y="724.9875" type="line" smooth="yes"/>
      <point x="442.4" y="735.7"/>
      <point x="433.5125" y="742.0"/>
      <point x="420.625" y="742.0" type="curve"/>
      <point x="319.975" y="742.0" type="line" smooth="yes"/>
      <point x="307.2625" y="742.0"/>
      <point x="302.4375" y="737.35"/>
      <point x="298.2" y="726.05" type="curve"/>
      <point x="42.6875" y="20.549999999999997" type="line" smooth="yes"/>
      <point x="38.2125" y="7.949999999999999"/>
      <point x="43.275" y="0.0"/>
    </contour>
    <contour>
      <point x="470.4875" y="292.85" type="curve"/>
      <point x="252.5" y="292.85" type="line"/>
      <point x="244.025" y="292.85"/>
      <point x="241.6125" y="296.7375"/>
      <point x="245.4375" y="306.2125" type="curve"/>
      <point x="355.7875" y="606.05" type="line" smooth="yes"/>
      <point x="359.55" y="617.1625"/>
      <point x="365.375" y="617.1625"/>
      <point x="369.55" y="606.6375" type="curve"/>
      <point x="478.3125" y="306.975" type="line" smooth="yes"/>
      <point x="481.1375" y="298.0875"/>
      <point x="479.725" y="292.85"/>
    </contour>
  </outline>
</glyph>
<glyph name="B" format="2">
  <advance width="706.6875"/>
  <unicode hex="0042"/>
  <outline>
    <contour>
      <point x="102.6125" y="0.0" type="curve"/>
      <point x="102.6125" y="0.0" type="line"/>
      <point x="355.75" y="0.0" type="line" smooth="yes"/>
      <point x="547.6625" y="0.0"/>
      <point x="650.6625" y="65.0"/>
      <point x="650.6625" y="199.0625" type="curve"/>
      <point x="650.6625" y="292.875"/>
      <point x="599.9125" y="348.575"/>
      <point x="501.6625" y="375.475" type="curve"/>
      <point x="496.9" y="376.475"/>
      <point x="496.9" y="382.0625"/>
      <point x="501.6625" y="383.65" type="curve"/>
      <point x="594.6125" y="418.4875"/>
      <point x="632.6625" y="471.125"/>
      <point x="632.6625" y="548.9375" type="curve"/>
      <point x="632.6625" y="675.0"/>
      <point x="530.3" y="742.0"/>
      <point x="347.3875" y="742.0" type="curve"/>
      <point x="104.025" y="742.0" type="line" smooth="yes"/>
      <point x="93.725" y="742.0"/>
      <point x="88.425" y="736.2875"/>
      <point x="88.425" y="725.4" type="curve"/>
      <point x="88.425" y="13.774999999999999" type="line" smooth="yes"/>
      <point x="88.425" y="5.887499999999999"/>
      <point x="93.9" y="0.0"/>
    </contour>
    <contour>
      <point x="350.75" y="85.375" type="curve"/>
      <point x="220.2125" y="85.375" type="line"/>
      <point x="211.9125" y="85.375"/>
      <point x="209.0875" y="90.025"/>
      <point x="209.0875" y="100.32499999999999" type="curve"/>
      <point x="209.0875" y="317.5375" type="line" smooth="yes"/>
      <point x="209.0875" y="327.8375"/>
      <point x="213.325" y="331.4875"/>
      <point x="225.0375" y="331.4875" type="curve"/>
      <point x="361.0375" y="331.4875" type="line" smooth="yes"/>
      <point x="455.1" y="331.4875"/>
      <point x="525.1125" y="293.2625"/>
      <point x="525.1125" y="205.85" type="curve"/>
      <point x="525.1125" y="125.725"/>
      <point x="467.5" y="85.375"/>
    </contour>
    <contour>
      <point x="361.0375" y="418.5125" type="curve"/>
      <point x="220.2125" y="418.5125" type="line"/>
      <point x="211.9125" y="418.5125"/>
      <point x="209.0875" y="423.1625"/>
      <point x="209.0875" y="433.4625" type="curve"/>
      <point x="209.0875" y="643.675" type="line" smooth="yes"/>
      <point x="209.0875" y="653.3875"/>
      <point x="213.325" y="656.625"/>
      <point x="223.8625" y="656.625" type="curve"/>
      <point x="348.75" y="656.625" type="line" smooth="yes"/>
      <point x="447.45" y="656.625"/>
      <point x="512.0625" y="616.875"/>
      <point x="512.0625" y="535.275" type="curve"/>
      <point x="512.0625" y="447.5125"/>
      <point x="435.0625" y="418.5125"/>
    </contour>
  </outline>
</glyph>
<glyph name="C" format="2">
  <advance width="712.325"/>
  <unicode hex="0043"/>
  <anchor x="379.125" y="742.0" name="top"/>
  <anchor x="381.825" y="0.0" name="bottom"/>
  <outline>
    <contour>
      <point x="379.125" y="752.0" type="curve"/>
      <point x="379.125" y="752.0" type="line"/>
      <point x="179.75" y="752.0"/>
      <point x="58.2" y="608.35"/>
      <point x="58.2" y="373.3625" type="curve"/>
      <point x="58.2" y="138.55"/>
      <point x="179.75" y="-10.0"/>
      <point x="381.825" y="-10.0" type="curve"/>
      <point x="548.2" y="-10.0"/>
      <point x="642.425" y="104.725"/>
      <point x="667.1125" y="191.625" type="curve"/>
      <point x="669.35" y="204.7"/>
      <point x="664.225" y="207.9375"/>
      <point x="660.1625" y="209.35" type="curve"/>
      <point x="588.625" y="225.5375" type="line" smooth="yes"/>
      <point x="580.2625" y="227.3625"/>
      <point x="575.375" y="225.5375"/>
      <point x="573.55" y="221.0625" type="curve"/>
      <point x="535.6125" y="123.07499999999999"/>
      <point x="475.8" y="82.32499999999999"/>
      <point x="387.0625" y="82.32499999999999" type="curve"/>
      <point x="252.0125" y="82.32499999999999"/>
      <point x="184.575" y="177.3375"/>
      <point x="184.575" y="371.7125" type="curve"/>
      <point x="184.575" y="569.9625"/>
      <point x="256.075" y="663.8"/>
      <point x="382.775" y="663.8" type="curve"/>
      <point x="469.3375" y="663.8"/>
      <point x="527.0625" y="608.225"/>
      <point x="545.1125" y="528.4875" type="curve"/>
      <point x="546.9375" y="519.1875"/>
      <point x="548.525" y="515.95"/>
      <point x="557.0625" y="516.5375" type="curve"/>
      <point x="650.4" y="523.425" type="line" smooth="yes"/>
      <point x="659.525" y="524.25"/>
      <point x="661.7625" y="527.4875"/>
      <point x="658.7" y="541.975" type="curve"/>
      <point x="640.925" y="657.35"/>
      <point x="520.5125" y="752.0"/>
    </contour>
  </outline>
</glyph>
<glyph name="D" format="2">
  <advance width="731.05"/>
  <unicode hex="0044"/>
  <anchor x="361.8" y="371.0" name="center"/>
  <anchor x="358.275" y="742.0" name="top"/>
  <outline>
    <contour>
      <point x="105.4375" y="742.0" type="curve"/>
      <point x="105.4375" y="742.0" type="line"/>
      <point x="93.075" y="742.0"/>
      <point x="88.425" y="737.175"/>
      <point x="88.425" y="725.8125" type="curve"/>
      <point x="88.425" y="18.25" type="line" smooth="yes"/>
      <point x="88.425" y="5.0625"/>
      <point x="93.9" y="0.0"/>
      <point x="105.675" y="0.0" type="curve"/>
      <point x="274.0875" y="0.0" type="line" smooth="yes"/>
      <point x="543.55" y="0.0"/>
      <point x="673.025" y="132.325"/>
      <point x="673.025" y="376.1125" type="curve"/>
      <point x="673.025" y="605.9125"/>
      <point x="556.775" y="736.1125"/>
      <point x="282.725" y="741.0" type="curve"/>
      <point x="252.925" y="741.825"/>
      <point x="134.8375" y="742.0"/>
    </contour>
    <contour>
      <point x="219.0875" y="653.15" type="curve"/>
      <point x="219.0875" y="653.15" type="line"/>
      <point x="260.125" y="653.15" type="line" smooth="yes"/>
      <point x="455.925" y="653.15"/>
      <point x="546.65" y="583.5"/>
      <point x="546.65" y="372.2375" type="curve"/>
      <point x="546.65" y="165.0625"/>
      <point x="456.1375" y="88.26249999999999"/>
      <point x="253.5875" y="88.26249999999999" type="curve"/>
      <point x="221.325" y="88.26249999999999" type="line" smooth="yes"/>
      <point x="212.0875" y="88.26249999999999"/>
      <point x="209.0875" y="91.26249999999999"/>
      <point x="209.0875" y="99.7375" type="curve"/>
      <point x="209.0875" y="639.15" type="line" smooth="yes"/>
      <point x="209.0875" y="648.3875"/>
      <point x="211.5" y="653.15"/>
    </contour>
  </outline>
</glyph>
<glyph name="E" format="2">
  <advance width="636.3375"/>
  <unicode hex="0045"/>
  <anchor x="574.1625" y="10.0" name="ogonek"/>
  <anchor x="352.45" y="0.0" name="bottom"/>
  <anchor x="341.2875" y="742.0" name="top"/>
  <outline>
    <contour>
      <point x="88.425" y="726.6375" type="curve"/>
      <point x="88.425" y="726.6375" type="line"/>
      <point x="88.425" y="16.1875" type="line" smooth="yes"/>
      <point x="88.425" y="4.475"/>
      <point x="92.4875" y="0.0"/>
      <point x="104.85" y="0.0" type="curve"/>
      <point x="578.1625" y="0.0" type="line" smooth="yes"/>
      <point x="588.1125" y="0.0"/>
      <point x="592.175" y="5.3"/>
      <point x="592.175" y="13.1875" type="curve"/>
      <point x="592.175" y="79.19999999999999" type="line" smooth="yes"/>
      <point x="592.175" y="88.5"/>
      <point x="587.7" y="91.15"/>
      <point x="578.4" y="91.15" type="curve"/>
      <point x="219.325" y="91.15" type="line" smooth="yes"/>
      <point x="211.5" y="91.15"/>
      <point x="209.0875" y="92.975"/>
      <point x="209.0875" y="102.2125" type="curve"/>
      <point x="209.0875" y="317.95" type="line" smooth="yes"/>
      <point x="209.0875" y="325.95"/>
      <point x="212.7375" y="329.0125"/>
      <point x="220.975" y="329.0125" type="curve"/>
      <point x="466.4875" y="329.0125" type="line" smooth="yes"/>
      <point x="475.375" y="329.0125"/>
      <point x="478.6125" y="332.9"/>
      <point x="478.6125" y="340.1375" type="curve"/>
      <point x="478.6125" y="406.5625" type="line" smooth="yes"/>
      <point x="478.6125" y="414.8625"/>
      <point x="474.55" y="418.925"/>
      <point x="465.8375" y="418.925" type="curve"/>
      <point x="221.8" y="418.925" type="line" smooth="yes"/>
      <point x="213.5625" y="418.925"/>
      <point x="209.0875" y="422.4"/>
      <point x="209.0875" y="431.7" type="curve"/>
      <point x="209.0875" y="637.725" type="line" smooth="yes"/>
      <point x="209.0875" y="647.7875"/>
      <point x="213.5625" y="650.85"/>
      <point x="223.8625" y="650.85" type="curve"/>
      <point x="563.8125" y="650.85" type="line" smooth="yes"/>
      <point x="574.7625" y="650.85"/>
      <point x="579.2375" y="655.975"/>
      <point x="579.2375" y="666.1" type="curve"/>
      <point x="579.65" y="729.225" type="line" smooth="yes"/>
      <point x="579.65" y="737.525"/>
      <point x="576.0" y="742.0"/>
      <point x="568.1125" y="742.0" type="curve"/>
      <point x="101.55" y="742.0" type="line" smooth="yes"/>
      <point x="92.4875" y="742.0"/>
      <point x="88.425" y="737.525"/>
    </contour>
  </outline>
</glyph>
<glyph name="F" format="2">
  <advance width="610.6375"/>
  <unicode hex="0046"/>
  <outline>
    <contour>
      <point x="88.425" y="726.6375" type="curve"/>
      <point x="88.425" y="726.6375" type="line"/>
      <point x="88.425" y="16.1875" type="line" smooth="yes"/>
      <point x="88.425" y="4.475"/>
      <point x="92.075" y="0.0"/>
      <point x="104.85" y="0.0" type="curve"/>
      <point x="191.3625" y="0.0" type="line" smooth="yes"/>
      <point x="203.7875" y="0.0"/>
      <point x="209.0875" y="4.475"/>
      <point x="209.0875" y="16.075" type="curve"/>
      <point x="209.0875" y="307.425" type="line" smooth="yes"/>
      <point x="209.0875" y="315.8375"/>
      <point x="212.7375" y="318.9"/>
      <point x="220.975" y="318.9" type="curve"/>
      <point x="473.1875" y="318.9" type="line" smooth="yes"/>
      <point x="482.4875" y="318.9"/>
      <point x="485.3125" y="322.375"/>
      <point x="485.3125" y="330.025" type="curve"/>
      <point x="485.3125" y="395.625" type="line" smooth="yes"/>
      <point x="485.3125" y="403.925"/>
      <point x="481.6625" y="407.9875"/>
      <point x="472.95" y="407.9875" type="curve"/>
      <point x="221.8" y="407.9875" type="line" smooth="yes"/>
      <point x="213.15" y="407.9875"/>
      <point x="209.0875" y="411.05"/>
      <point x="209.0875" y="420.35" type="curve"/>
      <point x="209.0875" y="637.725" type="line" smooth="yes"/>
      <point x="209.0875" y="647.7875"/>
      <point x="213.15" y="650.85"/>
      <point x="223.8625" y="650.85" type="curve"/>
      <point x="555.4625" y="650.85" type="line" smooth="yes"/>
      <point x="566.4125" y="650.85"/>
      <point x="570.475" y="655.975"/>
      <point x="570.475" y="666.1" type="curve"/>
      <point x="570.8875" y="729.225" type="line" smooth="yes"/>
      <point x="570.8875" y="737.525"/>
      <point x="567.2375" y="742.0"/>
      <point x="559.35" y="742.0" type="curve"/>
      <point x="101.55" y="742.0" type="line" smooth="yes"/>
      <point x="92.9" y="742.0"/>
      <point x="88.425" y="737.525"/>
    </contour>
  </outline>
</glyph>
<glyph name="G" format="2">
  <advance width="742.7875"/>
  <unicode hex="0047"/>
  <anchor x="377.3" y="742.0" name="top"/>
  <anchor x="380.2375" y="0.0" name="bottom"/>
  <outline>
    <contour>
      <point x="375.8875" y="-10.0" type="curve"/>
      <point x="375.8875" y="-10.0" type="line"/>
      <point x="489.775" y="-10.0"/>
      <point x="553.7" y="42.9375"/>
      <point x="591.4625" y="98.5" type="curve"/>
      <point x="595.875" y="105.0875"/>
      <point x="599.4625" y="104.5"/>
      <point x="600.7" y="99.325" type="curve"/>
      <point x="617.2" y="13.125" type="line" smooth="yes"/>
      <point x="621.325" y="2.0625"/>
      <point x="628.3875" y="0.0"/>
      <point x="638.0375" y="0.0" type="curve"/>
      <point x="663.7" y="0.0" type="line" smooth="yes"/>
      <point x="671.9375" y="0.0"/>
      <point x="676.5875" y="4.475"/>
      <point x="676.5875" y="13.475" type="curve"/>
      <point x="676.5875" y="359.8625" type="line" smooth="yes"/>
      <point x="676.5875" y="369.6375"/>
      <point x="670.05" y="376.175"/>
      <point x="657.3875" y="376.175" type="curve"/>
      <point x="403.2375" y="377.0" type="line" smooth="yes"/>
      <point x="395.2875" y="377.0"/>
      <point x="391.6375" y="372.9375"/>
      <point x="391.6375" y="366.4625" type="curve"/>
      <point x="391.6375" y="313.35" type="line" smooth="yes"/>
      <point x="391.6375" y="303.9875"/>
      <point x="395.2875" y="300.75"/>
      <point x="404.0" y="300.75" type="curve"/>
      <point x="553.8125" y="300.75" type="line" smooth="yes"/>
      <point x="561.4625" y="300.75"/>
      <point x="565.6375" y="297.6875"/>
      <point x="563.9875" y="289.0375" type="curve"/>
      <point x="562.75" y="238.9125" type="line" smooth="yes"/>
      <point x="555.325" y="164.7125"/>
      <point x="499.0" y="79.025"/>
      <point x="383.075" y="79.025" type="curve"/>
      <point x="255.9625" y="79.025"/>
      <point x="184.575" y="169.5"/>
      <point x="184.575" y="374.0" type="curve"/>
      <point x="184.575" y="567.5"/>
      <point x="254.6625" y="663.3875"/>
      <point x="379.775" y="663.3875" type="curve"/>
      <point x="471.75" y="663.3875"/>
      <point x="536.125" y="601.6375"/>
      <point x="549.65" y="526.6625" type="curve"/>
      <point x="551.475" y="518.3625"/>
      <point x="553.65" y="514.3"/>
      <point x="562.0125" y="514.8875" type="curve"/>
      <point x="653.1125" y="529.1375" type="line" smooth="yes"/>
      <point x="662.65" y="530.55"/>
      <point x="664.3" y="534.375"/>
      <point x="661.825" y="548.275" type="curve"/>
      <point x="644.875" y="653.5125"/>
      <point x="528.35" y="752.0"/>
      <point x="381.8375" y="752.0" type="curve"/>
      <point x="187.225" y="752.0"/>
      <point x="58.2" y="607.8125"/>
      <point x="58.2" y="368.0" type="curve"/>
      <point x="58.2" y="135.6"/>
      <point x="180.1625" y="-10.0"/>
    </contour>
  </outline>
</glyph>
<glyph name="H" format="2">
  <advance width="740.2625"/>
  <unicode hex="0048"/>
  <anchor x="370.0125" y="742.0" name="top"/>
  <anchor x="369.1875" y="0.0" name="bottom"/>
  <outline>
    <contour>
      <point x="219.2125" y="337.5375" type="curve"/>
      <point x="520.4625" y="337.5375" type="line"/>
      <point x="527.525" y="337.5375"/>
      <point x="531.175" y="333.475"/>
      <point x="531.175" y="327.2375" type="curve"/>
      <point x="531.175" y="17.25" type="line" smooth="yes"/>
      <point x="531.175" y="4.475"/>
      <point x="537.0625" y="0.0"/>
      <point x="550.6625" y="0.0" type="curve"/>
      <point x="635.4125" y="0.0" type="line" smooth="yes"/>
      <point x="647.6" y="0.0"/>
      <point x="651.8375" y="5.0625"/>
      <point x="651.8375" y="16.1875" type="curve"/>
      <point x="651.8375" y="726.6375" type="line" smooth="yes"/>
      <point x="651.8375" y="737.525"/>
      <point x="647.3625" y="742.0"/>
      <point x="638.7125" y="742.0" type="curve"/>
      <point x="543.3" y="742.0" type="line" smooth="yes"/>
      <point x="535.2375" y="742.0"/>
      <point x="531.175" y="736.9375"/>
      <point x="531.175" y="728.05" type="curve"/>
      <point x="531.175" y="444.9375" type="line" smooth="yes"/>
      <point x="531.175" y="436.05"/>
      <point x="527.1125" y="431.9875"/>
      <point x="519.05" y="431.9875" type="curve"/>
      <point x="221.8" y="431.9875" type="line" smooth="yes"/>
      <point x="213.15" y="431.9875"/>
      <point x="209.0875" y="435.4625"/>
      <point x="209.0875" y="445.525" type="curve"/>
      <point x="209.0875" y="727.4625" type="line" smooth="yes"/>
      <point x="209.0875" y="737.525"/>
      <point x="205.025" y="742.0"/>
      <point x="196.375" y="742.0" type="curve"/>
      <point x="101.55" y="742.0" type="line" smooth="yes"/>
      <point x="92.9" y="742.0"/>
      <point x="88.425" y="737.525"/>
      <point x="88.425" y="726.6375" type="curve"/>
      <point x="88.425" y="16.1875" type="line" smooth="yes"/>
      <point x="88.425" y="5.0625"/>
      <point x="92.075" y="0.0"/>
      <point x="104.85" y="0.0" type="curve"/>
      <point x="189.6" y="0.0" type="line" smooth="yes"/>
      <point x="203.2" y="0.0"/>
      <point x="209.0875" y="5.0625"/>
      <point x="209.0875" y="17.25" type="curve"/>
      <point x="209.0875" y="327.825" type="line" smooth="yes"/>
      <point x="209.0875" y="332.8875"/>
      <point x="212.7375" y="337.5375"/>
    </contour>
  </outline>
</glyph>
<glyph name="I" format="2">
  <advance width="297.5125"/>
  <unicode hex="0049"/>
  <anchor x="189.425" y="10.0" name="ogonek"/>
  <anchor x="148.55" y="0.0" name="bottom"/>
  <anchor x="150.725" y="742.0" name="top"/>
  <outline>
    <contour>
      <point x="196.375" y="742.0" type="curve"/>
      <point x="101.55" y="742.0" type="line"/>
      <point x="92.9" y="742.0"/>
      <point x="88.425" y="737.525"/>
      <point x="88.425" y="726.6375" type="curve"/>
      <point x="88.425" y="16.1875" type="line" smooth="yes"/>
      <point x="88.425" y="4.475"/>
      <point x="92.075" y="0.0"/>
      <point x="106.025" y="0.0" type="curve"/>
      <point x="188.425" y="0.0" type="line" smooth="yes"/>
      <point x="203.7875" y="0.0"/>
      <point x="209.0875" y="4.475"/>
      <point x="209.0875" y="19.0125" type="curve"/>
      <point x="209.0875" y="727.4625" type="line" smooth="yes"/>
      <point x="209.0875" y="737.525"/>
      <point x="205.4375" y="742.0"/>
    </contour>
  </outline>
</glyph>
<glyph name="J" format="2">
  <advance width="427.05"/>
  <unicode hex="004A"/>
  <anchor x="256.5125" y="742.0" name="top"/>
  <outline>
    <contour>
      <point x="343.0375" y="172.05" type="curve"/>
      <point x="343.0375" y="172.05" type="line"/>
      <point x="343.0375" y="727.4625" type="line" smooth="yes"/>
      <point x="343.0375" y="736.9375"/>
      <point x="339.3875" y="742.0"/>
      <point x="330.9125" y="742.0" type="curve"/>
      <point x="235.325" y="742.0" type="line" smooth="yes"/>
      <point x="226.85" y="742.0"/>
      <point x="222.375" y="736.9375"/>
      <point x="222.375" y="727.225" type="curve"/>
      <point x="222.375" y="201.025" type="line" smooth="yes"/>
      <point x="222.375" y="118.3375"/>
      <point x="197.4875" y="92.1625"/>
      <point x="139.0875" y="92.1625" type="curve"/>
      <point x="101.225" y="92.1625"/>
      <point x="81.2875" y="103.0375"/>
      <point x="62.35" y="109.7375" type="curve"/>
      <point x="53.4" y="111.7375"/>
      <point x="48.75" y="107.025"/>
      <point x="47.75" y="97.9" type="curve"/>
      <point x="38.75" y="32.6625" type="line" smooth="yes"/>
      <point x="37.3375" y="18.7625"/>
      <point x="42.6375" y="12.4625"/>
      <point x="53.8875" y="9.6375" type="curve"/>
      <point x="76.5625" y="3.4000000000000004"/>
      <point x="118.675" y="-10.0"/>
      <point x="167.9" y="-10.0" type="curve"/>
      <point x="289.2375" y="-10.0"/>
      <point x="343.0375" y="48.5875"/>
    </contour>
  </outline>
</glyph>
<glyph name="K" format="2">
  <advance width="714.425"/>
  <unicode hex="004B"/>
  <anchor x="372.175" y="742.0" name="top"/>
  <anchor x="354.55" y="0.0" name="bottom"/>
  <outline>
    <contour>
      <point x="673.325" y="16.9" type="curve"/>
      <point x="673.325" y="16.9" type="line"/>
      <point x="418.9" y="459.4375" type="line" smooth="yes"/>
      <point x="415.25" y="467.5625"/>
      <point x="415.6625" y="470.45"/>
      <point x="420.1375" y="476.1625" type="curve"/>
      <point x="639.95" y="725.3375" type="line" smooth="yes"/>
      <point x="647.6625" y="733.875"/>
      <point x="642.125" y="742.0"/>
      <point x="629.525" y="742.0" type="curve"/>
      <point x="544.5" y="742.0" type="line" smooth="yes"/>
      <point x="531.075" y="742.0"/>
      <point x="526.6" y="738.9375"/>
      <point x="520.3" y="730.9875" type="curve"/>
      <point x="219.3875" y="380.1625" type="line" smooth="yes"/>
      <point x="213.15" y="373.1"/>
      <point x="209.0875" y="372.6875"/>
      <point x="209.0875" y="382.8125" type="curve"/>
      <point x="209.0875" y="728.6375" type="line" smooth="yes"/>
      <point x="209.0875" y="737.525"/>
      <point x="204.85" y="742.0"/>
      <point x="196.9625" y="742.0" type="curve"/>
      <point x="100.9625" y="742.0" type="line" smooth="yes"/>
      <point x="92.9" y="742.0"/>
      <point x="88.425" y="736.9375"/>
      <point x="88.425" y="727.8125" type="curve"/>
      <point x="88.425" y="15.6" type="line" smooth="yes"/>
      <point x="88.425" y="4.475"/>
      <point x="92.6625" y="0.0"/>
      <point x="105.4375" y="0.0" type="curve"/>
      <point x="189.6" y="0.0" type="line" smooth="yes"/>
      <point x="203.2" y="0.0"/>
      <point x="209.0875" y="5.0625"/>
      <point x="209.0875" y="17.25" type="curve"/>
      <point x="209.0875" y="218.775" type="line" smooth="yes"/>
      <point x="209.0875" y="227.6"/>
      <point x="210.675" y="231.8375"/>
      <point x="216.2625" y="237.8375" type="curve"/>
      <point x="323.1" y="361.15" type="line" smooth="yes"/>
      <point x="330.1625" y="369.45"/>
      <point x="334.4" y="370.8625"/>
      <point x="339.225" y="363.2125" type="curve"/>
      <point x="541.125" y="11.1875" type="line" smooth="yes"/>
      <point x="545.1875" y="3.2375"/>
      <point x="552.4875" y="0.0"/>
      <point x="562.4375" y="0.0" type="curve"/>
      <point x="665.7875" y="0.0" type="line" smooth="yes"/>
      <point x="676.3875" y="0.0"/>
      <point x="678.3875" y="7.949999999999999"/>
    </contour>
  </outline>
</glyph>
<glyph name="L" format="2">
  <advance width="610.1"/>
  <unicode hex="004C"/>
  <anchor x="149.7875" y="742.0" name="top"/>
  <anchor x="316.9375" y="0.0" name="bottom"/>
  <anchor x="458.8875" y="742.0" name="topright"/>
  <outline>
    <contour>
      <point x="88.425" y="726.6375" type="curve"/>
      <point x="88.425" y="726.6375" type="line"/>
      <point x="88.425" y="16.1875" type="line" smooth="yes"/>
      <point x="88.425" y="5.0625"/>
      <point x="92.075" y="0.0"/>
      <point x="104.85" y="0.0" type="curve"/>
      <point x="556.5125" y="0.0" type="line"/>
      <point x="566.4625" y="0.0"/>
      <point x="570.9375" y="5.3"/>
      <point x="570.9375" y="13.1875" type="curve"/>
      <point x="570.9375" y="79.19999999999999" type="line" smooth="yes"/>
      <point x="570.9375" y="88.5"/>
      <point x="566.05" y="91.15"/>
      <point x="556.75" y="91.15" type="curve"/>
      <point x="219.325" y="91.15" type="line" smooth="yes"/>
      <point x="211.5" y="91.15"/>
      <point x="209.0875" y="92.975"/>
      <point x="209.0875" y="102.2125" type="curve"/>
      <point x="209.0875" y="727.4625" type="line" smooth="yes"/>
      <point x="209.0875" y="737.525"/>
      <point x="205.4375" y="742.0"/>
      <point x="196.375" y="742.0" type="curve"/>
      <point x="101.55" y="742.0" type="line" smooth="yes"/>
      <point x="92.9" y="742.0"/>
      <point x="88.425" y="737.525"/>
    </contour>
  </outline>
</glyph>
<glyph name="M" format="2">
  <advance width="919.425"/>
  <unicode hex="004D"/>
  <outline>
    <contour>
      <point x="104.4375" y="0.0" type="curve"/>
      <point x="104.4375" y="0.0" type="line"/>
      <point x="173.9875" y="0.0" type="line" smooth="yes"/>
      <point x="185.525" y="0.0"/>
      <point x="188.9375" y="3.4125"/>
      <point x="188.9375" y="14.3625" type="curve"/>
      <point x="188.9375" y="556.825" type="line" smooth="yes"/>
      <point x="188.9375" y="564.5375"/>
      <point x="193.0" y="565.6"/>
      <point x="195.65" y="557.2375" type="curve"/>
      <point x="398.4" y="13.3" type="line" smooth="yes"/>
      <point x="401.8125" y="4.2375"/>
      <point x="408.05" y="0.0"/>
      <point x="419.4625" y="0.0" type="curve"/>
      <point x="478.6375" y="0.0" type="line" smooth="yes"/>
      <point x="488.4625" y="0.0"/>
      <point x="494.525" y="4.65"/>
      <point x="497.9375" y="13.8875" type="curve"/>
      <point x="703.625" y="563.475" type="line" smooth="yes"/>
      <point x="705.8625" y="570.1875"/>
      <point x="710.3375" y="571.3625"/>
      <point x="710.3375" y="563.8875" type="curve"/>
      <point x="710.3375" y="15.6" type="line" smooth="yes"/>
      <point x="710.3375" y="4.475"/>
      <point x="714.575" y="0.0"/>
      <point x="726.9375" y="0.0" type="curve"/>
      <point x="812.5125" y="0.0" type="line" smooth="yes"/>
      <point x="825.525" y="0.0"/>
      <point x="831.0" y="5.0625"/>
      <point x="831.0" y="17.8375" type="curve"/>
      <point x="831.0" y="727.4625" type="line" smooth="yes"/>
      <point x="831.0" y="737.525"/>
      <point x="827.35" y="742.0"/>
      <point x="818.2875" y="742.0" type="curve"/>
      <point x="682.0375" y="742.0" type="line" smooth="yes"/>
      <point x="672.7375" y="742.0"/>
      <point x="667.675" y="736.2875"/>
      <point x="664.4375" y="725.925" type="curve"/>
      <point x="466.8625" y="205.6625" type="line" smooth="yes"/>
      <point x="462.1" y="193.725"/>
      <point x="456.6875" y="192.9"/>
      <point x="452.1" y="205.075" type="curve"/>
      <point x="252.33749999999998" y="729.875" type="line"/>
      <point x="249.1" y="739.175"/>
      <point x="244.8625" y="742.0"/>
      <point x="233.14999999999998" y="742.0" type="curve"/>
      <point x="102.375" y="742.0" type="line" smooth="yes"/>
      <point x="92.075" y="742.0"/>
      <point x="88.425" y="737.9375"/>
      <point x="88.425" y="726.6375" type="curve"/>
      <point x="88.425" y="17.425" type="line" smooth="yes"/>
      <point x="88.425" y="6.3"/>
      <point x="93.725" y="0.0"/>
    </contour>
  </outline>
</glyph>
<glyph name="N" format="2">
  <advance width="757.475"/>
  <unicode hex="004E"/>
  <anchor x="388.6375" y="742.0" name="top"/>
  <anchor x="368.075" y="0.0" name="bottom"/>
  <outline>
    <contour>
      <point x="657.575" y="742.0" type="curve"/>
      <point x="581.9" y="742.0" type="line"/>
      <point x="572.1875" y="742.0"/>
      <point x="568.125" y="736.9375"/>
      <point x="568.125" y="728.05" type="curve"/>
      <point x="568.125" y="225.3875" type="line" smooth="yes"/>
      <point x="568.125" y="215.2625"/>
      <point x="561.125" y="211.7375"/>
      <point x="553.3" y="222.5625" type="curve"/>
      <point x="203.4375" y="730.4625" type="line" smooth="yes"/>
      <point x="196.55" y="740.175"/>
      <point x="192.3125" y="742.0"/>
      <point x="180.6" y="742.0" type="curve"/>
      <point x="102.7875" y="742.0" type="line"/>
      <point x="92.4875" y="742.0"/>
      <point x="88.425" y="737.9375"/>
      <point x="88.425" y="726.6375" type="curve"/>
      <point x="88.425" y="14.125" type="line" smooth="yes"/>
      <point x="88.425" y="3.825"/>
      <point x="93.725" y="0.0"/>
      <point x="104.025" y="0.0" type="curve"/>
      <point x="174.8125" y="0.0" type="line" smooth="yes"/>
      <point x="186.35" y="0.0"/>
      <point x="191.0" y="4.2375"/>
      <point x="190.5875" y="14.3625" type="curve"/>
      <point x="190.5875" y="533.4625" type="line" smooth="yes"/>
      <point x="190.5875" y="541.05"/>
      <point x="195.5875" y="543.05"/>
      <point x="201.7625" y="534.2875" type="curve"/>
      <point x="566.65" y="9.7125" type="line" smooth="yes"/>
      <point x="573.7125" y="0.23749999999999982"/>
      <point x="579.7125" y="0.0"/>
      <point x="588.95" y="0.0" type="curve"/>
      <point x="654.275" y="0.0" type="line" smooth="yes"/>
      <point x="663.1625" y="0.0"/>
      <point x="669.05" y="4.65"/>
      <point x="669.05" y="13.3" type="curve"/>
      <point x="669.05" y="729.1125" type="line" smooth="yes"/>
      <point x="669.05" y="738.35"/>
      <point x="665.8125" y="742.0"/>
    </contour>
  </outline>
</glyph>
<glyph name="O" format="2">
  <advance width="767.075"/>
  <unicode hex="004F"/>
  <guideline x="-588.375" y="431.0" angle="90.0"/>
  <anchor x="383.5375" y="371.0" name="center"/>
  <anchor x="464.2" y="9.4125" name="ogonek"/>
  <anchor x="384.7125" y="742.0" name="top"/>
  <anchor x="543.8125" y="742.0" name="topright"/>
  <anchor x="20.0" y="742.0" name="topleft"/>
  <anchor x="385.5375" y="0.0" name="bottom"/>
  <outline>
    <contour>
      <point x="383.95" y="-10.0" type="curve"/>
      <point x="383.95" y="-10.0" type="line"/>
      <point x="584.325" y="-10.0"/>
      <point x="708.4625" y="129.0125"/>
      <point x="708.4625" y="369.0" type="curve"/>
      <point x="708.4625" y="610.9875"/>
      <point x="583.0875" y="752.0"/>
      <point x="384.5375" y="752.0" type="curve"/>
      <point x="184.575" y="752.0"/>
      <point x="58.6125" y="610.4"/>
      <point x="58.6125" y="367.825" type="curve"/>
      <point x="58.6125" y="128.0125"/>
      <point x="181.75" y="-10.0"/>
    </contour>
    <contour>
      <point x="385.125" y="79.025" type="curve"/>
      <point x="385.125" y="79.025" type="line"/>
      <point x="250.8875" y="79.025"/>
      <point x="184.9875" y="168.9875"/>
      <point x="184.9875" y="367.7625" type="curve"/>
      <point x="184.9875" y="569.775"/>
      <point x="251.7125" y="663.8"/>
      <point x="384.5375" y="663.8" type="curve"/>
      <point x="515.95" y="663.8"/>
      <point x="582.0875" y="570.3625"/>
      <point x="582.0875" y="367.7625" type="curve"/>
      <point x="582.0875" y="168.4"/>
      <point x="517.95" y="79.025"/>
    </contour>
  </outline>
</glyph>
<glyph name="P" format="2">
  <advance width="697.5125"/>
  <unicode hex="0050"/>
  <outline>
    <contour>
      <point x="648.95" y="520.975" type="curve"/>
      <point x="648.95" y="520.975" type="line"/>
      <point x="648.95" y="674.925"/>
      <point x="527.225" y="742.0"/>
      <point x="368.5125" y="742.0" type="curve"/>
      <point x="101.55" y="742.0" type="line" smooth="yes"/>
      <point x="92.4875" y="742.0"/>
      <point x="88.425" y="737.525"/>
      <point x="88.425" y="726.6375" type="curve"/>
      <point x="88.425" y="15.0125" type="line" smooth="yes"/>
      <point x="88.425" y="5.0625"/>
      <point x="92.6625" y="0.0"/>
      <point x="103.85" y="0.0" type="curve"/>
      <point x="190.775" y="0.0" type="line" smooth="yes"/>
      <point x="203.2" y="0.0"/>
      <point x="209.0875" y="5.0625"/>
      <point x="209.0875" y="17.25" type="curve"/>
      <point x="209.0875" y="292.0125" type="line" smooth="yes"/>
      <point x="209.0875" y="298.425"/>
      <point x="211.5" y="301.8375"/>
      <point x="218.7375" y="301.8375" type="curve"/>
      <point x="382.7625" y="301.8375" type="line" smooth="yes"/>
      <point x="538.7125" y="301.8375"/>
      <point x="648.95" y="373.8"/>
    </contour>
    <contour>
      <point x="525.05" y="523.975" type="curve"/>
      <point x="525.05" y="523.975" type="line"/>
      <point x="525.05" y="433.975"/>
      <point x="463.7375" y="391.3375"/>
      <point x="368.7375" y="391.3375" type="curve"/>
      <point x="220.2125" y="391.3375" type="line" smooth="yes"/>
      <point x="211.9125" y="391.3375"/>
      <point x="209.0875" y="395.9875"/>
      <point x="209.0875" y="406.2875" type="curve"/>
      <point x="209.0875" y="639.1375" type="line" smooth="yes"/>
      <point x="209.0875" y="648.85"/>
      <point x="213.325" y="652.5"/>
      <point x="223.8625" y="652.5" type="curve"/>
      <point x="362.15" y="652.5" type="line" smooth="yes"/>
      <point x="460.4375" y="652.5"/>
      <point x="525.05" y="616.625"/>
    </contour>
  </outline>
</glyph>
<glyph name="Q" format="2">
  <advance width="767.9"/>
  <unicode hex="0051"/>
  <outline>
    <contour>
      <point x="58.6125" y="369.0" type="curve"/>
      <point x="58.6125" y="369.0" type="line"/>
      <point x="58.6125" y="125.075"/>
      <point x="184.6875" y="-10.0"/>
      <point x="383.95" y="-10.0" type="curve"/>
      <point x="409.95" y="-10.0"/>
      <point x="436.2375" y="-7.825"/>
      <point x="460.825" y="-3.0625" type="curve"/>
      <point x="467.825" y="-1.4749999999999996"/>
      <point x="472.825" y="-3.0625"/>
      <point x="475.825" y="-7.0625" type="curve"/>
      <point x="537.525" y="-91.05"/>
      <point x="606.0" y="-124.475"/>
      <point x="673.1" y="-124.475" type="curve"/>
      <point x="694.525" y="-124.475"/>
      <point x="703.0" y="-120.825"/>
      <point x="703.0" y="-104.05" type="curve"/>
      <point x="703.0" y="-45.75" type="line" smooth="yes"/>
      <point x="703.0" y="-41.1"/>
      <point x="701.175" y="-36.0375"/>
      <point x="691.875" y="-34.625" type="curve"/>
      <point x="630.075" y="-26.275000000000006"/>
      <point x="571.325" y="18.7"/>
      <point x="571.325" y="41.575" type="curve"/>
      <point x="571.325" y="45.575"/>
      <point x="571.9125" y="47.575"/>
      <point x="575.675" y="50.162499999999994" type="curve"/>
      <point x="660.3" y="111.4625"/>
      <point x="708.875" y="213.75"/>
      <point x="708.875" y="369.0" type="curve"/>
      <point x="708.875" y="612.1625"/>
      <point x="583.5" y="752.0"/>
      <point x="383.95" y="752.0" type="curve"/>
      <point x="183.9875" y="752.0"/>
      <point x="58.6125" y="612.1625"/>
    </contour>
    <contour>
      <point x="184.9875" y="367.0" type="curve"/>
      <point x="184.9875" y="367.0" type="line"/>
      <point x="184.9875" y="567.25"/>
      <point x="249.95" y="663.8"/>
      <point x="383.95" y="663.8" type="curve"/>
      <point x="517.5375" y="663.8"/>
      <point x="582.5" y="567.25"/>
      <point x="582.5" y="368.175" type="curve"/>
      <point x="582.5" y="167.8125"/>
      <point x="516.6" y="79.025"/>
      <point x="383.95" y="79.025" type="curve"/>
      <point x="250.8875" y="79.025"/>
      <point x="184.9875" y="167.8125"/>
    </contour>
  </outline>
</glyph>
<glyph name="R" format="2">
  <advance width="703.75"/>
  <unicode hex="0052"/>
  <anchor x="343.9" y="742.0" name="top"/>
  <anchor x="352.1375" y="0.0" name="bottom"/>
  <outline>
    <contour>
      <point x="641.075" y="21.425" type="curve"/>
      <point x="641.075" y="21.425" type="line"/>
      <point x="503.325" y="339.6125" type="line"/>
      <point x="501.5" y="344.675"/>
      <point x="502.0875" y="349.7375"/>
      <point x="507.325" y="351.5625" type="curve"/>
      <point x="579.2125" y="374.1"/>
      <point x="650.6625" y="435.4125"/>
      <point x="650.6625" y="546.45" type="curve"/>
      <point x="650.6625" y="673.4"/>
      <point x="555.1125" y="742.0"/>
      <point x="390.9" y="742.0" type="curve"/>
      <point x="101.55" y="742.0" type="line" smooth="yes"/>
      <point x="92.4875" y="742.0"/>
      <point x="88.425" y="737.525"/>
      <point x="88.425" y="726.6375" type="curve"/>
      <point x="88.425" y="15.6" type="line" smooth="yes"/>
      <point x="88.425" y="5.0625"/>
      <point x="92.075" y="0.0"/>
      <point x="105.025" y="0.0" type="curve"/>
      <point x="189.6" y="0.0" type="line" smooth="yes"/>
      <point x="203.7875" y="0.0"/>
      <point x="209.0875" y="5.0625"/>
      <point x="209.0875" y="18.425" type="curve"/>
      <point x="209.0875" y="319.25" type="line" smooth="yes"/>
      <point x="209.0875" y="324.6"/>
      <point x="212.0875" y="330.25"/>
      <point x="221.0875" y="330.25" type="curve"/>
      <point x="366.9625" y="330.25" type="line" smooth="yes"/>
      <point x="382.4375" y="330.25"/>
      <point x="388.675" y="326.425"/>
      <point x="392.0875" y="317.775" type="curve"/>
      <point x="514.2875" y="13.95" type="line" smooth="yes"/>
      <point x="517.7" y="4.65"/>
      <point x="522.5875" y="0.0"/>
      <point x="532.475" y="0.0" type="curve"/>
      <point x="628.95" y="0.0" type="line" smooth="yes"/>
      <point x="639.6625" y="0.0"/>
      <point x="645.725" y="10.3"/>
    </contour>
    <contour>
      <point x="366.625" y="415.2125" type="curve"/>
      <point x="366.625" y="415.2125" type="line"/>
      <point x="220.2125" y="415.2125" type="line" smooth="yes"/>
      <point x="211.9125" y="415.2125"/>
      <point x="209.0875" y="419.45"/>
      <point x="209.0875" y="429.1625" type="curve"/>
      <point x="209.0875" y="644.5" type="line" smooth="yes"/>
      <point x="209.0875" y="654.2125"/>
      <point x="213.325" y="657.45"/>
      <point x="225.0375" y="657.45" type="curve"/>
      <point x="384.125" y="657.45" type="line" smooth="yes"/>
      <point x="473.775" y="657.45"/>
      <point x="525.525" y="617.525"/>
      <point x="525.525" y="536.5625" type="curve"/>
      <point x="525.525" y="453.025"/>
      <point x="471.675" y="415.2125"/>
    </contour>
  </outline>
</glyph>
<glyph name="S" format="2">
  <advance width="652.2375"/>
  <unicode hex="0053"/>
  <anchor x="333.85" y="742.0" name="top"/>
  <anchor x="336.2" y="0.0" name="bottom"/>
  <outline>
    <contour>
      <point x="497.525" y="592.35" type="curve"/>
      <point x="497.525" y="592.35" type="line"/>
      <point x="506.825" y="582.4625"/>
      <point x="510.475" y="580.875"/>
      <point x="517.5375" y="586.1125" type="curve"/>
      <point x="575.425" y="630.45" type="line" smooth="yes"/>
      <point x="584.3125" y="637.5125"/>
      <point x="580.25" y="644.9875"/>
      <point x="575.425" y="651.05" type="curve"/>
      <point x="522.9625" y="713.1125"/>
      <point x="436.9875" y="752.0"/>
      <point x="333.2625" y="752.0" type="curve"/>
      <point x="174.8125" y="752.0"/>
      <point x="69.9125" y="666.15"/>
      <point x="69.9125" y="539.0875" type="curve"/>
      <point x="69.9125" y="458.175"/>
      <point x="118.8875" y="380.575"/>
      <point x="231.8375" y="344.1125" type="curve"/>
      <point x="383.25" y="294.775" type="line" smooth="yes"/>
      <point x="465.025" y="265.975"/>
      <point x="486.7875" y="233.6375"/>
      <point x="486.7875" y="189.075" type="curve"/>
      <point x="486.7875" y="110.94999999999999"/>
      <point x="420.575" y="78.19999999999999"/>
      <point x="320.55" y="78.19999999999999" type="curve"/>
      <point x="225.1" y="78.19999999999999"/>
      <point x="180.8125" y="109.425"/>
      <point x="129.7625" y="175.2375" type="curve"/>
      <point x="123.525" y="182.8875"/>
      <point x="115.6375" y="185.125"/>
      <point x="102.3375" y="176.0625" type="curve"/>
      <point x="53.3875" y="142.075" type="line" smooth="yes"/>
      <point x="41.7375" y="133.425"/>
      <point x="41.15" y="126.6"/>
      <point x="47.3875" y="116.7125" type="curve"/>
      <point x="101.4375" y="34.775"/>
      <point x="202.125" y="-10.0"/>
      <point x="327.5625" y="-10.0" type="curve"/>
      <point x="497.5375" y="-10.0"/>
      <point x="602.9125" y="70.725"/>
      <point x="602.9125" y="203.45" type="curve"/>
      <point x="602.9125" y="295.2875"/>
      <point x="553.725" y="365.1875"/>
      <point x="432.8375" y="403.2375" type="curve"/>
      <point x="283.2875" y="450.35" type="line" smooth="yes"/>
      <point x="199.8" y="478.2125"/>
      <point x="185.2125" y="522.125"/>
      <point x="185.2125" y="552.4625" type="curve"/>
      <point x="185.2125" y="620.9375"/>
      <point x="239.825" y="663.3875"/>
      <point x="334.8" y="663.3875" type="curve"/>
      <point x="416.325" y="663.3875"/>
      <point x="464.125" y="630.6875"/>
    </contour>
  </outline>
</glyph>
<glyph name="T" format="2">
  <advance width="656.4125"/>
  <unicode hex="0054"/>
  <anchor x="334.9625" y="742.0" name="top"/>
  <anchor x="334.9625" y="0.0" name="bottom"/>
  <outline>
    <contour>
      <point x="39.1625" y="728.4" type="curve"/>
      <point x="39.1625" y="664.0375" type="line"/>
      <point x="39.1625" y="654.7375"/>
      <point x="44.05" y="652.0875"/>
      <point x="53.35" y="652.0875" type="curve"/>
      <point x="263.425" y="652.0875" type="line" smooth="yes"/>
      <point x="271.425" y="652.0875"/>
      <point x="273.8375" y="649.85"/>
      <point x="273.8375" y="641.025" type="curve"/>
      <point x="273.8375" y="14.125" type="line" smooth="yes"/>
      <point x="273.8375" y="4.0625"/>
      <point x="277.9" y="0.0"/>
      <point x="287.1375" y="0.0" type="curve"/>
      <point x="381.375" y="0.0" type="line" smooth="yes"/>
      <point x="390.025" y="0.0"/>
      <point x="394.5" y="4.0625"/>
      <point x="394.5" y="14.95" type="curve"/>
      <point x="394.5" y="642.675" type="line" smooth="yes"/>
      <point x="394.5" y="650.2625"/>
      <point x="397.325" y="652.0875"/>
      <point x="405.325" y="652.0875" type="curve"/>
      <point x="603.475" y="652.0875" type="line" smooth="yes"/>
      <point x="612.3625" y="652.0875"/>
      <point x="617.25" y="654.7375"/>
      <point x="617.25" y="664.0375" type="curve"/>
      <point x="617.25" y="728.4" type="line" smooth="yes"/>
      <point x="617.25" y="736.7"/>
      <point x="612.775" y="742.0"/>
      <point x="602.825" y="742.0" type="curve"/>
      <point x="53.5875" y="742.0" type="line" smooth="yes"/>
      <point x="43.6375" y="742.0"/>
      <point x="39.1625" y="736.7"/>
    </contour>
  </outline>
</glyph>
<glyph name="U" format="2">
  <advance width="712.725"/>
  <unicode hex="0055"/>
  <anchor x="444.8625" y="9.4125" name="ogonek"/>
  <anchor x="365.725" y="742.0" name="top"/>
  <anchor x="663.35" y="742.0" name="topright"/>
  <anchor x="356.3625" y="0.0" name="bottom"/>
  <outline>
    <contour>
      <point x="633.475" y="255.9875" type="curve"/>
      <point x="633.475" y="255.9875" type="line"/>
      <point x="633.475" y="728.05" type="line" smooth="yes"/>
      <point x="633.475" y="736.9375"/>
      <point x="629.825" y="742.0"/>
      <point x="621.35" y="742.0" type="curve"/>
      <point x="545.375" y="742.0" type="line" smooth="yes"/>
      <point x="536.9" y="742.0"/>
      <point x="532.8375" y="736.9375"/>
      <point x="532.8375" y="727.225" type="curve"/>
      <point x="532.8375" y="254.9875" type="line" smooth="yes"/>
      <point x="532.8375" y="131.65"/>
      <point x="471.2" y="80.26249999999999"/>
      <point x="364.55" y="80.26249999999999" type="curve"/>
      <point x="256.6" y="80.26249999999999"/>
      <point x="199.9125" y="133.5375"/>
      <point x="199.9125" y="251.9875" type="curve"/>
      <point x="199.9125" y="727.4625" type="line" smooth="yes"/>
      <point x="199.9125" y="737.525"/>
      <point x="196.2625" y="742.0"/>
      <point x="186.6125" y="742.0" type="curve"/>
      <point x="91.7875" y="742.0" type="line" smooth="yes"/>
      <point x="83.725" y="742.0"/>
      <point x="79.25" y="736.9375"/>
      <point x="79.25" y="726.05" type="curve"/>
      <point x="79.25" y="273.05" type="line" smooth="yes"/>
      <point x="79.25" y="84.6125"/>
      <point x="159.075" y="-10.0"/>
      <point x="356.3625" y="-10.0" type="curve"/>
      <point x="532.675" y="-10.0"/>
      <point x="633.475" y="66.1125"/>
    </contour>
  </outline>
</glyph>
<glyph name="V" format="2">
  <advance width="715.1625"/>
  <unicode hex="0056"/>
  <outline>
    <contour>
      <point x="661.7625" y="742.0" type="curve"/>
      <point x="661.7625" y="742.0" type="line"/>
      <point x="585.6125" y="742.0" type="line" smooth="yes"/>
      <point x="577.1375" y="742.0"/>
      <point x="570.8375" y="737.525"/>
      <point x="568.425" y="729.225" type="curve"/>
      <point x="373.5125" y="154.925" type="line" smooth="yes"/>
      <point x="369.3375" y="142.575"/>
      <point x="364.1625" y="142.575"/>
      <point x="359.9875" y="153.925" type="curve"/>
      <point x="165.475" y="728.6375" type="line" smooth="yes"/>
      <point x="162.64999999999998" y="737.525"/>
      <point x="157.175" y="742.0"/>
      <point x="147.525" y="742.0" type="curve"/>
      <point x="54.4" y="742.0" type="line" smooth="yes"/>
      <point x="43.6875" y="742.0"/>
      <point x="38.2125" y="733.875"/>
      <point x="41.8625" y="724.1625" type="curve"/>
      <point x="287.375" y="16.1875" type="line" smooth="yes"/>
      <point x="290.6125" y="5.0625"/>
      <point x="299.0875" y="0.0"/>
      <point x="313.8" y="0.0" type="curve"/>
      <point x="399.425" y="0.0" type="line" smooth="yes"/>
      <point x="412.9625" y="0.0"/>
      <point x="420.2625" y="5.0625"/>
      <point x="424.0875" y="16.775" type="curve"/>
      <point x="673.7125" y="724.75" type="line" smooth="yes"/>
      <point x="676.95" y="733.875"/>
      <point x="671.8875" y="742.0"/>
    </contour>
  </outline>
</glyph>
<glyph name="W" format="2">
  <advance width="1057.3"/>
  <unicode hex="0057"/>
  <anchor x="530.7375" y="742.0" name="top"/>
  <outline>
    <contour>
      <point x="997.95" y="742.0" type="curve"/>
      <point x="997.95" y="742.0" type="line"/>
      <point x="935.4125" y="742.0" type="line" smooth="yes"/>
      <point x="923.225" y="742.0"/>
      <point x="916.9875" y="737.525"/>
      <point x="915.1625" y="729.225" type="curve"/>
      <point x="762.05" y="182.1375" type="line" smooth="yes"/>
      <point x="758.875" y="170.6125"/>
      <point x="753.6375" y="171.4375"/>
      <point x="750.4625" y="182.375" type="curve"/>
      <point x="596.4" y="728.6375" type="line" smooth="yes"/>
      <point x="593.575" y="737.525"/>
      <point x="589.5125" y="742.0"/>
      <point x="576.15" y="742.0" type="curve"/>
      <point x="503.7125" y="742.0" type="line" smooth="yes"/>
      <point x="489.7625" y="742.0"/>
      <point x="484.7" y="736.35"/>
      <point x="482.875" y="729.225" type="curve"/>
      <point x="328.525" y="185.02499999999998" type="line" smooth="yes"/>
      <point x="324.9375" y="172.2625"/>
      <point x="320.525" y="172.2625"/>
      <point x="316.525" y="186.08749999999998" type="curve"/>
      <point x="164.1125" y="728.6375" type="line" smooth="yes"/>
      <point x="161.2875" y="737.525"/>
      <point x="157.225" y="742.0"/>
      <point x="143.8625" y="742.0" type="curve"/>
      <point x="61.1125" y="742.0" type="line" smooth="yes"/>
      <point x="46.275" y="742.0"/>
      <point x="40.3875" y="732.6375"/>
      <point x="44.0375" y="719.625" type="curve"/>
      <point x="246.8625" y="16.1875" type="line" smooth="yes"/>
      <point x="250.5125" y="5.0625"/>
      <point x="258.1625" y="0.0"/>
      <point x="272.2875" y="0.0" type="curve"/>
      <point x="350.075" y="0.0" type="line" smooth="yes"/>
      <point x="364.6125" y="0.0"/>
      <point x="371.0875" y="5.0625"/>
      <point x="374.325" y="16.775" type="curve"/>
      <point x="525.5" y="541.2625" type="line" smooth="yes"/>
      <point x="528.975" y="551.8625"/>
      <point x="532.2125" y="551.0375"/>
      <point x="534.45" y="542.0875" type="curve"/>
      <point x="683.6875" y="16.1875" type="line" smooth="yes"/>
      <point x="686.925" y="5.0625"/>
      <point x="694.9875" y="0.0"/>
      <point x="709.1125" y="0.0" type="curve"/>
      <point x="784.8375" y="0.0" type="line" smooth="yes"/>
      <point x="798.9625" y="0.0"/>
      <point x="805.4375" y="5.0625"/>
      <point x="809.0875" y="16.775" type="curve"/>
      <point x="1014.4375" y="720.2125" type="line" smooth="yes"/>
      <point x="1017.5" y="732.6375"/>
      <point x="1012.2" y="742.0"/>
    </contour>
  </outline>
</glyph>
<glyph name="X" format="2">
  <advance width="700.775"/>
  <unicode hex="0058"/>
  <outline>
    <contour>
      <point x="653.2" y="26.912499999999998" type="curve"/>
      <point x="653.2" y="26.912499999999998" type="line"/>
      <point x="420.1625" y="377.7125" type="line" smooth="yes"/>
      <point x="413.6875" y="387.425"/>
      <point x="413.8625" y="392.6625"/>
      <point x="419.925" y="401.9625" type="curve"/>
      <point x="635.3625" y="724.8625" type="line" smooth="yes"/>
      <point x="640.6625" y="732.8125"/>
      <point x="641.075" y="742.0"/>
      <point x="628.825" y="742.0" type="curve"/>
      <point x="540.8" y="742.0" type="line" smooth="yes"/>
      <point x="529.375" y="742.0"/>
      <point x="524.4875" y="738.525"/>
      <point x="520.0125" y="730.9875" type="curve"/>
      <point x="360.8625" y="484.2125" type="line" smooth="yes"/>
      <point x="354.275" y="473.8"/>
      <point x="347.8" y="474.3875"/>
      <point x="341.8" y="483.625" type="curve"/>
      <point x="182.64999999999998" y="730.9875" type="line" smooth="yes"/>
      <point x="178.175" y="738.525"/>
      <point x="173.4625" y="742.0"/>
      <point x="160.8625" y="742.0" type="curve"/>
      <point x="59.9875" y="742.0" type="line" smooth="yes"/>
      <point x="48.15" y="742.0"/>
      <point x="46.325" y="730.8125"/>
      <point x="51.625" y="722.8625" type="curve"/>
      <point x="271.25" y="391.4125" type="line" smooth="yes"/>
      <point x="277.9" y="380.525"/>
      <point x="278.9" y="374.525"/>
      <point x="271.8375" y="364.225" type="curve"/>
      <point x="48.4" y="26.912499999999998" type="line" smooth="yes"/>
      <point x="34.7375" y="5.7125"/>
      <point x="40.45" y="0.0"/>
      <point x="55.525" y="0.0" type="curve"/>
      <point x="135.25" y="0.0" type="line" smooth="yes"/>
      <point x="145.2625" y="0.0"/>
      <point x="153.2125" y="2.65"/>
      <point x="157.6875" y="10.6" type="curve"/>
      <point x="329.725" y="276.5625" type="line" smooth="yes"/>
      <point x="340.1375" y="293.2125"/>
      <point x="344.9625" y="292.2125"/>
      <point x="353.6125" y="277.9125" type="curve"/>
      <point x="528.2375" y="10.6" type="line" smooth="yes"/>
      <point x="532.7125" y="3.0625"/>
      <point x="539.075" y="0.0"/>
      <point x="549.675" y="0.0" type="curve"/>
      <point x="645.075" y="0.0" type="line" smooth="yes"/>
      <point x="660.15" y="0.0"/>
      <point x="667.0375" y="6.125"/>
    </contour>
  </outline>
</glyph>
<glyph name="Y" format="2">
  <advance width="694.1"/>
  <unicode hex="0059"/>
  <anchor x="350.7125" y="742.0" name="top"/>
  <anchor x="347.05" y="0.0" name="bottom"/>
  <anchor x="20.0" y="742.0" name="topleft"/>
  <outline>
    <contour>
      <point x="644.2875" y="742.0" type="curve"/>
      <point x="644.2875" y="742.0" type="line"/>
      <point x="564.25" y="742.0" type="line" smooth="yes"/>
      <point x="551.125" y="742.0"/>
      <point x="547.0625" y="739.7625"/>
      <point x="540.825" y="728.05" type="curve"/>
      <point x="368.125" y="425.15" type="line" smooth="yes"/>
      <point x="360.5375" y="412.5625"/>
      <point x="354.775" y="412.3875"/>
      <point x="347.0125" y="426.7375" type="curve"/>
      <point x="172.89999999999998" y="728.05" type="line" smooth="yes"/>
      <point x="166.83749999999998" y="738.7625"/>
      <point x="163.0125" y="742.0"/>
      <point x="149.475" y="742.0" type="curve"/>
      <point x="53.05" y="742.0" type="line" smooth="yes"/>
      <point x="38.5125" y="742.0"/>
      <point x="34.45" y="734.1125"/>
      <point x="40.925" y="723.4" type="curve"/>
      <point x="280.8" y="322.0125" type="line" smooth="yes"/>
      <point x="286.8625" y="311.7125"/>
      <point x="289.5125" y="306.65"/>
      <point x="289.5125" y="292.1125" type="curve"/>
      <point x="289.5125" y="16.775" type="line" smooth="yes"/>
      <point x="289.5125" y="5.65"/>
      <point x="293.75" y="0.0"/>
      <point x="307.2875" y="0.0" type="curve"/>
      <point x="387.75" y="0.0" type="line" smooth="yes"/>
      <point x="403.7" y="0.0"/>
      <point x="410.175" y="5.65"/>
      <point x="410.175" y="19.6" type="curve"/>
      <point x="410.175" y="293.2125" type="line" smooth="yes"/>
      <point x="410.175" y="316.4125"/>
      <point x="410.5875" y="322.8875"/>
      <point x="416.65" y="332.1875" type="curve"/>
      <point x="653.5875" y="726.05" type="line" smooth="yes"/>
      <point x="659.2375" y="734.9375"/>
      <point x="655.4125" y="742.0"/>
    </contour>
  </outline>
</glyph>
<glyph name="Z" format="2">
  <advance width="647.025"/>
  <unicode hex="005A"/>
  <anchor x="332.225" y="742.0" name="top"/>
  <anchor x="326.4375" y="0.0" name="bottom"/>
  <outline>
    <contour>
      <point x="58.4625" y="0.0" type="curve"/>
      <point x="58.4625" y="0.0" type="line"/>
      <point x="584.85" y="0.0" type="line" smooth="yes"/>
      <point x="594.8" y="0.0"/>
      <point x="598.8625" y="5.887499999999999"/>
      <point x="598.8625" y="13.1875" type="curve"/>
      <point x="598.8625" y="81.19999999999999" type="line" smooth="yes"/>
      <point x="598.8625" y="89.32499999999999"/>
      <point x="594.3875" y="91.975"/>
      <point x="586.2625" y="91.975" type="curve"/>
      <point x="216.4125" y="91.975" type="line" smooth="yes"/>
      <point x="210.35" y="91.975"/>
      <point x="205.6375" y="94.975"/>
      <point x="210.2875" y="102.44999999999999" type="curve"/>
      <point x="591.3875" y="675.2375" type="line" smooth="yes"/>
      <point x="598.5125" y="685.6"/>
      <point x="601.3375" y="690.075"/>
      <point x="601.3375" y="699.2" type="curve"/>
      <point x="601.3375" y="730.225" type="line" smooth="yes"/>
      <point x="601.3375" y="737.525"/>
      <point x="597.275" y="742.0"/>
      <point x="589.975" y="742.0" type="curve"/>
      <point x="73.475" y="742.0" type="line" smooth="yes"/>
      <point x="66.5875" y="742.0"/>
      <point x="62.525" y="737.525"/>
      <point x="62.525" y="729.8125" type="curve"/>
      <point x="62.525" y="664.45" type="line" smooth="yes"/>
      <point x="62.525" y="654.0875"/>
      <point x="65.7625" y="650.4375"/>
      <point x="75.7125" y="650.4375" type="curve"/>
      <point x="423.55" y="650.4375" type="line" smooth="yes"/>
      <point x="432.2625" y="650.4375"/>
      <point x="434.2625" y="647.2"/>
      <point x="429.6125" y="639.725" type="curve"/>
      <point x="55.8125" y="72.82499999999999" type="line" smooth="yes"/>
      <point x="45.0375" y="57.575"/>
      <point x="43.0375" y="53.9875"/>
      <point x="43.0375" y="41.8" type="curve"/>
      <point x="43.0375" y="14.425" type="line" smooth="yes"/>
      <point x="43.0375" y="3.2375"/>
      <point x="46.6875" y="0.0"/>
    </contour>
  </outline>
</glyph>
<glyph name="bracketleft" format="2">
  <advance width="296.05"/>
  <unicode hex="005B"/>
  <outline>
    <contour>
      <point x="81.25" y="729.4" type="curve"/>
      <point x="81.25" y="729.4" type="line"/>
      <point x="81.8375" y="-149.575" type="line" smooth="yes"/>
      <point x="81.8375" y="-159.1125"/>
      <point x="88.1375" y="-165.0"/>
      <point x="99.0875" y="-165.0" type="curve"/>
      <point x="268.3375" y="-165.0" type="line" smooth="yes"/>
      <point x="277.225" y="-165.0"/>
      <point x="280.4625" y="-161.7625"/>
      <point x="280.4625" y="-152.875" type="curve"/>
      <point x="280.4625" y="-110.425" type="line" smooth="yes"/>
      <point x="280.4625" y="-102.95"/>
      <point x="276.225" y="-99.125"/>
      <point x="268.3375" y="-99.125" type="curve"/>
      <point x="184.2875" y="-99.125" type="line" smooth="yes"/>
      <point x="174.75" y="-99.125"/>
      <point x="172.1" y="-97.3"/>
      <point x="172.1" y="-86.9375" type="curve"/>
      <point x="172.6875" y="660.2875" type="line" smooth="yes"/>
      <point x="172.6875" y="671.0625"/>
      <point x="177.1625" y="676.125"/>
      <point x="187.1125" y="676.125" type="curve"/>
      <point x="270.75" y="676.125" type="line" smooth="yes"/>
      <point x="276.8125" y="676.125"/>
      <point x="281.05" y="679.3625"/>
      <point x="281.05" y="685.425" type="curve"/>
      <point x="281.05" y="733.7" type="line" smooth="yes"/>
      <point x="281.05" y="739.7625"/>
      <point x="278.225" y="742.0"/>
      <point x="270.75" y="742.0" type="curve"/>
      <point x="96.675" y="742.0" type="line" smooth="yes"/>
      <point x="85.3125" y="742.0"/>
      <point x="81.25" y="737.9375"/>
    </contour>
  </outline>
</glyph>
<glyph name="backslash" format="2">
  <advance width="349.45"/>
  <unicode hex="005C"/>
  <outline>
    <contour>
      <point x="277.2375" y="-35.25" type="curve"/>
      <point x="277.2375" y="-35.25" type="line"/>
      <point x="328.5125" y="-35.25" type="line" smooth="yes"/>
      <point x="337.6375" y="-35.25"/>
      <point x="340.2875" y="-31.1875"/>
      <point x="338.05" y="-24.475" type="curve"/>
      <point x="87.875" y="731.05" type="line" smooth="yes"/>
      <point x="85.6375" y="737.9375"/>
      <point x="79.75" y="742.0"/>
      <point x="72.45" y="742.0" type="curve"/>
      <point x="21.175" y="742.0" type="line" smooth="yes"/>
      <point x="9.4" y="742.0"/>
      <point x="6.75" y="736.1125"/>
      <point x="11.225000000000001" y="722.5125" type="curve"/>
      <point x="256.3375" y="-19.825000000000003" type="line" smooth="yes"/>
      <point x="260.4" y="-31.6"/>
      <point x="267.2875" y="-35.25"/>
    </contour>
  </outline>
</glyph>
<glyph name="asciicircum" format="2">
  <advance width="475.5875"/>
  <unicode hex="005E"/>
  <outline>
    <contour>
      <point x="244.475" y="403.0125" type="curve"/>
      <point x="349.5" y="138.4" type="line"/>
      <point x="351.9125" y="131.75"/>
      <point x="359.8" y="129.9875"/>
      <point x="368.275" y="129.9875" type="curve"/>
      <point x="418.4875" y="129.9875" type="line" smooth="yes"/>
      <point x="427.7875" y="129.9875"/>
      <point x="431.85" y="134.225"/>
      <point x="428.2" y="143.9375" type="curve"/>
      <point x="279.25" y="504.4125" type="line" smooth="yes"/>
      <point x="258.8375" y="553.5875"/>
      <point x="213.1625" y="550.0"/>
      <point x="194.3375" y="504.0" type="curve"/>
      <point x="46.5625" y="146.9375" type="line" smooth="yes"/>
      <point x="42.325" y="137.225"/>
      <point x="46.15" y="131.1625"/>
      <point x="54.0375" y="131.1625" type="curve"/>
      <point x="106.4875" y="131.1625" type="line" smooth="yes"/>
      <point x="114.7875" y="131.1625"/>
      <point x="120.2625" y="132.3375"/>
      <point x="123.0875" y="138.9875" type="curve"/>
      <point x="228.7" y="403.0125" type="line" smooth="yes"/>
      <point x="232.35" y="412.3125"/>
      <point x="240.2375" y="412.3125"/>
    </contour>
  </outline>
</glyph>
<glyph name="underscore" format="2">
  <advance width="526.1625"/>
  <unicode hex="005F"/>
  <outline>
    <contour>
      <point x="468.5375" y="-109.0875" type="curve"/>
      <point x="468.5375" y="-55.8625" type="line"/>
      <point x="468.5375" y="-48.5625"/>
      <point x="463.8875" y="-44.087500000000006"/>
      <point x="457.0" y="-44.087500000000006" type="curve"/>
      <point x="68.4" y="-44.675" type="line" smooth="yes"/>
      <point x="61.6875" y="-44.675"/>
      <point x="57.625" y="-49.15"/>
      <point x="57.625" y="-58.275" type="curve"/>
      <point x="57.625" y="-111.5" type="line" smooth="yes"/>
      <point x="57.625" y="-121.45"/>
      <point x="61.275" y="-125.925"/>
      <point x="73.05" y="-125.925" type="curve"/>
      <point x="449.05" y="-125.3375" type="line" smooth="yes"/>
      <point x="462.65" y="-125.3375"/>
      <point x="468.5375" y="-120.8625"/>
    </contour>
  </outline>
</glyph>
<glyph name="a" format="2">
  <advance width="552.4375"/>
  <unicode hex="0061"/>
  <anchor x="470.8" y="12.35" name="ogonek"/>
  <anchor x="272.3" y="0.0" name="bottom"/>
  <anchor x="274.6625" y="530.0" name="top"/>
  <outline>
    <contour>
      <point x="368.8125" y="59.625" type="curve"/>
      <point x="368.8125" y="59.625" type="line"/>
      <point x="378.7625" y="68.925"/>
      <point x="384.4125" y="67.925"/>
      <point x="385.825" y="58.45" type="curve"/>
      <point x="387.4125" y="19.725" type="line" smooth="yes"/>
      <point x="388.65" y="7.7749999999999995"/>
      <point x="392.475" y="0.0"/>
      <point x="403.425" y="0.0" type="curve"/>
      <point x="470.5125" y="0.0" type="line" smooth="yes"/>
      <point x="481.875" y="0.0"/>
      <point x="485.875" y="4.0625"/>
      <point x="485.875" y="17.0125" type="curve"/>
      <point x="485.875" y="370.3" type="line" smooth="yes"/>
      <point x="485.875" y="474.175"/>
      <point x="419.7125" y="540.0"/>
      <point x="277.0125" y="540.0" type="curve"/>
      <point x="167.1625" y="540.0"/>
      <point x="90.2625" y="498.3625"/>
      <point x="53.2125" y="426.875" type="curve"/>
      <point x="47.15" y="413.625"/>
      <point x="50.2125" y="409.8"/>
      <point x="56.1" y="407.8" type="curve"/>
      <point x="124.2375" y="388.2625" type="line" smooth="yes"/>
      <point x="134.0125" y="385.2625"/>
      <point x="136.8375" y="387.675"/>
      <point x="141.25" y="395.15" type="curve"/>
      <point x="174.7" y="445.6625"/>
      <point x="220.0375" y="468.5875"/>
      <point x="272.125" y="468.5875" type="curve"/>
      <point x="341.5" y="468.5875"/>
      <point x="384.0" y="428.2"/>
      <point x="384.0" y="363.0" type="curve"/>
      <point x="384.0" y="337.775" type="line" smooth="yes"/>
      <point x="384.0" y="327.5375"/>
      <point x="376.35" y="323.775"/>
      <point x="367.825" y="323.1875" type="curve"/>
      <point x="303.25" y="317.9" type="line" smooth="yes"/>
      <point x="128.9375" y="309.675"/>
      <point x="31.5" y="243.0125"/>
      <point x="31.5" y="135.4125" type="curve"/>
      <point x="31.5" y="48.3"/>
      <point x="94.4375" y="-10.0"/>
      <point x="197.375" y="-10.0" type="curve"/>
      <point x="266.425" y="-10.0"/>
      <point x="321.65" y="14.9375"/>
    </contour>
    <contour>
      <point x="384.0" y="248.675" type="curve"/>
      <point x="384.0" y="248.675" type="line"/>
      <point x="384.0" y="171.0" type="line" smooth="yes"/>
      <point x="384.0" y="147.1875"/>
      <point x="367.7125" y="122.675"/>
      <point x="341.025" y="100.925" type="curve"/>
      <point x="314.1625" y="79.5875"/>
      <point x="277.95" y="64.3"/>
      <point x="238.4375" y="64.3" type="curve"/>
      <point x="176.0" y="64.3"/>
      <point x="136.2" y="96.225"/>
      <point x="136.2" y="148.3125" type="curve"/>
      <point x="136.2" y="216.65"/>
      <point x="210.2125" y="253.1625"/>
      <point x="315.65" y="260.2125" type="curve"/>
      <point x="369.5875" y="264.325" type="line" smooth="yes"/>
      <point x="379.825" y="264.9125"/>
      <point x="384.0" y="260.0875"/>
    </contour>
  </outline>
</glyph>
<glyph name="b" format="2">
  <advance width="601.9"/>
  <unicode hex="0062"/>
  <outline>
    <contour>
      <point x="87.975" y="0.0" type="curve"/>
      <point x="130.325" y="0.0" type="line"/>
      <point x="142.7375" y="0.0"/>
      <point x="147.8" y="4.65"/>
      <point x="149.8625" y="17.125" type="curve"/>
      <point x="157.6375" y="66.475" type="line" smooth="yes"/>
      <point x="158.875" y="75.0625"/>
      <point x="163.4625" y="76.0625"/>
      <point x="168.875" y="69.475" type="curve"/>
      <point x="192.0125" y="38.45"/>
      <point x="243.6625" y="-10.0"/>
      <point x="330.1625" y="-10.0" type="curve"/>
      <point x="474.9875" y="-10.0"/>
      <point x="557.75" y="97.2375"/>
      <point x="557.75" y="267.825" type="curve"/>
      <point x="557.75" y="424.25"/>
      <point x="488.8" y="540.0"/>
      <point x="345.2875" y="540.0" type="curve"/>
      <point x="264.45" y="540.0"/>
      <point x="214.6375" y="500.5625"/>
      <point x="191.85" y="479.1875" type="curve"/>
      <point x="182.4375" y="471.1875"/>
      <point x="176.375" y="471.1875"/>
      <point x="176.375" y="485.425" type="curve"/>
      <point x="176.375" y="726.875" type="line" smooth="yes"/>
      <point x="176.375" y="736.9375"/>
      <point x="172.725" y="742.0"/>
      <point x="164.25" y="742.0" type="curve"/>
      <point x="83.5" y="742.0" type="line" smooth="yes"/>
      <point x="75.4375" y="742.0"/>
      <point x="70.375" y="736.9375"/>
      <point x="70.375" y="726.6375" type="curve"/>
      <point x="70.375" y="17.95" type="line" smooth="yes"/>
      <point x="70.375" y="5.0625"/>
      <point x="74.6125" y="0.0"/>
    </contour>
    <contour>
      <point x="176.375" y="180.3" type="curve"/>
      <point x="176.375" y="399.7375" type="line"/>
      <point x="208.125" y="438.25"/>
      <point x="255.2125" y="467.35"/>
      <point x="311.475" y="467.35" type="curve"/>
      <point x="401.0125" y="467.35"/>
      <point x="449.1625" y="397.45"/>
      <point x="449.1625" y="266.175" type="curve"/>
      <point x="449.1625" y="121.5625"/>
      <point x="388.0875" y="60.5875"/>
      <point x="305.5375" y="60.5875" type="curve"/>
      <point x="238.8625" y="60.5875"/>
      <point x="176.375" y="112.0875"/>
    </contour>
  </outline>
</glyph>
<glyph name="c" format="2">
  <advance width="544.8375"/>
  <unicode hex="0063"/>
  <anchor x="296.2375" y="530.0" name="top"/>
  <anchor x="297.0" y="0.0" name="bottom"/>
  <outline>
    <contour>
      <point x="296.825" y="540.0" type="curve"/>
      <point x="296.825" y="540.0" type="line"/>
      <point x="148.8125" y="540.0"/>
      <point x="41.5625" y="426.2375"/>
      <point x="41.5625" y="263.0" type="curve"/>
      <point x="41.5625" y="100.4125"/>
      <point x="146.8125" y="-10.0"/>
      <point x="296.825" y="-10.0" type="curve"/>
      <point x="413.5875" y="-10.0"/>
      <point x="483.1125" y="60.349999999999994"/>
      <point x="515.4375" y="127.625" type="curve"/>
      <point x="518.2625" y="136.1625"/>
      <point x="516.85" y="140.9875"/>
      <point x="510.55" y="142.9875" type="curve"/>
      <point x="458.2625" y="159.225" type="line" smooth="yes"/>
      <point x="450.55" y="161.8125"/>
      <point x="447.725" y="160.4"/>
      <point x="444.1375" y="154.8125" type="curve"/>
      <point x="407.975" y="96.3"/>
      <point x="368.4125" y="63.475"/>
      <point x="305.775" y="63.475" type="curve"/>
      <point x="210.5875" y="63.475"/>
      <point x="149.5625" y="135.7875"/>
      <point x="149.5625" y="265.0" type="curve"/>
      <point x="149.5625" y="392.5625"/>
      <point x="209.35" y="465.7"/>
      <point x="301.825" y="465.7" type="curve"/>
      <point x="354.525" y="465.7"/>
      <point x="384.675" y="435.925"/>
      <point x="418.6375" y="386.25" type="curve"/>
      <point x="421.8125" y="378.775"/>
      <point x="425.8125" y="376.5375"/>
      <point x="432.1125" y="378.125" type="curve"/>
      <point x="502.725" y="390.4125" type="line" smooth="yes"/>
      <point x="511.5" y="392.0"/>
      <point x="514.5625" y="396.475"/>
      <point x="510.15" y="407.0125" type="curve"/>
      <point x="476.525" y="477.55"/>
      <point x="408.1" y="540.0"/>
    </contour>
  </outline>
</glyph>
<glyph name="d" format="2">
  <advance width="601.9"/>
  <unicode hex="0064"/>
  <anchor x="311.1125" y="265.0" name="center"/>
  <anchor x="304.0625" y="0.0" name="bottom"/>
  <anchor x="612.975" y="654.55" name="topright"/>
  <outline>
    <contour>
      <point x="444.125" y="0.0" type="curve"/>
      <point x="444.125" y="0.0" type="line"/>
      <point x="513.3375" y="0.0" type="line" smooth="yes"/>
      <point x="527.2875" y="0.0"/>
      <point x="531.525" y="5.0625"/>
      <point x="531.525" y="17.3625" type="curve"/>
      <point x="531.525" y="727.225" type="line" smooth="yes"/>
      <point x="531.525" y="736.9375"/>
      <point x="526.4625" y="742.0"/>
      <point x="518.9875" y="742.0" type="curve"/>
      <point x="438.65" y="742.0" type="line" smooth="yes"/>
      <point x="429.5875" y="742.0"/>
      <point x="425.9375" y="736.9375"/>
      <point x="425.9375" y="727.4625" type="curve"/>
      <point x="425.9375" y="494.2375" type="line" smooth="yes"/>
      <point x="425.9375" y="480.0"/>
      <point x="421.05" y="477.65"/>
      <point x="409.875" y="486.825" type="curve"/>
      <point x="374.75" y="517.425"/>
      <point x="333.8125" y="540.0"/>
      <point x="272.3625" y="540.0" type="curve"/>
      <point x="140.625" y="540.0"/>
      <point x="42.975" y="427.475"/>
      <point x="42.975" y="258.3" type="curve"/>
      <point x="42.975" y="79.65"/>
      <point x="137.3125" y="-10.0"/>
      <point x="261.1875" y="-10.0" type="curve"/>
      <point x="343.1625" y="-10.0"/>
      <point x="389.2125" y="32.9125"/>
      <point x="414.7" y="57.75" type="curve"/>
      <point x="422.2875" y="64.925"/>
      <point x="427.9375" y="63.925"/>
      <point x="427.9375" y="53.75" type="curve"/>
      <point x="427.9375" y="15.95" type="line" smooth="yes"/>
      <point x="427.9375" y="4.825"/>
      <point x="434.65" y="0.0"/>
    </contour>
    <contour>
      <point x="425.525" y="406.2" type="curve"/>
      <point x="425.525" y="406.2" type="line"/>
      <point x="425.525" y="172.475" type="line" smooth="yes"/>
      <point x="425.525" y="121.1375"/>
      <point x="370.4375" y="61.824999999999996"/>
      <point x="297.95" y="61.824999999999996" type="curve"/>
      <point x="216.9875" y="61.824999999999996"/>
      <point x="150.975" y="120.2125"/>
      <point x="150.975" y="261.0625" type="curve"/>
      <point x="150.975" y="398.2125"/>
      <point x="214.525" y="466.525"/>
      <point x="302.65" y="466.525" type="curve"/>
      <point x="351.275" y="466.525"/>
      <point x="388.075" y="444.7125"/>
    </contour>
  </outline>
</glyph>
<glyph name="e" format="2">
  <advance width="582.3625"/>
  <unicode hex="0065"/>
  <anchor x="409.5" y="21.3" name="ogonek"/>
  <anchor x="301.65" y="0.0" name="bottom"/>
  <anchor x="298.65" y="530.0" name="top"/>
  <outline>
    <contour>
      <point x="151.2125" y="228.45" type="curve"/>
      <point x="151.2125" y="228.45" type="line"/>
      <point x="151.2125" y="237.5125"/>
      <point x="154.45" y="243.6875"/>
      <point x="160.925" y="243.6875" type="curve"/>
      <point x="530.675" y="243.6875" type="line" smooth="yes"/>
      <point x="546.5" y="244.1"/>
      <point x="545.7375" y="254.0375"/>
      <point x="545.7375" y="265.75" type="curve"/>
      <point x="545.7375" y="439.1125"/>
      <point x="446.6" y="540.0"/>
      <point x="299.0" y="540.0" type="curve"/>
      <point x="155.1125" y="540.0"/>
      <point x="41.5625" y="431.875"/>
      <point x="41.5625" y="258.9375" type="curve"/>
      <point x="41.5625" y="99.5875"/>
      <point x="150.05" y="-10.0"/>
      <point x="300.65" y="-10.0" type="curve"/>
      <point x="402.075" y="-10.0"/>
      <point x="471.25" y="22.875"/>
      <point x="527.975" y="107.425" type="curve"/>
      <point x="533.45" y="114.3125"/>
      <point x="531.625" y="120.375"/>
      <point x="525.7375" y="123.2" type="curve"/>
      <point x="474.6875" y="147.275" type="line" smooth="yes"/>
      <point x="466.975" y="151.1"/>
      <point x="463.975" y="150.1"/>
      <point x="459.5625" y="144.5125" type="curve"/>
      <point x="420.2625" y="91.525"/>
      <point x="372.8125" y="66.775"/>
      <point x="311.7875" y="66.775" type="curve"/>
      <point x="222.0625" y="66.775"/>
      <point x="151.2125" y="136.9"/>
    </contour>
    <contour>
      <point x="424.0375" y="307.325" type="curve"/>
      <point x="153.0375" y="307.7375" type="line"/>
      <point x="152.0375" y="392.0625"/>
      <point x="207.6625" y="469.4125"/>
      <point x="302.125" y="469.4125" type="curve"/>
      <point x="390.9" y="469.4125"/>
      <point x="441.0375" y="396.675"/>
      <point x="441.0375" y="321.325" type="curve"/>
      <point x="441.0375" y="309.9125"/>
      <point x="437.625" y="307.325"/>
    </contour>
  </outline>
</glyph>
<glyph name="f" format="2">
  <advance width="386.275"/>
  <unicode hex="0066"/>
  <outline>
    <contour>
      <point x="350.325" y="530.0" type="curve"/>
      <point x="350.325" y="530.0" type="line"/>
      <point x="245.6125" y="530.0" type="line" smooth="yes"/>
      <point x="239.375" y="530.0"/>
      <point x="236.1375" y="532.4125"/>
      <point x="236.1375" y="539.475" type="curve"/>
      <point x="236.1375" y="599.775" type="line" smooth="yes"/>
      <point x="236.1375" y="641.2875"/>
      <point x="252.85" y="667.8125"/>
      <point x="291.7125" y="667.8125" type="curve"/>
      <point x="356.45" y="667.8125" type="line" smooth="yes"/>
      <point x="364.3375" y="667.8125"/>
      <point x="368.575" y="672.7"/>
      <point x="368.575" y="680.175" type="curve"/>
      <point x="368.1625" y="727.1625" type="line" smooth="yes"/>
      <point x="368.1625" y="736.7"/>
      <point x="362.8625" y="742.0"/>
      <point x="352.675" y="742.0" type="curve"/>
      <point x="263.7625" y="742.0" type="line" smooth="yes"/>
      <point x="176.75" y="742.0"/>
      <point x="132.2" y="695.05"/>
      <point x="132.2" y="610.9875" type="curve"/>
      <point x="132.2" y="541.5375" type="line" smooth="yes"/>
      <point x="132.2" y="533.2375"/>
      <point x="129.7875" y="530.0"/>
      <point x="122.3125" y="530.0" type="curve"/>
      <point x="36.125" y="530.0" type="line" smooth="yes"/>
      <point x="26.7625" y="530.0"/>
      <point x="22.7" y="524.7"/>
      <point x="22.7" y="517.4" type="curve"/>
      <point x="22.7" y="465.1125" type="line" smooth="yes"/>
      <point x="22.7" y="456.9875"/>
      <point x="27.175" y="453.75"/>
      <point x="35.3" y="453.75" type="curve"/>
      <point x="125.375" y="453.75" type="line" smooth="yes"/>
      <point x="130.2" y="453.75"/>
      <point x="132.2" y="450.75"/>
      <point x="132.2" y="445.5125" type="curve"/>
      <point x="132.2" y="14.125" type="line" smooth="yes"/>
      <point x="132.2" y="4.65"/>
      <point x="136.2625" y="0.0"/>
      <point x="144.325" y="0.0" type="curve"/>
      <point x="225.075" y="0.0" type="line" smooth="yes"/>
      <point x="233.55" y="0.0"/>
      <point x="238.2" y="4.65"/>
      <point x="238.2" y="15.5375" type="curve"/>
      <point x="238.2" y="444.6875" type="line" smooth="yes"/>
      <point x="238.2" y="450.925"/>
      <point x="241.4375" y="453.75"/>
      <point x="247.2625" y="453.75" type="curve"/>
      <point x="350.975" y="453.75" type="line" smooth="yes"/>
      <point x="358.6875" y="453.75"/>
      <point x="363.575" y="456.9875"/>
      <point x="363.575" y="465.1125" type="curve"/>
      <point x="363.575" y="517.4" type="line" smooth="yes"/>
      <point x="363.575" y="524.7"/>
      <point x="359.1" y="530.0"/>
    </contour>
  </outline>
</glyph>
<glyph name="g" format="2">
  <advance width="611.2875"/>
  <unicode hex="0067"/>
  <anchor x="292.4875" y="530.0" name="top"/>
  <outline>
    <contour>
      <point x="566.825" y="543.2" type="curve"/>
      <point x="566.825" y="543.2" type="line"/>
      <point x="533.7125" y="543.2"/>
      <point x="492.9875" y="518.1375"/>
      <point x="470.1" y="493.65" type="curve"/>
      <point x="463.1" y="486.5875"/>
      <point x="454.975" y="486.175"/>
      <point x="446.7375" y="493.0" type="curve"/>
      <point x="413.15" y="520.7625"/>
      <point x="363.9625" y="538.0"/>
      <point x="293.8375" y="538.0" type="curve"/>
      <point x="142.45" y="538.0"/>
      <point x="59.087500000000006" y="472.525"/>
      <point x="59.087500000000006" y="370.65" type="curve"/>
      <point x="59.087500000000006" y="309.0625"/>
      <point x="88.8625" y="265.5875"/>
      <point x="148.4" y="235.825" type="curve"/>
      <point x="156.6375" y="231.0"/>
      <point x="154.925" y="226.2375"/>
      <point x="147.75" y="223.825" type="curve"/>
      <point x="96.1" y="204.9375"/>
      <point x="63.425" y="176.05"/>
      <point x="63.425" y="143.7375" type="curve"/>
      <point x="63.425" y="113.9"/>
      <point x="82.675" y="94.1875"/>
      <point x="112.975" y="80.125" type="curve"/>
      <point x="120.3875" y="76.7125"/>
      <point x="121.2125" y="72.7125"/>
      <point x="112.975" y="69.125" type="curve"/>
      <point x="54.1" y="42.375"/>
      <point x="18.9125" y="9.037500000000001"/>
      <point x="18.9125" y="-37.725" type="curve"/>
      <point x="18.9125" y="-127.0125"/>
      <point x="111.5125" y="-175.0"/>
      <point x="288.2" y="-175.0" type="curve"/>
      <point x="459.825" y="-175.0"/>
      <point x="553.6" y="-110.75"/>
      <point x="553.6" y="-9.925" type="curve"/>
      <point x="553.6" y="70.3125"/>
      <point x="498.7625" y="123.6125"/>
      <point x="374.85" y="130.85" type="curve"/>
      <point x="241.65" y="138.675" type="line" smooth="yes"/>
      <point x="184.45" y="141.85"/>
      <point x="159.4625" y="148.7875"/>
      <point x="159.4625" y="169.075" type="curve"/>
      <point x="159.4625" y="189.775"/>
      <point x="189.9875" y="209.0"/>
      <point x="284.775" y="209.0" type="curve"/>
      <point x="436.9125" y="209.0"/>
      <point x="509.4625" y="281.65"/>
      <point x="509.4625" y="371.0625" type="curve"/>
      <point x="509.4625" y="399.8625"/>
      <point x="500.4125" y="417.9125"/>
      <point x="495.0625" y="432.025" type="curve"/>
      <point x="491.65" y="441.9125"/>
      <point x="496.65" y="449.15"/>
      <point x="515.0625" y="455.025" type="curve"/>
      <point x="529.4125" y="460.3125"/>
      <point x="544.8875" y="461.425"/>
      <point x="565.525" y="460.3625" type="curve"/>
      <point x="579.9375" y="458.8875"/>
      <point x="586.2375" y="465.7125"/>
      <point x="586.2375" y="480.4875" type="curve"/>
      <point x="586.2375" y="525.25" type="line" smooth="yes"/>
      <point x="586.2375" y="537.9625"/>
      <point x="580.175" y="543.2"/>
    </contour>
    <contour>
      <point x="284.5375" y="268.8625" type="curve"/>
      <point x="284.5375" y="268.8625" type="line"/>
      <point x="202.225" y="268.8625"/>
      <point x="156.0125" y="308.15"/>
      <point x="156.0125" y="370.5875" type="curve"/>
      <point x="156.0125" y="435.675"/>
      <point x="202.8125" y="477.3125"/>
      <point x="284.5375" y="477.3125" type="curve"/>
      <point x="369.9125" y="477.3125"/>
      <point x="411.3" y="436.2625"/>
      <point x="411.3" y="370.5875" type="curve"/>
      <point x="411.3" y="307.975"/>
      <point x="371.0875" y="268.8625"/>
    </contour>
    <contour>
      <point x="200.7375" y="53.825" type="curve"/>
      <point x="363.95" y="44.8875" type="line"/>
      <point x="431.0375" y="41.125"/>
      <point x="457.5625" y="14.55"/>
      <point x="457.5625" y="-25.6" type="curve"/>
      <point x="457.5625" y="-85.7375"/>
      <point x="401.4625" y="-115.9625"/>
      <point x="297.6125" y="-115.9625" type="curve"/>
      <point x="169.0875" y="-115.9625"/>
      <point x="110.0" y="-82.8"/>
      <point x="110.0" y="-24.65" type="curve"/>
      <point x="110.0" y="22.7875"/>
      <point x="164.2" y="55.825"/>
    </contour>
  </outline>
</glyph>
<glyph name="h" format="2">
  <advance width="587.9625"/>
  <unicode hex="0068"/>
  <anchor x="374.5" y="530.0" name="top"/>
  <anchor x="304.2375" y="0.0" name="bottom"/>
  <outline>
    <contour>
      <point x="86.8" y="0.0" type="curve"/>
      <point x="86.8" y="0.0" type="line"/>
      <point x="157.8875" y="0.0" type="line" smooth="yes"/>
      <point x="171.3125" y="0.0"/>
      <point x="176.7875" y="5.0625"/>
      <point x="176.7875" y="17.25" type="curve"/>
      <point x="176.7875" y="384.8375" type="line"/>
      <point x="231.625" y="434.7"/>
      <point x="269.1375" y="459.5125"/>
      <point x="323.6375" y="459.5125" type="curve"/>
      <point x="387.95" y="459.5125"/>
      <point x="417.35" y="424.475"/>
      <point x="417.35" y="366.275" type="curve"/>
      <point x="417.35" y="15.6" type="line" smooth="yes"/>
      <point x="417.35" y="4.2375"/>
      <point x="421.5875" y="0.0"/>
      <point x="432.125" y="0.0" type="curve"/>
      <point x="505.6875" y="0.0" type="line" smooth="yes"/>
      <point x="517.875" y="0.0"/>
      <point x="523.35" y="5.887499999999999"/>
      <point x="523.35" y="18.25" type="curve"/>
      <point x="523.35" y="385.575" type="line" smooth="yes"/>
      <point x="523.35" y="480.4125"/>
      <point x="467.525" y="540.0"/>
      <point x="363.825" y="540.0" type="curve"/>
      <point x="299.075" y="540.0"/>
      <point x="252.0125" y="515.95"/>
      <point x="183.85" y="461.5375" type="curve"/>
      <point x="177.025" y="455.7125"/>
      <point x="173.7875" y="457.5375"/>
      <point x="173.7875" y="464.95" type="curve"/>
      <point x="173.7875" y="728.6375" type="line" smooth="yes"/>
      <point x="173.7875" y="737.525"/>
      <point x="170.1375" y="742.0"/>
      <point x="161.6625" y="742.0" type="curve"/>
      <point x="83.325" y="742.0" type="line" smooth="yes"/>
      <point x="74.85" y="742.0"/>
      <point x="70.7875" y="736.525"/>
      <point x="70.7875" y="727.225" type="curve"/>
      <point x="70.7875" y="15.6" type="line" smooth="yes"/>
      <point x="70.7875" y="4.65"/>
      <point x="75.4375" y="0.0"/>
    </contour>
  </outline>
</glyph>
<glyph name="i" format="2">
  <advance width="246.75"/>
  <unicode hex="0069"/>
  <outline>
    <contour>
      <point x="176.375" y="19.0125" type="curve"/>
      <point x="176.375" y="515.875" type="line"/>
      <point x="176.375" y="525.525"/>
      <point x="172.3125" y="530.0"/>
      <point x="163.6625" y="530.0" type="curve"/>
      <point x="83.5" y="530.0" type="line" smooth="yes"/>
      <point x="74.4375" y="530.0"/>
      <point x="70.375" y="525.525"/>
      <point x="70.375" y="514.6375" type="curve"/>
      <point x="70.375" y="16.1875" type="line" smooth="yes"/>
      <point x="70.375" y="4.475"/>
      <point x="74.025" y="0.0"/>
      <point x="87.5625" y="0.0" type="curve"/>
      <point x="155.7125" y="0.0" type="line" smooth="yes"/>
      <point x="171.075" y="0.0"/>
      <point x="176.375" y="4.475"/>
    </contour>
    <contour>
      <point x="179.3125" y="636.4875" type="curve"/>
      <point x="179.3125" y="725.7" type="line"/>
      <point x="179.3125" y="735.7625"/>
      <point x="173.4875" y="742.0"/>
      <point x="164.8375" y="742.0" type="curve"/>
      <point x="82.325" y="742.0" type="line" smooth="yes"/>
      <point x="73.2625" y="742.0"/>
      <point x="67.4375" y="735.7625"/>
      <point x="67.4375" y="724.875" type="curve"/>
      <point x="67.4375" y="634.075" type="line" smooth="yes"/>
      <point x="67.4375" y="622.3625"/>
      <point x="71.0875" y="615.125"/>
      <point x="84.625" y="615.125" type="curve"/>
      <point x="158.65" y="615.125" type="line" smooth="yes"/>
      <point x="174.0125" y="615.125"/>
      <point x="179.3125" y="622.3625"/>
    </contour>
  </outline>
</glyph>
<glyph name="j" format="2">
  <advance width="247.1625"/>
  <unicode hex="006A"/>
  <outline>
    <contour>
      <point x="176.7875" y="-18.0" type="curve"/>
      <point x="176.7875" y="-18.0" type="line"/>
      <point x="176.7875" y="515.875" type="line" smooth="yes"/>
      <point x="176.7875" y="524.9375"/>
      <point x="173.1375" y="530.0"/>
      <point x="164.6625" y="530.0" type="curve"/>
      <point x="84.9125" y="530.0" type="line" smooth="yes"/>
      <point x="75.85" y="530.0"/>
      <point x="70.7875" y="524.9375"/>
      <point x="70.7875" y="514.6375" type="curve"/>
      <point x="70.7875" y="-12.175000000000004" type="line" smooth="yes"/>
      <point x="70.7875" y="-63.800000000000004"/>
      <point x="53.9125" y="-80.025"/>
      <point x="17.4125" y="-82.2625" type="curve"/>
      <point x="-31.1" y="-85.325" type="line" smooth="yes"/>
      <point x="-38.8125" y="-86.5625"/>
      <point x="-42.875" y="-93.1"/>
      <point x="-42.875" y="-99.98750000000001" type="curve"/>
      <point x="-42.4625" y="-154.4" type="line" smooth="yes"/>
      <point x="-42.4625" y="-167.7625"/>
      <point x="-33.9875" y="-170.0"/>
      <point x="23.775" y="-170.0" type="curve"/>
      <point x="135.8125" y="-170.0"/>
      <point x="176.7875" y="-120.625"/>
    </contour>
    <contour>
      <point x="179.725" y="636.4875" type="curve"/>
      <point x="179.725" y="725.7" type="line"/>
      <point x="179.725" y="735.7625"/>
      <point x="174.3125" y="742.0"/>
      <point x="165.25" y="742.0" type="curve"/>
      <point x="83.15" y="742.0" type="line" smooth="yes"/>
      <point x="74.0875" y="742.0"/>
      <point x="67.85" y="735.7625"/>
      <point x="67.85" y="724.875" type="curve"/>
      <point x="67.85" y="634.075" type="line" smooth="yes"/>
      <point x="67.85" y="622.3625"/>
      <point x="71.9125" y="615.125"/>
      <point x="85.45" y="615.125" type="curve"/>
      <point x="159.475" y="615.125" type="line" smooth="yes"/>
      <point x="174.8375" y="615.125"/>
      <point x="179.725" y="622.3625"/>
    </contour>
  </outline>
</glyph>
<glyph name="l" format="2">
  <advance width="247.575"/>
  <unicode hex="006C"/>
  <anchor x="125.4375" y="742.0" name="top"/>
  <anchor x="125.4375" y="0.0" name="bottom"/>
  <anchor x="287.7625" y="654.55" name="topright"/>
  <outline>
    <contour>
      <point x="176.7875" y="19.0125" type="curve"/>
      <point x="176.7875" y="727.4625" type="line"/>
      <point x="176.7875" y="737.525"/>
      <point x="172.725" y="742.0"/>
      <point x="164.075" y="742.0" type="curve"/>
      <point x="85.15" y="742.0" type="line" smooth="yes"/>
      <point x="76.0875" y="742.0"/>
      <point x="72.025" y="737.525"/>
      <point x="72.025" y="726.6375" type="curve"/>
      <point x="69.9625" y="16.1875" type="line" smooth="yes"/>
      <point x="69.9625" y="4.475"/>
      <point x="74.025" y="0.0"/>
      <point x="87.5625" y="0.0" type="curve"/>
      <point x="156.125" y="0.0" type="line" smooth="yes"/>
      <point x="171.4875" y="0.0"/>
      <point x="176.7875" y="4.475"/>
    </contour>
  </outline>
</glyph>
<glyph name="m" format="2">
  <advance width="909.7875"/>
  <unicode hex="006D"/>
  <guideline x="292.8625" y="403.2625" angle="90.0"/>
  <outline>
    <contour>
      <point x="86.3875" y="0.0" type="curve"/>
      <point x="86.3875" y="0.0" type="line"/>
      <point x="157.475" y="0.0" type="line" smooth="yes"/>
      <point x="170.9" y="0.0"/>
      <point x="176.375" y="5.0625"/>
      <point x="176.375" y="17.25" type="curve"/>
      <point x="176.375" y="384.8375" type="line"/>
      <point x="228.8625" y="434.7"/>
      <point x="265.6125" y="459.5125"/>
      <point x="317.35" y="459.5125" type="curve"/>
      <point x="377.55" y="459.5125"/>
      <point x="405.1875" y="424.475"/>
      <point x="405.1875" y="366.275" type="curve"/>
      <point x="405.1875" y="15.6" type="line" smooth="yes"/>
      <point x="405.1875" y="4.2375"/>
      <point x="410.425" y="0.0"/>
      <point x="419.9625" y="0.0" type="curve"/>
      <point x="493.1125" y="0.0" type="line" smooth="yes"/>
      <point x="504.7125" y="0.0"/>
      <point x="510.775" y="5.887499999999999"/>
      <point x="510.775" y="18.25" type="curve"/>
      <point x="510.775" y="368.25" type="line" smooth="yes"/>
      <point x="510.775" y="380.1875"/>
      <point x="514.125" y="387.0125"/>
      <point x="524.0625" y="397.0125" type="curve"/>
      <point x="553.1625" y="424.475"/>
      <point x="598.55" y="459.5125"/>
      <point x="651.75" y="459.5125" type="curve"/>
      <point x="711.5375" y="459.5125"/>
      <point x="739.5875" y="424.475"/>
      <point x="739.5875" y="366.275" type="curve"/>
      <point x="739.5875" y="15.6" type="line" smooth="yes"/>
      <point x="739.5875" y="4.2375"/>
      <point x="743.825" y="0.0"/>
      <point x="754.3625" y="0.0" type="curve"/>
      <point x="827.5125" y="0.0" type="line" smooth="yes"/>
      <point x="839.7" y="0.0"/>
      <point x="845.5875" y="5.887499999999999"/>
      <point x="845.5875" y="18.25" type="curve"/>
      <point x="845.5875" y="384.75" type="line" smooth="yes"/>
      <point x="845.5875" y="480.0"/>
      <point x="788.6375" y="540.0"/>
      <point x="692.7625" y="540.0" type="curve"/>
      <point x="627.475" y="540.0"/>
      <point x="570.8625" y="505.225"/>
      <point x="513.3" y="452.4625" type="curve"/>
      <point x="507.7125" y="447.05"/>
      <point x="501.5375" y="444.7"/>
      <point x="499.5375" y="450.2875" type="curve"/>
      <point x="482.4125" y="499.3625"/>
      <point x="434.525" y="540.4125"/>
      <point x="357.5375" y="540.4125" type="curve"/>
      <point x="291.8375" y="540.4125"/>
      <point x="243.475" y="509.35"/>
      <point x="183.4375" y="458.65" type="curve"/>
      <point x="176.6125" y="452.4125"/>
      <point x="173.375" y="454.65"/>
      <point x="173.375" y="462.0625" type="curve"/>
      <point x="173.375" y="517.05" type="line" smooth="yes"/>
      <point x="173.375" y="525.525"/>
      <point x="169.725" y="530.0"/>
      <point x="161.25" y="530.0" type="curve"/>
      <point x="82.9125" y="530.0" type="line" smooth="yes"/>
      <point x="74.85" y="530.0"/>
      <point x="70.375" y="524.525"/>
      <point x="70.375" y="515.225" type="curve"/>
      <point x="70.375" y="15.6" type="line" smooth="yes"/>
      <point x="70.375" y="4.65"/>
      <point x="75.025" y="0.0"/>
    </contour>
  </outline>
</glyph>
<glyph name="n" format="2">
  <advance width="587.55"/>
  <unicode hex="006E"/>
  <anchor x="303.4125" y="530.0" name="top"/>
  <anchor x="297.5375" y="0.0" name="bottom"/>
  <outline>
    <contour>
      <point x="86.3875" y="0.0" type="curve"/>
      <point x="86.3875" y="0.0" type="line"/>
      <point x="157.475" y="0.0" type="line" smooth="yes"/>
      <point x="170.9" y="0.0"/>
      <point x="176.375" y="5.0625"/>
      <point x="176.375" y="17.25" type="curve"/>
      <point x="176.375" y="384.8375" type="line"/>
      <point x="231.2125" y="434.7"/>
      <point x="268.725" y="459.5125"/>
      <point x="323.225" y="459.5125" type="curve"/>
      <point x="387.5375" y="459.5125"/>
      <point x="417.35" y="424.475"/>
      <point x="417.35" y="366.275" type="curve"/>
      <point x="417.35" y="15.6" type="line" smooth="yes"/>
      <point x="417.35" y="4.2375"/>
      <point x="421.5875" y="0.0"/>
      <point x="432.125" y="0.0" type="curve"/>
      <point x="505.6875" y="0.0" type="line" smooth="yes"/>
      <point x="517.875" y="0.0"/>
      <point x="523.35" y="5.887499999999999"/>
      <point x="523.35" y="18.25" type="curve"/>
      <point x="523.35" y="386.8125" type="line" smooth="yes"/>
      <point x="523.35" y="478.7625"/>
      <point x="464.6375" y="540.0"/>
      <point x="363.4125" y="540.0" type="curve"/>
      <point x="294.95" y="540.0"/>
      <point x="245.825" y="509.35"/>
      <point x="183.85" y="458.65" type="curve"/>
      <point x="177.025" y="452.4125"/>
      <point x="173.7875" y="454.65"/>
      <point x="173.7875" y="462.0625" type="curve"/>
      <point x="173.7875" y="517.05" type="line" smooth="yes"/>
      <point x="173.7875" y="525.525"/>
      <point x="170.1375" y="530.0"/>
      <point x="161.6625" y="530.0" type="curve"/>
      <point x="82.9125" y="530.0" type="line" smooth="yes"/>
      <point x="74.4375" y="530.0"/>
      <point x="70.375" y="524.525"/>
      <point x="70.375" y="515.225" type="curve"/>
      <point x="70.375" y="15.6" type="line" smooth="yes"/>
      <point x="70.375" y="4.65"/>
      <point x="75.025" y="0.0"/>
    </contour>
  </outline>
</glyph>
<glyph name="o" format="2">
  <advance width="598.825"/>
  <unicode hex="006F"/>
  <anchor x="299.4125" y="265.0" name="center"/>
  <anchor x="369.1875" y="10.0" name="ogonek"/>
  <anchor x="300.5875" y="530.0" name="top"/>
  <anchor x="441.375" y="530.0" name="topright"/>
  <anchor x="297.5875" y="0.0" name="bottom"/>
  <outline>
    <contour>
      <point x="299.0" y="-10.0" type="curve"/>
      <point x="299.0" y="-10.0" type="line"/>
      <point x="452.8375" y="-10.0"/>
      <point x="557.2625" y="102.825"/>
      <point x="557.2625" y="263.175" type="curve"/>
      <point x="557.2625" y="424.7625"/>
      <point x="454.075" y="540.0"/>
      <point x="300.0" y="540.0" type="curve"/>
      <point x="149.05" y="540.0"/>
      <point x="41.5625" y="426.65"/>
      <point x="41.5625" y="262.0" type="curve"/>
      <point x="41.5625" y="101.825"/>
      <point x="144.9875" y="-10.0"/>
    </contour>
    <contour>
      <point x="300.5875" y="65.125" type="curve"/>
      <point x="300.5875" y="65.125" type="line"/>
      <point x="205.875" y="65.125"/>
      <point x="149.5625" y="139.0875"/>
      <point x="149.5625" y="264.825" type="curve"/>
      <point x="149.5625" y="390.975"/>
      <point x="205.875" y="466.525"/>
      <point x="300.0" y="466.525" type="curve"/>
      <point x="393.95" y="466.525"/>
      <point x="449.2625" y="391.5625"/>
      <point x="449.2625" y="264.825" type="curve"/>
      <point x="449.2625" y="138.9125"/>
      <point x="395.125" y="65.125"/>
    </contour>
  </outline>
</glyph>
<glyph name="q" format="2">
  <advance width="602.4875"/>
  <unicode hex="0071"/>
  <outline>
    <contour>
      <point x="514.5125" y="530.0" type="curve"/>
      <point x="475.575" y="530.0" type="line"/>
      <point x="463.575" y="530.0"/>
      <point x="459.1" y="524.9375"/>
      <point x="456.45" y="512.4625" type="curve"/>
      <point x="447.5" y="469.4" type="line" smooth="yes"/>
      <point x="445.675" y="460.9875"/>
      <point x="442.2625" y="459.9875"/>
      <point x="436.2625" y="466.4" type="curve"/>
      <point x="410.775" y="495.25"/>
      <point x="366.175" y="540.4125"/>
      <point x="270.85" y="540.4125" type="curve"/>
      <point x="127.975" y="540.4125"/>
      <point x="43.5625" y="431.0"/>
      <point x="43.5625" y="266.35" type="curve"/>
      <point x="43.5625" y="95.4"/>
      <point x="128.675" y="-10.0"/>
      <point x="267.075" y="-10.0" type="curve"/>
      <point x="325.0" y="-10.0"/>
      <point x="375.05" y="12.7625"/>
      <point x="410.4625" y="40.175" type="curve"/>
      <point x="422.6375" y="49.7625"/>
      <point x="426.1125" y="47.5875"/>
      <point x="426.1125" y="31.525" type="curve"/>
      <point x="426.1125" y="-150.2875" type="line" smooth="yes"/>
      <point x="426.1125" y="-160.35"/>
      <point x="430.175" y="-165.0"/>
      <point x="438.2375" y="-165.0" type="curve"/>
      <point x="518.9875" y="-165.0" type="line" smooth="yes"/>
      <point x="527.05" y="-165.0"/>
      <point x="532.1125" y="-160.35"/>
      <point x="532.1125" y="-150.05" type="curve"/>
      <point x="532.1125" y="511.6375" type="line" smooth="yes"/>
      <point x="532.1125" y="524.525"/>
      <point x="527.875" y="530.0"/>
    </contour>
    <contour>
      <point x="426.1125" y="349.2875" type="curve"/>
      <point x="426.1125" y="120.675" type="line"/>
      <point x="393.775" y="83.8125"/>
      <point x="347.275" y="61.824999999999996"/>
      <point x="298.475" y="61.824999999999996" type="curve"/>
      <point x="211.7" y="61.824999999999996"/>
      <point x="151.5625" y="130.375"/>
      <point x="151.5625" y="267.35" type="curve"/>
      <point x="151.5625" y="406.85"/>
      <point x="216.4625" y="470.65"/>
      <point x="298.3625" y="470.65" type="curve"/>
      <point x="372.675" y="470.65"/>
      <point x="426.1125" y="414.15"/>
    </contour>
  </outline>
</glyph>
<glyph name="r" format="2">
  <advance width="396.425"/>
  <unicode hex="0072"/>
  <anchor x="214.9625" y="530.0" name="top"/>
  <anchor x="128.325" y="0.0" name="bottom"/>
  <outline>
    <contour>
      <point x="86.3875" y="0.0" type="curve"/>
      <point x="86.3875" y="0.0" type="line"/>
      <point x="157.475" y="0.0" type="line" smooth="yes"/>
      <point x="170.4875" y="0.0"/>
      <point x="176.375" y="5.0625"/>
      <point x="176.375" y="17.25" type="curve"/>
      <point x="176.375" y="336.125" type="line" smooth="yes"/>
      <point x="176.375" y="389.925"/>
      <point x="252.45" y="443.4875"/>
      <point x="308.2" y="443.4875" type="curve"/>
      <point x="326.025" y="443.4875"/>
      <point x="345.575" y="441.6625"/>
      <point x="361.3" y="438.3625" type="curve"/>
      <point x="368.0125" y="437.125"/>
      <point x="372.4875" y="440.775"/>
      <point x="372.4875" y="447.9" type="curve"/>
      <point x="372.4875" y="525.875" type="line" smooth="yes"/>
      <point x="372.4875" y="535.7625"/>
      <point x="360.8375" y="540.0"/>
      <point x="336.6625" y="540.0" type="curve"/>
      <point x="285.55" y="540.0"/>
      <point x="231.8875" y="509.4"/>
      <point x="183.4375" y="451.0" type="curve"/>
      <point x="177.6125" y="443.7625"/>
      <point x="171.725" y="445.7625"/>
      <point x="171.725" y="454.0" type="curve"/>
      <point x="171.725" y="517.05" type="line" smooth="yes"/>
      <point x="171.725" y="525.525"/>
      <point x="167.6625" y="530.0"/>
      <point x="159.6" y="530.0" type="curve"/>
      <point x="82.9125" y="530.0" type="line" smooth="yes"/>
      <point x="74.4375" y="530.0"/>
      <point x="70.375" y="524.9375"/>
      <point x="70.375" y="515.225" type="curve"/>
      <point x="70.375" y="15.6" type="line" smooth="yes"/>
      <point x="70.375" y="5.0625"/>
      <point x="74.6125" y="0.0"/>
    </contour>
  </outline>
</glyph>
<glyph name="s" format="2">
  <advance width="517.5"/>
  <unicode hex="0073"/>
  <anchor x="248.4375" y="530.0" name="top"/>
  <anchor x="252.725" y="0.0" name="bottom"/>
  <outline>
    <contour>
      <point x="391.2125" y="406.2" type="curve"/>
      <point x="391.2125" y="406.2" type="line"/>
      <point x="395.6875" y="400.725"/>
      <point x="401.75" y="398.6625"/>
      <point x="408.4625" y="402.3125" type="curve"/>
      <point x="459.925" y="429.275" type="line" smooth="yes"/>
      <point x="467.4625" y="433.3375"/>
      <point x="464.75" y="439.875"/>
      <point x="460.5125" y="446.35" type="curve"/>
      <point x="425.6375" y="501.225"/>
      <point x="351.1" y="540.0"/>
      <point x="257.9625" y="540.0" type="curve"/>
      <point x="129.9875" y="540.0"/>
      <point x="46.3375" y="472.75"/>
      <point x="46.75" y="376.3875" type="curve"/>
      <point x="47.1625" y="309.475"/>
      <point x="88.1875" y="262.4125"/>
      <point x="188.6" y="237.3625" type="curve"/>
      <point x="291.1875" y="211.1375" type="line" smooth="yes"/>
      <point x="356.2125" y="193.5625"/>
      <point x="379.4875" y="170.8125"/>
      <point x="379.4875" y="139.0125" type="curve"/>
      <point x="379.4875" y="92.275"/>
      <point x="324.75" y="63.475"/>
      <point x="254.55" y="63.0625" type="curve"/>
      <point x="172.2" y="62.2375"/>
      <point x="125.225" y="97.0"/>
      <point x="95.175" y="142.975" type="curve"/>
      <point x="91.1125" y="148.0375"/>
      <point x="85.875" y="148.8625"/>
      <point x="77.1" y="144.3875" type="curve"/>
      <point x="28.2875" y="118.0125" type="line" smooth="yes"/>
      <point x="21.8125" y="114.1875"/>
      <point x="22.225" y="107.475"/>
      <point x="26.2875" y="100.175" type="curve"/>
      <point x="59.2875" y="36.65"/>
      <point x="144.35" y="-10.0"/>
      <point x="254.1375" y="-10.0" type="curve"/>
      <point x="382.9875" y="-10.0"/>
      <point x="477.175" y="52.65"/>
      <point x="477.175" y="150.6125" type="curve"/>
      <point x="477.175" y="215.8625"/>
      <point x="436.7" y="269.7625"/>
      <point x="339.725" y="295.175" type="curve"/>
      <point x="216.6875" y="330.1" type="line" smooth="yes"/>
      <point x="156.0125" y="347.675"/>
      <point x="143.2" y="371.1875"/>
      <point x="143.2" y="394.2875" type="curve"/>
      <point x="143.2" y="440.9625"/>
      <point x="192.175" y="469.825"/>
      <point x="256.55" y="469.825" type="curve"/>
      <point x="319.65" y="469.825"/>
      <point x="364.75" y="443.3"/>
    </contour>
  </outline>
</glyph>
<glyph name="t" format="2">
  <advance width="400.9"/>
  <unicode hex="0074"/>
  <anchor x="187.8125" y="296.1375" name="center"/>
  <anchor x="245.85" y="0.0" name="bottom"/>
  <anchor x="379.3125" y="779.75" name="topright"/>
  <outline>
    <contour>
      <point x="236.3375" y="453.75" type="curve"/>
      <point x="356.3625" y="453.75" type="line"/>
      <point x="366.3125" y="453.75"/>
      <point x="370.2" y="458.6375"/>
      <point x="370.2" y="466.35" type="curve"/>
      <point x="370.2" y="519.05" type="line" smooth="yes"/>
      <point x="370.2" y="526.7625"/>
      <point x="365.3125" y="530.4125"/>
      <point x="357.6" y="530.4125" type="curve"/>
      <point x="237.9875" y="530.4125" type="line" smooth="yes"/>
      <point x="232.1625" y="530.4125"/>
      <point x="229.3375" y="533.2375"/>
      <point x="229.3375" y="539.0625" type="curve"/>
      <point x="229.3375" y="694.4625" type="line" smooth="yes"/>
      <point x="229.3375" y="704.9375"/>
      <point x="224.275" y="710.0"/>
      <point x="216.2125" y="710.0" type="curve"/>
      <point x="147.35" y="710.0" type="line" smooth="yes"/>
      <point x="138.875" y="710.0"/>
      <point x="135.6375" y="705.35"/>
      <point x="135.225" y="695.875" type="curve"/>
      <point x="123.3375" y="539.0625" type="line" smooth="yes"/>
      <point x="122.925" y="533.4125"/>
      <point x="120.1" y="530.0"/>
      <point x="114.8625" y="530.0" type="curve"/>
      <point x="35.3" y="530.0" type="line" smooth="yes"/>
      <point x="27.175" y="530.0"/>
      <point x="22.7" y="526.35"/>
      <point x="22.7" y="518.6375" type="curve"/>
      <point x="22.7" y="466.35" type="line" smooth="yes"/>
      <point x="22.7" y="458.6375"/>
      <point x="26.7625" y="453.75"/>
      <point x="36.125" y="453.75" type="curve"/>
      <point x="110.5625" y="453.75" type="line" smooth="yes"/>
      <point x="118.45" y="453.75"/>
      <point x="120.8625" y="450.1"/>
      <point x="120.8625" y="442.2125" type="curve"/>
      <point x="120.8625" y="124.775" type="line" smooth="yes"/>
      <point x="120.8625" y="39.3625"/>
      <point x="164.425" y="0.0"/>
      <point x="251.025" y="0.0" type="curve"/>
      <point x="277.8125" y="0.0"/>
      <point x="326.75" y="1.0"/>
      <point x="352.5375" y="5.2375" type="curve"/>
      <point x="362.725" y="7.475"/>
      <point x="368.025" y="12.1875"/>
      <point x="368.025" y="21.725" type="curve"/>
      <point x="368.4375" y="64.7125" type="line" smooth="yes"/>
      <point x="368.4375" y="72.1875"/>
      <point x="363.7875" y="77.07499999999999"/>
      <point x="356.3125" y="77.07499999999999" type="curve"/>
      <point x="292.1625" y="77.07499999999999" type="line" smooth="yes"/>
      <point x="248.45" y="77.07499999999999"/>
      <point x="226.8625" y="93.3125"/>
      <point x="226.8625" y="151.225" type="curve"/>
      <point x="226.8625" y="444.275" type="line" smooth="yes"/>
      <point x="226.8625" y="450.925"/>
      <point x="230.5125" y="453.75"/>
    </contour>
  </outline>
</glyph>
<glyph name="u" format="2">
  <advance width="583.375"/>
  <unicode hex="0075"/>
  <anchor x="496.3375" y="10.5875" name="ogonek"/>
  <anchor x="280.7875" y="530.0" name="top"/>
  <anchor x="543.9875" y="530.0" name="topright"/>
  <anchor x="281.2" y="0.0" name="bottom"/>
  <outline>
    <contour>
      <point x="262.0875" y="70.07499999999999" type="curve"/>
      <point x="262.0875" y="70.07499999999999" type="line"/>
      <point x="204.8875" y="70.07499999999999"/>
      <point x="169.6125" y="108.6375"/>
      <point x="169.6125" y="167.25" type="curve"/>
      <point x="169.6125" y="513.9875" type="line" smooth="yes"/>
      <point x="169.6125" y="525.35"/>
      <point x="165.375" y="530.0"/>
      <point x="154.8375" y="530.0" type="curve"/>
      <point x="81.6875" y="530.0" type="line" smooth="yes"/>
      <point x="69.0875" y="530.0"/>
      <point x="63.6125" y="524.1125"/>
      <point x="63.6125" y="511.75" type="curve"/>
      <point x="63.6125" y="145.25" type="line" smooth="yes"/>
      <point x="63.6125" y="50.0"/>
      <point x="130.725" y="-10.0"/>
      <point x="221.425" y="-10.0" type="curve"/>
      <point x="279.6125" y="-10.0"/>
      <point x="332.025" y="10.475"/>
      <point x="400.35" y="72.1125" type="curve"/>
      <point x="406.7625" y="77.9375"/>
      <point x="410.0" y="76.1125"/>
      <point x="410.0" y="68.7" type="curve"/>
      <point x="410.0" y="12.95" type="line" smooth="yes"/>
      <point x="410.0" y="4.0625"/>
      <point x="414.0625" y="0.0"/>
      <point x="422.125" y="0.0" type="curve"/>
      <point x="499.6375" y="0.0" type="line" smooth="yes"/>
      <point x="508.1125" y="0.0"/>
      <point x="512.175" y="5.0625"/>
      <point x="512.175" y="14.3625" type="curve"/>
      <point x="513.825" y="513.9875" type="line" smooth="yes"/>
      <point x="513.825" y="524.9375"/>
      <point x="509.175" y="530.0"/>
      <point x="497.8125" y="530.0" type="curve"/>
      <point x="425.9" y="530.0" type="line" smooth="yes"/>
      <point x="412.8875" y="530.0"/>
      <point x="407.0" y="524.525"/>
      <point x="407.0" y="512.75" type="curve"/>
      <point x="407.0" y="148.675" type="line"/>
      <point x="361.3875" y="101.0"/>
      <point x="314.4125" y="70.07499999999999"/>
    </contour>
  </outline>
</glyph>
<glyph name="v" format="2">
  <advance width="555.1625"/>
  <unicode hex="0076"/>
  <outline>
    <contour>
      <point x="517.6375" y="530.0" type="curve"/>
      <point x="517.6375" y="530.0" type="line"/>
      <point x="458.5125" y="530.0" type="line" smooth="yes"/>
      <point x="450.0375" y="530.0"/>
      <point x="444.5625" y="525.1125"/>
      <point x="441.325" y="517.6375" type="curve"/>
      <point x="298.75" y="156.0375" type="line" smooth="yes"/>
      <point x="292.75" y="142.0375"/>
      <point x="287.75" y="142.45"/>
      <point x="283.1625" y="155.0375" type="curve"/>
      <point x="139.35" y="517.05" type="line" smooth="yes"/>
      <point x="136.525" y="525.1125"/>
      <point x="130.6375" y="530.0"/>
      <point x="121.57499999999999" y="530.0" type="curve"/>
      <point x="38.9375" y="530.0" type="line" smooth="yes"/>
      <point x="28.225" y="530.0"/>
      <point x="23.1625" y="521.4625"/>
      <point x="26.4" y="512.1625" type="curve"/>
      <point x="227.45" y="16.1875" type="line" smooth="yes"/>
      <point x="232.1" y="5.0625"/>
      <point x="240.3375" y="0.0"/>
      <point x="254.4625" y="0.0" type="curve"/>
      <point x="301.4625" y="0.0" type="line" smooth="yes"/>
      <point x="315.0" y="0.0"/>
      <point x="322.65" y="5.0625"/>
      <point x="327.3" y="16.775" type="curve"/>
      <point x="528.7625" y="512.75" type="line" smooth="yes"/>
      <point x="532.0" y="521.4625"/>
      <point x="527.7625" y="530.0"/>
    </contour>
  </outline>
</glyph>
<glyph name="w" format="2">
  <advance width="803.2125"/>
  <unicode hex="0077"/>
  <anchor x="403.8375" y="530.0" name="top"/>
  <outline>
    <contour>
      <point x="762.75" y="530.0" type="curve"/>
      <point x="762.75" y="530.0" type="line"/>
      <point x="711.5125" y="530.0" type="line" smooth="yes"/>
      <point x="703.0375" y="530.0"/>
      <point x="696.3875" y="525.1125"/>
      <point x="693.15" y="517.6375" type="curve"/>
      <point x="586.9625" y="162.46249999999998" type="line" smooth="yes"/>
      <point x="582.55" y="148.46249999999998"/>
      <point x="576.725" y="148.875"/>
      <point x="573.1375" y="161.46249999999998" type="curve"/>
      <point x="461.375" y="517.05" type="line" smooth="yes"/>
      <point x="458.9625" y="525.1125"/>
      <point x="452.6625" y="530.0"/>
      <point x="444.0125" y="530.0" type="curve"/>
      <point x="385.5375" y="530.0" type="line" smooth="yes"/>
      <point x="377.65" y="530.0"/>
      <point x="371.35" y="525.7"/>
      <point x="368.9375" y="518.225" type="curve"/>
      <point x="261.05" y="162.46249999999998" type="line" smooth="yes"/>
      <point x="256.6375" y="148.46249999999998"/>
      <point x="250.225" y="148.875"/>
      <point x="246.6375" y="161.46249999999998" type="curve"/>
      <point x="136.5125" y="517.05" type="line" smooth="yes"/>
      <point x="134.1" y="525.1125"/>
      <point x="127.8" y="530.0"/>
      <point x="118.7375" y="530.0" type="curve"/>
      <point x="41.2875" y="530.0" type="line" smooth="yes"/>
      <point x="30.575" y="530.0"/>
      <point x="25.512500000000003" y="521.4625"/>
      <point x="28.75" y="512.1625" type="curve"/>
      <point x="187.6375" y="14.95" type="line" smooth="yes"/>
      <point x="190.875" y="4.2375"/>
      <point x="197.7" y="0.0"/>
      <point x="209.7625" y="0.0" type="curve"/>
      <point x="271.525" y="0.0" type="line" smooth="yes"/>
      <point x="283.0" y="0.0"/>
      <point x="288.0" y="3.825"/>
      <point x="290.825" y="13.8875" type="curve"/>
      <point x="396.075" y="357.725" type="line" smooth="yes"/>
      <point x="399.4875" y="369.375"/>
      <point x="404.1375" y="369.9625"/>
      <point x="408.55" y="357.725" type="curve"/>
      <point x="517.2" y="14.95" type="line" smooth="yes"/>
      <point x="520.4375" y="4.2375"/>
      <point x="527.2625" y="0.0"/>
      <point x="539.7375" y="0.0" type="curve"/>
      <point x="598.5" y="0.0" type="line" smooth="yes"/>
      <point x="609.5625" y="0.0"/>
      <point x="615.15" y="3.825"/>
      <point x="617.975" y="13.8875" type="curve"/>
      <point x="774.4625" y="512.75" type="line" smooth="yes"/>
      <point x="777.525" y="521.4625"/>
      <point x="772.875" y="530.0"/>
    </contour>
  </outline>
</glyph>
<glyph name="x" format="2">
  <advance width="559.1375"/>
  <unicode hex="0078"/>
  <outline>
    <contour>
      <point x="525.85" y="24.7875" type="curve"/>
      <point x="525.85" y="24.7875" type="line"/>
      <point x="346.1" y="270.1875" type="line" smooth="yes"/>
      <point x="339.625" y="278.9"/>
      <point x="338.2125" y="285.3125"/>
      <point x="345.6875" y="295.025" type="curve"/>
      <point x="508.7125" y="513.3375" type="line" smooth="yes"/>
      <point x="515.0125" y="521.875"/>
      <point x="514.425" y="530.0"/>
      <point x="500.5875" y="530.0" type="curve"/>
      <point x="436.875" y="530.0" type="line" smooth="yes"/>
      <point x="423.275" y="530.0"/>
      <point x="418.3875" y="526.9375"/>
      <point x="412.9125" y="518.8125" type="curve"/>
      <point x="295.3375" y="352.075" type="line" smooth="yes"/>
      <point x="289.5125" y="343.0125"/>
      <point x="284.5125" y="344.425"/>
      <point x="279.6875" y="352.075" type="curve"/>
      <point x="157.7" y="518.8125" type="line" smooth="yes"/>
      <point x="152.225" y="526.9375"/>
      <point x="147.3375" y="530.0"/>
      <point x="134.325" y="530.0" type="curve"/>
      <point x="50.525" y="530.0" type="line" smooth="yes"/>
      <point x="37.5125" y="530.0"/>
      <point x="33.45" y="518.8125"/>
      <point x="39.75" y="510.275" type="curve"/>
      <point x="210.2" y="279.3" type="line" smooth="yes"/>
      <point x="217.0875" y="269.5875"/>
      <point x="218.0875" y="263.7625"/>
      <point x="210.6125" y="254.4625" type="curve"/>
      <point x="34.35" y="29.2625" type="line" smooth="yes"/>
      <point x="17.6875" y="7.125"/>
      <point x="26.8125" y="0.0"/>
      <point x="43.0625" y="0.0" type="curve"/>
      <point x="101.0625" y="0.0" type="line" smooth="yes"/>
      <point x="112.8375" y="0.0"/>
      <point x="120.55" y="3.65"/>
      <point x="125.4375" y="11.1875" type="curve"/>
      <point x="259.25" y="190.225" type="line" smooth="yes"/>
      <point x="267.55" y="202.175"/>
      <point x="270.725" y="201.7625"/>
      <point x="279.025" y="189.8125" type="curve"/>
      <point x="408.1375" y="11.1875" type="line" smooth="yes"/>
      <point x="413.025" y="3.65"/>
      <point x="421.325" y="0.0"/>
      <point x="432.5125" y="0.0" type="curve"/>
      <point x="520.9625" y="0.0" type="line" smooth="yes"/>
      <point x="537.0375" y="0.0"/>
      <point x="539.45" y="6.3"/>
    </contour>
  </outline>
</glyph>
<glyph name="y" format="2">
  <advance width="541.4125"/>
  <unicode hex="0079"/>
  <anchor x="284.2875" y="530.0" name="top"/>
  <anchor x="377.675" y="0.0" name="bottom"/>
  <outline>
    <contour>
      <point x="105.525" y="-165.0" type="curve"/>
      <point x="105.525" y="-165.0" type="line"/>
      <point x="203.5875" y="-165.0"/>
      <point x="256.7125" y="-140.7"/>
      <point x="300.45" y="-32.45" type="curve"/>
      <point x="515.425" y="512.75" type="line" smooth="yes"/>
      <point x="519.075" y="520.875"/>
      <point x="514.425" y="530.0"/>
      <point x="504.3" y="530.0" type="curve"/>
      <point x="445.175" y="530.0" type="line" smooth="yes"/>
      <point x="437.2875" y="530.0"/>
      <point x="431.8125" y="525.1125"/>
      <point x="428.575" y="517.6375" type="curve"/>
      <point x="293.225" y="159.55" type="line" smooth="yes"/>
      <point x="287.225" y="144.375"/>
      <point x="280.225" y="145.2"/>
      <point x="275.6375" y="157.2" type="curve"/>
      <point x="138.35" y="517.05" type="line" smooth="yes"/>
      <point x="135.525" y="525.1125"/>
      <point x="129.05" y="530.0"/>
      <point x="120.57499999999999" y="530.0" type="curve"/>
      <point x="38.525" y="530.0" type="line" smooth="yes"/>
      <point x="26.6375" y="530.0"/>
      <point x="21.75" y="520.875"/>
      <point x="25.9875" y="510.9875" type="curve"/>
      <point x="217.05" y="34.525" type="line" smooth="yes"/>
      <point x="233.5125" y="-7.100000000000001"/>
      <point x="193.9375" y="-84.86250000000001"/>
      <point x="137.95" y="-84.86250000000001" type="curve"/>
      <point x="73.4125" y="-84.86250000000001" type="line" smooth="yes"/>
      <point x="50.2375" y="-84.86250000000001"/>
      <point x="44.825" y="-90.575"/>
      <point x="44.825" y="-99.1625" type="curve"/>
      <point x="44.825" y="-150.05" type="line" smooth="yes"/>
      <point x="44.825" y="-164.35"/>
      <point x="65.2875" y="-165.0"/>
    </contour>
  </outline>
</glyph>
<glyph name="z" format="2">
  <advance width="493.475"/>
  <unicode hex="007A"/>
  <anchor x="258.025" y="530.0" name="top"/>
  <outline>
    <contour>
      <point x="43.2375" y="0.0" type="curve"/>
      <point x="43.2375" y="0.0" type="line"/>
      <point x="446.2375" y="0.0" type="line" smooth="yes"/>
      <point x="456.775" y="0.0"/>
      <point x="461.25" y="5.3"/>
      <point x="461.25" y="13.774999999999999" type="curve"/>
      <point x="461.25" y="60.349999999999994" type="line" smooth="yes"/>
      <point x="461.25" y="68.475"/>
      <point x="456.3625" y="71.7125"/>
      <point x="448.2375" y="71.7125" type="curve"/>
      <point x="171.5625" y="71.7125" type="line" smooth="yes"/>
      <point x="163.4375" y="71.7125"/>
      <point x="161.02499999999998" y="75.775"/>
      <point x="167.08749999999998" y="83.6625" type="curve"/>
      <point x="445.6" y="453.25" type="line" smooth="yes"/>
      <point x="453.4875" y="463.7875"/>
      <point x="456.725" y="471.6125"/>
      <point x="456.725" y="482.5" type="curve"/>
      <point x="456.725" y="518.6375" type="line" smooth="yes"/>
      <point x="456.725" y="525.525"/>
      <point x="452.6625" y="530.0"/>
      <point x="445.95" y="530.0" type="curve"/>
      <point x="61.9375" y="530.0" type="line" smooth="yes"/>
      <point x="55.05" y="530.0"/>
      <point x="50.9875" y="525.525"/>
      <point x="50.9875" y="517.6375" type="curve"/>
      <point x="50.9875" y="472.7125" type="line" smooth="yes"/>
      <point x="50.9875" y="461.7625"/>
      <point x="54.225" y="459.1125"/>
      <point x="64.175" y="459.1125" type="curve"/>
      <point x="312.9125" y="459.1125" type="line" smooth="yes"/>
      <point x="321.625" y="459.1125"/>
      <point x="324.45" y="455.2875"/>
      <point x="318.8" y="447.8125" type="curve"/>
      <point x="42.35" y="79.2875" type="line" smooth="yes"/>
      <point x="30.9875" y="64.275"/>
      <point x="28.9875" y="59.275"/>
      <point x="28.9875" y="46.5" type="curve"/>
      <point x="28.9875" y="14.425" type="line" smooth="yes"/>
      <point x="28.9875" y="3.2375"/>
      <point x="32.05" y="0.0"/>
    </contour>
  </outline>
</glyph>
<glyph name="braceleft" format="2">
  <advance width="324.3375"/>
  <unicode hex="007B"/>
  <outline>
    <contour>
      <point x="116.0" y="633.025" type="curve"/>
      <point x="116.0" y="633.025" type="line"/>
      <point x="116.0" y="421.475" type="line" smooth="yes"/>
      <point x="116.0" y="361.475"/>
      <point x="82.3" y="322.2"/>
      <point x="7.3" y="321.6125" type="curve"/>
      <point x="3.2375" y="321.6125"/>
      <point x="0.0" y="318.375"/>
      <point x="0.0" y="309.8375" type="curve"/>
      <point x="0.0" y="272.1125" type="line" smooth="yes"/>
      <point x="0.0" y="263.575"/>
      <point x="3.2375" y="260.3375"/>
      <point x="7.3" y="260.3375" type="curve"/>
      <point x="81.3" y="260.3375"/>
      <point x="116.0" y="212.475"/>
      <point x="116.0" y="164.475" type="curve"/>
      <point x="116.0" y="-54.85" type="line" smooth="yes"/>
      <point x="116.0" y="-124.0"/>
      <point x="175.2875" y="-165.0"/>
      <point x="255.525" y="-165.0" type="curve"/>
      <point x="297.2125" y="-165.0" type="line" smooth="yes"/>
      <point x="306.1" y="-165.0"/>
      <point x="309.3375" y="-161.7625"/>
      <point x="309.3375" y="-152.875" type="curve"/>
      <point x="309.3375" y="-110.425" type="line" smooth="yes"/>
      <point x="309.3375" y="-102.95"/>
      <point x="305.1" y="-99.125"/>
      <point x="297.2125" y="-99.125" type="curve"/>
      <point x="272.025" y="-99.125" type="line" smooth="yes"/>
      <point x="222.025" y="-99.125"/>
      <point x="207.4375" y="-82.95"/>
      <point x="207.4375" y="-44.95" type="curve"/>
      <point x="207.4375" y="172.3125" type="line" smooth="yes"/>
      <point x="206.2" y="255.725"/>
      <point x="154.125" y="283.475"/>
      <point x="105.1875" y="287.475" type="curve"/>
      <point x="96.1875" y="288.475"/>
      <point x="97.1875" y="293.0625"/>
      <point x="105.1875" y="294.0625" type="curve"/>
      <point x="155.125" y="299.475"/>
      <point x="206.2" y="332.225"/>
      <point x="207.4375" y="407.8625" type="curve"/>
      <point x="207.4375" y="623.125" type="line" smooth="yes"/>
      <point x="207.4375" y="655.5875"/>
      <point x="218.0125" y="676.125"/>
      <point x="271.4375" y="676.125" type="curve"/>
      <point x="299.0375" y="676.125" type="line" smooth="yes"/>
      <point x="305.1" y="676.125"/>
      <point x="309.3375" y="679.3625"/>
      <point x="309.3375" y="685.425" type="curve"/>
      <point x="309.3375" y="733.7" type="line" smooth="yes"/>
      <point x="309.3375" y="739.7625"/>
      <point x="306.5125" y="742.0"/>
      <point x="299.0375" y="742.0" type="curve"/>
      <point x="253.7" y="742.0" type="line" smooth="yes"/>
      <point x="177.6375" y="742.0"/>
      <point x="116.0" y="701.9375"/>
    </contour>
  </outline>
</glyph>
<glyph name="bar" format="2">
  <advance width="257.925"/>
  <unicode hex="007C"/>
  <outline>
    <contour>
      <point x="104.675" y="-165.0" type="curve"/>
      <point x="157.1375" y="-165.0" type="line"/>
      <point x="165.025" y="-165.0"/>
      <point x="169.5" y="-160.9375"/>
      <point x="169.5" y="-152.875" type="curve"/>
      <point x="169.5" y="833.2875" type="line" smooth="yes"/>
      <point x="169.5" y="842.35"/>
      <point x="165.025" y="847.0"/>
      <point x="155.3125" y="847.0" type="curve"/>
      <point x="102.2625" y="847.0" type="line" smooth="yes"/>
      <point x="92.9" y="847.0"/>
      <point x="88.425" y="842.7625"/>
      <point x="88.425" y="832.1625" type="curve"/>
      <point x="89.0125" y="-148.45" type="line" smooth="yes"/>
      <point x="89.0125" y="-159.7"/>
      <point x="93.4875" y="-165.0"/>
    </contour>
  </outline>
</glyph>
<glyph name="asciitilde" format="2">
  <advance width="580.775"/>
  <unicode hex="007E"/>
  <outline>
    <contour>
      <point x="517.1375" y="372.4125" type="curve"/>
      <point x="517.1375" y="372.4125" type="line"/>
      <point x="521.9625" y="379.0625"/>
      <point x="523.375" y="385.6"/>
      <point x="519.725" y="392.075" type="curve"/>
      <point x="501.4125" y="426.6875" type="line" smooth="yes"/>
      <point x="495.9375" y="436.575"/>
      <point x="489.6375" y="437.4"/>
      <point x="482.9875" y="429.1" type="curve"/>
      <point x="463.1" y="404.85"/>
      <point x="435.325" y="381.725"/>
      <point x="389.0375" y="381.725" type="curve"/>
      <point x="321.3375" y="381.725"/>
      <point x="277.6375" y="437.45"/>
      <point x="199.0375" y="437.45" type="curve"/>
      <point x="140.0875" y="437.45"/>
      <point x="102.9" y="407.4375"/>
      <point x="64.525" y="371.4125" type="curve"/>
      <point x="58.225" y="365.7"/>
      <point x="56.9875" y="361.225"/>
      <point x="60.225" y="354.575" type="curve"/>
      <point x="81.6625" y="315.3625" type="line" smooth="yes"/>
      <point x="85.4875" y="307.95"/>
      <point x="89.7875" y="307.95"/>
      <point x="95.2" y="313.775" type="curve"/>
      <point x="120.5625" y="339.7875"/>
      <point x="151.3875" y="366.2125"/>
      <point x="200.15" y="366.2125" type="curve"/>
      <point x="268.9125" y="366.2125"/>
      <point x="308.45" y="310.6625"/>
      <point x="390.1" y="310.6625" type="curve"/>
      <point x="447.0375" y="310.6625"/>
      <point x="493.0" y="335.9625"/>
    </contour>
  </outline>
</glyph>
<glyph name="exclamdown" format="2">
  <advance width="250.5625"/>
  <unicode hex="00A1"/>
  <outline>
    <contour>
      <point x="187.0125" y="415.275" type="curve"/>
      <point x="187.0125" y="415.275" type="line"/>
      <point x="187.0125" y="511.575" type="line" smooth="yes"/>
      <point x="187.0125" y="524.9375"/>
      <point x="181.5375" y="530.0"/>
      <point x="165.7625" y="530.0" type="curve"/>
      <point x="80.975" y="530.0" type="line" smooth="yes"/>
      <point x="68.025" y="530.0"/>
      <point x="63.962500000000006" y="524.9375"/>
      <point x="63.962500000000006" y="513.8125" type="curve"/>
      <point x="63.962500000000006" y="416.6875" type="line" smooth="yes"/>
      <point x="63.962500000000006" y="406.3875"/>
      <point x="69.025" y="402.325"/>
      <point x="75.9125" y="402.325" type="curve"/>
      <point x="175.475" y="402.325" type="line" smooth="yes"/>
      <point x="183.3625" y="402.325"/>
      <point x="187.0125" y="406.3875"/>
    </contour>
    <contour>
      <point x="188.375" y="-152.8125" type="curve"/>
      <point x="188.375" y="-152.8125" type="line"/>
      <point x="162.1125" y="317.075" type="line" smooth="yes"/>
      <point x="161.2875" y="328.85"/>
      <point x="156.225" y="333.325"/>
      <point x="142.625" y="333.325" type="curve"/>
      <point x="105.9375" y="333.325" type="line" smooth="yes"/>
      <point x="94.1625" y="333.325"/>
      <point x="91.75" y="328.85"/>
      <point x="90.5125" y="318.9" type="curve"/>
      <point x="64.0125" y="-151.4" type="line" smooth="yes"/>
      <point x="63.1875" y="-160.525"/>
      <point x="68.075" y="-165.0"/>
      <point x="74.7875" y="-165.0" type="curve"/>
      <point x="177.425" y="-165.0" type="line" smooth="yes"/>
      <point x="184.3125" y="-165.0"/>
      <point x="189.2" y="-159.9375"/>
    </contour>
  </outline>
</glyph>
<glyph name="cent" format="2">
  <advance width="558.0"/>
  <unicode hex="00A2"/>
  <outline>
    <contour>
      <point x="331.4" y="19.6" type="curve"/>
      <point x="331.4" y="19.6" type="line"/>
      <point x="331.4" y="136.5125" type="line" smooth="yes"/>
      <point x="331.4" y="146.4625"/>
      <point x="327.3375" y="151.9375"/>
      <point x="315.5625" y="151.9375" type="curve"/>
      <point x="273.825" y="151.9375" type="line" smooth="yes"/>
      <point x="261.225" y="151.9375"/>
      <point x="255.75" y="146.4625"/>
      <point x="255.75" y="134.6875" type="curve"/>
      <point x="255.75" y="17.775" type="line" smooth="yes"/>
      <point x="255.75" y="6.0625"/>
      <point x="260.4" y="0.0"/>
      <point x="273.9375" y="0.0" type="curve"/>
      <point x="310.975" y="0.0" type="line" smooth="yes"/>
      <point x="325.3375" y="0.0"/>
      <point x="331.4" y="6.0625"/>
    </contour>
    <contour>
      <point x="331.4" y="609.6625" type="curve"/>
      <point x="331.4" y="609.6625" type="line"/>
      <point x="331.4" y="726.575" type="line" smooth="yes"/>
      <point x="331.4" y="736.525"/>
      <point x="327.3375" y="742.0"/>
      <point x="315.5625" y="742.0" type="curve"/>
      <point x="273.825" y="742.0" type="line" smooth="yes"/>
      <point x="261.225" y="742.0"/>
      <point x="255.75" y="736.525"/>
      <point x="255.75" y="724.75" type="curve"/>
      <point x="255.75" y="607.8375" type="line" smooth="yes"/>
      <point x="255.75" y="596.125"/>
      <point x="260.4" y="590.0625"/>
      <point x="273.9375" y="590.0625" type="curve"/>
      <point x="310.975" y="590.0625" type="line" smooth="yes"/>
      <point x="325.3375" y="590.0625"/>
      <point x="331.4" y="596.125"/>
    </contour>
    <component base="c" yOffset="111.0"/>
  </outline>
</glyph>
<glyph name="sterling" format="2">
  <advance width="624.6375"/>
  <unicode hex="00A3"/>
  <outline>
    <contour>
      <point x="24.125" y="0.0" type="curve"/>
      <point x="24.125" y="0.0" type="line"/>
      <point x="371.325" y="0.0" type="line" smooth="yes"/>
      <point x="474.5875" y="0.0"/>
      <point x="550.55" y="48.025"/>
      <point x="580.1375" y="140.475" type="curve"/>
      <point x="582.55" y="148.1875"/>
      <point x="577.9" y="153.075"/>
      <point x="569.3625" y="155.4875" type="curve"/>
      <point x="505.7" y="170.675" type="line" smooth="yes"/>
      <point x="498.1625" y="172.5"/>
      <point x="492.3375" y="170.0875"/>
      <point x="489.5125" y="163.2" type="curve"/>
      <point x="468.225" y="110.7375"/>
      <point x="428.8875" y="91.15"/>
      <point x="364.725" y="91.15" type="curve"/>
      <point x="207.7625" y="91.15" type="line" smooth="yes"/>
      <point x="200.2875" y="91.15"/>
      <point x="198.05" y="94.38749999999999"/>
      <point x="204.525" y="101.44999999999999" type="curve"/>
      <point x="221.58749999999998" y="118.8625"/>
      <point x="250.275" y="159.0125"/>
      <point x="253.9875" y="236.5375" type="curve"/>
      <point x="256.875" y="271.875"/>
      <point x="255.58749999999998" y="305.75"/>
      <point x="250.8875" y="343.75" type="curve"/>
      <point x="250.3" y="349.575"/>
      <point x="253.3" y="352.4"/>
      <point x="259.5375" y="352.4" type="curve"/>
      <point x="394.55" y="352.4" type="line" smooth="yes"/>
      <point x="400.2" y="352.4"/>
      <point x="403.025" y="355.225"/>
      <point x="403.025" y="360.875" type="curve"/>
      <point x="403.025" y="409.7375" type="line" smooth="yes"/>
      <point x="403.025" y="414.3875"/>
      <point x="400.2" y="417.2125"/>
      <point x="394.55" y="417.2125" type="curve"/>
      <point x="247.8875" y="417.2125" type="line" smooth="yes"/>
      <point x="242.825" y="417.2125"/>
      <point x="239.58749999999998" y="421.0375"/>
      <point x="238.58749999999998" y="425.6875" type="curve"/>
      <point x="229.0625" y="460.6875"/>
      <point x="218.425" y="512.7125"/>
      <point x="218.425" y="554.2125" type="curve"/>
      <point x="218.425" y="623.175"/>
      <point x="267.975" y="663.2125"/>
      <point x="332.05" y="663.2125" type="curve"/>
      <point x="386.9625" y="663.2125"/>
      <point x="417.2375" y="637.8"/>
      <point x="435.2875" y="602.1625" type="curve"/>
      <point x="438.1125" y="596.5125"/>
      <point x="444.175" y="595.1"/>
      <point x="451.2375" y="597.5125" type="curve"/>
      <point x="521.2625" y="620.475" type="line" smooth="yes"/>
      <point x="527.7375" y="622.8875"/>
      <point x="532.5625" y="625.5375"/>
      <point x="529.7375" y="632.6" type="curve"/>
      <point x="498.3625" y="706.2375"/>
      <point x="406.8625" y="752.0"/>
      <point x="318.0875" y="752.0" type="curve"/>
      <point x="186.7875" y="752.0"/>
      <point x="74.125" y="659.5"/>
      <point x="103.5125" y="503.1125" type="curve"/>
      <point x="116.5625" y="425.925" type="line" smooth="yes"/>
      <point x="117.5625" y="419.45"/>
      <point x="114.15" y="416.625"/>
      <point x="108.0875" y="416.625" type="curve"/>
      <point x="34.4" y="416.625" type="line" smooth="yes"/>
      <point x="29.3375" y="416.625"/>
      <point x="26.1" y="413.8"/>
      <point x="26.1" y="408.15" type="curve"/>
      <point x="26.1" y="361.1125" type="line" smooth="yes"/>
      <point x="26.1" y="355.05"/>
      <point x="29.3375" y="351.8125"/>
      <point x="34.4" y="351.8125" type="curve"/>
      <point x="122.8625" y="351.8125" type="line" smooth="yes"/>
      <point x="127.5125" y="351.8125"/>
      <point x="130.1625" y="349.9875"/>
      <point x="131.1625" y="344.3375" type="curve"/>
      <point x="138.3375" y="288.3375"/>
      <point x="141.6875" y="251.2375"/>
      <point x="141.6875" y="223.4875" type="curve"/>
      <point x="141.6875" y="130.125"/>
      <point x="102.05" y="89.5625"/>
      <point x="49.875" y="90.15" type="curve"/>
      <point x="22.3" y="90.15" type="line" smooth="yes"/>
      <point x="14.825" y="90.15"/>
      <point x="12.0" y="86.9125"/>
      <point x="12.0" y="79.85" type="curve"/>
      <point x="12.0" y="12.95" type="line" smooth="yes"/>
      <point x="12.0" y="5.0625"/>
      <point x="16.2375" y="0.0"/>
    </contour>
  </outline>
</glyph>
<glyph name="currency" format="2">
  <advance width="548.8875"/>
  <unicode hex="00A4"/>
  <outline>
    <contour>
      <point x="274.8" y="171.825" type="curve"/>
      <point x="274.8" y="171.825" type="line"/>
      <point x="314.6875" y="171.825"/>
      <point x="351.575" y="184.65"/>
      <point x="383.7" y="205.65" type="curve"/>
      <point x="387.7" y="208.2375"/>
      <point x="391.2875" y="207.475"/>
      <point x="395.4625" y="203.8875" type="curve"/>
      <point x="444.175" y="155.175" type="line"/>
      <point x="448.0" y="150.7625"/>
      <point x="451.5875" y="151.175"/>
      <point x="455.5875" y="155.175" type="curve"/>
      <point x="492.8" y="192.8" type="line" smooth="yes"/>
      <point x="496.3875" y="196.8"/>
      <point x="496.3875" y="200.8"/>
      <point x="492.3875" y="205.3875" type="curve"/>
      <point x="442.2625" y="254.925" type="line" smooth="yes"/>
      <point x="438.9125" y="258.275"/>
      <point x="439.5" y="261.45"/>
      <point x="441.675" y="265.2125" type="curve"/>
      <point x="463.15" y="295.3375"/>
      <point x="474.15" y="333.7"/>
      <point x="474.15" y="373.0" type="curve"/>
      <point x="474.15" y="413.125"/>
      <point x="462.15" y="449.6"/>
      <point x="441.9125" y="481.1375" type="curve"/>
      <point x="439.325" y="485.1375"/>
      <point x="438.9125" y="488.1375"/>
      <point x="442.5" y="491.725" type="curve"/>
      <point x="492.3875" y="541.2" type="line" smooth="yes"/>
      <point x="495.8" y="545.2"/>
      <point x="496.3875" y="548.6125"/>
      <point x="492.3875" y="553.2" type="curve"/>
      <point x="455.175" y="591.65" type="line" smooth="yes"/>
      <point x="451.5875" y="595.2375"/>
      <point x="447.0" y="595.2375"/>
      <point x="443.4125" y="591.65" type="curve"/>
      <point x="394.1125" y="542.35" type="line" smooth="yes"/>
      <point x="390.525" y="538.7625"/>
      <point x="386.525" y="538.7625"/>
      <point x="381.9375" y="541.35" type="curve"/>
      <point x="349.9875" y="562.175"/>
      <point x="311.8625" y="573.5875"/>
      <point x="272.7375" y="573.5875" type="curve"/>
      <point x="235.0875" y="573.5875"/>
      <point x="197.375" y="561.7625"/>
      <point x="166.6625" y="542.7625" type="curve"/>
      <point x="160.425" y="539.35"/>
      <point x="156.425" y="539.9375"/>
      <point x="152.6" y="543.7625" type="curve"/>
      <point x="105.0" y="591.3625" type="line"/>
      <point x="99.175" y="597.775"/>
      <point x="93.35" y="597.95"/>
      <point x="86.7625" y="590.95" type="curve"/>
      <point x="55.962500000000006" y="559.7375" type="line"/>
      <point x="50.375" y="553.15"/>
      <point x="50.375" y="546.9125"/>
      <point x="55.962500000000006" y="540.7375" type="curve"/>
      <point x="102.5625" y="494.1375" type="line" smooth="yes"/>
      <point x="106.8" y="489.9"/>
      <point x="107.3875" y="485.9"/>
      <point x="103.975" y="479.6625" type="curve"/>
      <point x="84.15" y="448.5375"/>
      <point x="72.975" y="412.8875"/>
      <point x="72.975" y="372.5875" type="curve"/>
      <point x="72.975" y="332.6375"/>
      <point x="83.3875" y="300.05"/>
      <point x="102.2125" y="268.5125" type="curve"/>
      <point x="105.8" y="262.5125"/>
      <point x="106.2125" y="256.6875"/>
      <point x="101.8" y="251.6875" type="curve"/>
      <point x="54.7875" y="204.675" type="line" smooth="yes"/>
      <point x="49.2" y="199.0875"/>
      <point x="48.7875" y="192.85"/>
      <point x="54.7875" y="186.85" type="curve"/>
      <point x="85.175" y="155.875" type="line"/>
      <point x="92.5875" y="149.05"/>
      <point x="98.825" y="149.4625"/>
      <point x="105.0" y="155.05" type="curve"/>
      <point x="151.6" y="202.2375" type="line" smooth="yes"/>
      <point x="155.6" y="206.825"/>
      <point x="160.425" y="207.0625"/>
      <point x="166.075" y="203.65" type="curve"/>
      <point x="197.7875" y="182.825"/>
      <point x="235.5" y="171.825"/>
    </contour>
    <contour>
      <point x="274.7375" y="248.825" type="curve"/>
      <point x="274.7375" y="248.825" type="line"/>
      <point x="204.15" y="248.825"/>
      <point x="150.5625" y="307.4125"/>
      <point x="150.5625" y="373.0" type="curve"/>
      <point x="150.5625" y="438.5875"/>
      <point x="204.15" y="497.175"/>
      <point x="274.7375" y="497.175" type="curve"/>
      <point x="345.325" y="497.175"/>
      <point x="398.9125" y="438.5875"/>
      <point x="398.9125" y="373.0" type="curve"/>
      <point x="398.9125" y="307.4125"/>
      <point x="345.325" y="248.825"/>
    </contour>
  </outline>
</glyph>
